<svg width="10" height="8" viewBox="0 0 10 8" fill="none" xmlns="http://www.w3.org/2000/svg">
<path d="M4.98037 7.00214C4.84938 7.0029 4.71954 6.97767 4.59828 6.92791C4.47702 6.87814 4.36673 6.80482 4.27373 6.71214L0.292697 2.71214C0.199901 2.6189 0.126291 2.50821 0.0760699 2.38639C0.0258488 2.26457 1.95554e-09 2.134 0 2.00214C-1.95554e-09 1.87028 0.0258488 1.73971 0.0760699 1.61789C0.126291 1.49607 0.199901 1.38538 0.292697 1.29214C0.385494 1.1989 0.495659 1.12494 0.616904 1.07448C0.738148 1.02402 0.868097 0.998047 0.999331 0.998047C1.13057 0.998047 1.26051 1.02402 1.38176 1.07448C1.503 1.12494 1.61317 1.1989 1.70597 1.29214L4.98037 4.60214L8.26472 1.42214C8.35628 1.31985 8.46785 1.23764 8.59247 1.18065C8.71709 1.12367 8.85207 1.09313 8.98897 1.09095C9.12587 1.08877 9.26175 1.115 9.38811 1.16799C9.51446 1.22098 9.62857 1.2996 9.7233 1.39892C9.81804 1.49824 9.89136 1.61614 9.93868 1.74523C9.986 1.87433 10.0063 2.01184 9.9983 2.14918C9.99031 2.28652 9.95421 2.42072 9.89224 2.54339C9.83028 2.66607 9.74379 2.77458 9.63818 2.86214L5.65714 6.72214C5.47514 6.89845 5.23317 6.99856 4.98037 7.00214Z" fill="#B1B1B1"/>
</svg>
