<svg width="140" height="26" viewBox="0 0 140 26" fill="none" xmlns="http://www.w3.org/2000/svg">
<path d="M1.27344 10.8413L10.6989 19.9615H16.488L4.16993 8.03809L1.27344 10.8413Z" fill="#1CBC29"/>
<path d="M22.1677 15.1607L12.7423 6.04053H6.95312L19.2712 17.9621L22.1677 15.1607Z" fill="#1CBC29"/>
<path d="M31.7006 14.0438V22.4498H45.7781L44.4709 25.3355H26.6738V0.10083H47.7835L46.1092 2.88576H31.7006V11.2918H39.3211L37.9779 14.0438H31.7006Z" fill="white"/>
<path d="M116.047 1.09863H140.006L136.604 4.43286H130.575V25.3354H125.478V4.43286H119.293L116.047 1.09863Z" fill="white"/>
<path d="M82.9502 11.4749H86.3556C88.467 11.4749 90.1848 9.81238 90.1848 7.769C90.1848 5.72562 88.467 4.06308 86.3556 4.06308H78.9356V25.3355H73.8389V0.10083H86.3556C90.7316 0.10083 94.2789 3.53393 94.2789 7.769C94.2789 12.0041 91.0816 15.0838 87.0159 15.4079L97.4459 25.5021H92.0143L82.9521 17.2572V11.4731L82.9502 11.4749Z" fill="white"/>
<path d="M5.13649 0H-0.0302734V25.3354H5.13649V0Z" fill="#1CBC29"/>
<path d="M22.8904 0H17.7236V25.3354H22.8904V0Z" fill="#1CBC29"/>
<path d="M61.3393 0.10083H59.4475H57.5537L47.3242 25.3355H52.4607L59.4475 8.11322L66.4342 25.3355H71.5688L61.3393 0.10083Z" fill="white"/>
<path d="M115.838 14.5801C115.271 14.0327 114.561 13.5017 113.706 12.9854C112.851 12.4708 112.064 12.0625 111.349 11.7604C110.632 11.4583 109.835 11.1507 108.956 10.8376C108.562 10.7039 108.1 10.5483 107.569 10.367C106.551 10.01 105.783 9.72986 105.263 9.52846C104.742 9.32705 104.216 9.08719 103.685 8.80705C103.153 8.52691 102.765 8.23578 102.523 7.93367C102.281 7.63155 102.113 7.26902 102.02 6.8424C101.997 6.64099 101.986 6.41212 101.986 6.15395C101.986 5.89578 102.056 5.5955 102.194 5.24761C102.332 4.90156 102.517 4.58296 102.748 4.29184C103.626 3.24085 105.071 2.71536 107.083 2.71536C109.094 2.71536 110.681 3.35437 112.075 4.62508H116.727C114.639 1.65522 111.404 0.164795 107.014 0.164795C105.743 0.164795 104.57 0.311274 103.496 0.60057C102.421 0.891696 101.518 1.27803 100.79 1.75775C100.062 2.2393 99.4374 2.79226 98.9171 3.41846C98.3969 4.04465 98.0204 4.67268 97.7896 5.29705C97.5588 5.92324 97.4434 6.52747 97.4434 7.10972C97.4434 7.69198 97.5058 8.23395 97.6344 8.73747C97.7612 9.24099 97.9693 9.70606 98.2588 10.1308C98.5482 10.5556 98.832 10.9365 99.1082 11.2716C99.3863 11.6066 99.7723 11.9325 100.27 12.2456C100.767 12.5587 101.189 12.8169 101.535 13.0165C101.882 13.2179 102.362 13.4468 102.975 13.7049C103.586 13.9631 104.067 14.1517 104.415 14.2762C104.761 14.3989 105.247 14.5728 105.872 14.7962L106.876 15.1313C107.87 15.4663 108.632 15.741 109.166 15.9534C109.697 16.1658 110.263 16.413 110.864 16.6913C111.466 16.9714 111.911 17.2332 112.2 17.4804C112.49 17.7276 112.726 18.0114 112.911 18.3355C113.097 18.6596 113.19 19.0239 113.19 19.4268C113.19 20.5675 112.692 21.4793 111.699 22.1623C110.706 22.8452 109.572 23.1858 108.301 23.1858C105.312 23.1858 103.274 22.3508 102.179 20.6883H98.079C98.6731 22.2062 99.6815 23.4128 101.106 24.31C102.828 25.3958 105.007 25.9378 107.643 25.9378C108.891 25.9378 110.093 25.8151 111.248 25.5679C112.404 25.3225 113.49 24.9417 114.508 24.4272C115.524 23.9127 116.334 23.1913 116.936 22.263C117.537 21.3347 117.838 20.2654 117.838 19.0587C117.838 18.1854 117.647 17.3596 117.267 16.5759C116.884 15.7923 116.411 15.1276 115.846 14.5801H115.838Z" fill="white"/>
</svg>
