<svg width="59" height="59" viewBox="0 0 59 59" fill="none" xmlns="http://www.w3.org/2000/svg">
<g filter="url(#filter0_d_391_827)">
<circle cx="29.5" cy="29.5" r="23.2" stroke="white" stroke-width="0.6"/>
<path d="M29.5 17C32.9833 17 35.8072 19.8634 35.8072 23.3953C35.8072 26.9273 32.9833 29.7907 29.5 29.7907C26.0167 29.7907 23.1928 26.9273 23.1928 23.3953C23.1928 19.8634 26.0167 17 29.5 17ZM29.5 42C25.2928 42 21.5229 40.0669 19 37.0436C20.3474 34.4709 22.985 32.6977 26.0597 32.6977C26.2317 32.6977 26.4038 32.7267 26.5686 32.7776C27.5003 33.0829 28.4751 33.2791 29.5 33.2791C30.5249 33.2791 31.5068 33.0829 32.4314 32.7776C32.5962 32.7267 32.7683 32.6977 32.9403 32.6977C36.015 32.6977 38.6526 34.4709 40 37.0436C37.4771 40.0669 33.7072 42 29.5 42Z" fill="white"/>
</g>
<defs>
<filter id="filter0_d_391_827" x="0" y="0" width="59" height="59" filterUnits="userSpaceOnUse" color-interpolation-filters="sRGB">
<feFlood flood-opacity="0" result="BackgroundImageFix"/>
<feColorMatrix in="SourceAlpha" type="matrix" values="0 0 0 0 0 0 0 0 0 0 0 0 0 0 0 0 0 0 127 0" result="hardAlpha"/>
<feOffset/>
<feGaussianBlur stdDeviation="3"/>
<feComposite in2="hardAlpha" operator="out"/>
<feColorMatrix type="matrix" values="0 0 0 0 0 0 0 0 0 0 0 0 0 0 0 0 0 0 0.02 0"/>
<feBlend mode="normal" in2="BackgroundImageFix" result="effect1_dropShadow_391_827"/>
<feBlend mode="normal" in="SourceGraphic" in2="effect1_dropShadow_391_827" result="shape"/>
</filter>
</defs>
</svg>
