<?xml version="1.0" standalone="no"?>
<!DOCTYPE svg PUBLIC "-//W3C//DTD SVG 1.1//EN" "http://www.w3.org/Graphics/SVG/1.1/DTD/svg11.dtd" >
<svg xmlns="http://www.w3.org/2000/svg" xmlns:xlink="http://www.w3.org/1999/xlink" version="1.1">
<metadata>
Created by FontForge 20170731 at Fri Apr  7 16:25:32 2023
 By Aleksey,,,
Copyright (c) 2016 by Martin V?cha. All rights reserved. |DCNT
</metadata>
<defs>
<font id="Matter-MediumItalic" horiz-adv-x="0" >
  <font-face 
    font-family="Matter Medium"
    font-weight="500"
    font-style="italic"
    font-stretch="normal"
    units-per-em="2048"
    panose-1="0 0 6 0 0 0 0 0 0 0"
    ascent="1659"
    descent="-389"
    x-height="1032"
    cap-height="1434"
    bbox="-758 -434 3402 2224"
    underline-thickness="102"
    underline-position="-307"
    slope="-9"
    unicode-range="U+000D-F8FF"
  />
<missing-glyph horiz-adv-x="2222" 
d="M106 633q0 162 49.5 315t141 278t213 221t272.5 151t312 61v-2048q-202 7 -385 90.5t-315 220t-210 322.5t-78 389zM1167 1651q83 -28 153.5 -171.5t111.5 -368.5t41 -478t-41.5 -477t-111.5 -367t-153 -172v2034zM1831 633q0 -344 -142 -617t-366 -366q103 134 164 398
t61 585t-61 585.5t-164 401.5q146 -62 262 -207.5t181 -349.5t65 -430zM2154 633q0 -311 -170.5 -566.5t-451.5 -373.5q172 150 273.5 400t101.5 540q0 289 -101.5 541t-273.5 401q281 -119 451.5 -376t170.5 -566z" />
    <glyph glyph-name=".notdef" horiz-adv-x="2222" 
d="M106 633q0 162 49.5 315t141 278t213 221t272.5 151t312 61v-2048q-202 7 -385 90.5t-315 220t-210 322.5t-78 389zM1167 1651q83 -28 153.5 -171.5t111.5 -368.5t41 -478t-41.5 -477t-111.5 -367t-153 -172v2034zM1831 633q0 -344 -142 -617t-366 -366q103 134 164 398
t61 585t-61 585.5t-164 401.5q146 -62 262 -207.5t181 -349.5t65 -430zM2154 633q0 -311 -170.5 -566.5t-451.5 -373.5q172 150 273.5 400t101.5 540q0 289 -101.5 541t-273.5 401q281 -119 451.5 -376t170.5 -566z" />
    <glyph glyph-name=".null" 
 />
    <glyph glyph-name="nonmarkingreturn" horiz-adv-x="682" 
 />
    <glyph glyph-name="CR" unicode="&#xd;" horiz-adv-x="491" 
 />
    <glyph glyph-name="space" unicode=" " horiz-adv-x="491" 
 />
    <glyph glyph-name="exclam" unicode="!" horiz-adv-x="579" 
d="M197 438l102 996h281l-213 -996h-170zM244 -16q-63 0 -104.5 40.5t-41.5 102.5t41.5 102.5t104.5 40.5t104 -40.5t41 -102.5t-41 -102.5t-104 -40.5z" />
    <glyph glyph-name="quotedbl" unicode="&#x22;" horiz-adv-x="798" 
d="M221 987l23 463h250l-123 -463h-150zM586 987l22 463h250l-123 -463h-149z" />
    <glyph glyph-name="numbersign" unicode="#" horiz-adv-x="1406" 
d="M1403 854h-281l-102 -274h252l-27 -170h-291l-153 -410h-178l153 410h-299l-155 -410h-177l154 410h-250l27 170h289l102 274h-260l26 170h299l154 410h178l-155 -410h301l153 410h178l-153 -410h242zM842 580l102 274h-299l-104 -274h301z" />
    <glyph glyph-name="dollar" unicode="$" horiz-adv-x="1206" 
d="M442 1055q0 -41 23.5 -72t63.5 -51.5t92 -38t109.5 -35.5t114.5 -39t109 -53t92 -74t63.5 -105.5t23.5 -142.5q0 -189 -140 -316t-364 -142l-31 -199l-203 2l33 209q-171 37 -274.5 154t-106.5 284l227 49q-6 -133 83 -212.5t231 -79.5q131 0 212 63.5t81 165.5
q0 46 -23.5 82.5t-63 60.5t-91 44.5t-108 39.5t-113 40.5t-108 51.5t-91 68t-63 95.5t-23.5 129.5q0 165 131 281t329 133l29 182h203l-31 -194q160 -31 256.5 -125.5t102.5 -231.5l-230 -65q-4 104 -82.5 165.5t-204.5 61.5q-122 0 -190 -50.5t-68 -135.5z" />
    <glyph glyph-name="percent" unicode="%" horiz-adv-x="1634" 
d="M430 729q-130 0 -207.5 84t-77.5 217q0 180 114.5 300t285.5 120q130 0 206 -83.5t76 -217.5q0 -180 -114 -300t-283 -120zM160 0l1186 1434h190l-1186 -1434h-190zM455 887q87 0 140.5 70t53.5 178q0 73 -34 115t-95 42q-87 0 -141.5 -68.5t-54.5 -176.5q0 -74 35 -117
t96 -43zM1163 -16q-131 0 -207.5 84t-76.5 217q0 180 114 300t283 120q130 0 206.5 -84t76.5 -218q0 -180 -113.5 -299.5t-282.5 -119.5zM1188 141q85 0 138.5 70t53.5 178q0 73 -34 115.5t-95 42.5q-86 0 -140 -69t-54 -177q0 -74 34.5 -117t96.5 -43z" />
    <glyph glyph-name="ampersand" unicode="&#x26;" horiz-adv-x="1378" 
d="M1309 512l-234 -229l203 -283h-283l-92 131q-211 -147 -420 -147q-180 0 -290.5 104.5t-110.5 269.5q0 89 27.5 161.5t79.5 125t107.5 88t131.5 70.5q-92 146 -92 256q0 179 117.5 285t304.5 106q139 0 223 -82.5t84 -216.5q0 -65 -17 -121t-44.5 -97.5t-70 -79
t-83.5 -64t-96 -54.5l196 -274l215 205zM549 1085q0 -36 22.5 -80.5t67.5 -109.5q107 48 162 98t55 125q0 60 -37 96.5t-94 36.5q-77 0 -126.5 -45t-49.5 -121zM528 193q116 0 250 112l-235 332q-53 -25 -91 -48.5t-71.5 -54.5t-50.5 -69.5t-17 -83.5q0 -85 58 -136.5
t157 -51.5z" />
    <glyph glyph-name="quotesingle" unicode="'" horiz-adv-x="434" 
d="M221 987l23 463h250l-123 -463h-150z" />
    <glyph glyph-name="parenleft" unicode="(" horiz-adv-x="581" 
d="M260 -365q-100 153 -153.5 357.5t-53.5 415.5q0 328 133.5 630t382.5 557l136 -114q-221 -257 -329 -514.5t-108 -538.5q0 -174 41.5 -349.5t120.5 -326.5z" />
    <glyph glyph-name="parenright" unicode=")" horiz-adv-x="581" 
d="M51 -365l-135 117q223 262 329.5 517.5t106.5 537.5q0 173 -42 350t-120 324l170 114q100 -151 153.5 -355t53.5 -415q0 -328 -133 -629.5t-383 -560.5z" />
    <glyph glyph-name="asterisk" unicode="*" horiz-adv-x="999" 
d="M1020 1053l-309 -86l149 -246l-151 -103l-148 256l-229 -256l-121 103l225 246l-278 86l75 166l283 -95l47 310h172l-51 -310l311 95z" />
    <glyph glyph-name="plus" unicode="+" horiz-adv-x="1136" 
d="M1112 768l-29 -193h-405l-64 -403h-192l63 406h-405l31 192h405l64 404h192l-65 -406h405z" />
    <glyph glyph-name="comma" unicode="," horiz-adv-x="577" 
d="M-63 -240l204 488h277l-332 -488h-149z" />
    <glyph glyph-name="hyphen" unicode="-" horiz-adv-x="751" 
d="M57 496l31 192h637l-31 -192h-637z" />
    <glyph glyph-name="period" unicode="." horiz-adv-x="559" 
d="M221 -16q-63 0 -104 40.5t-41 102.5t41 102.5t104 40.5t104.5 -40.5t41.5 -102.5t-41.5 -102.5t-104.5 -40.5z" />
    <glyph glyph-name="slash" unicode="/" horiz-adv-x="905" 
d="M-63 -2l870 1436h231l-872 -1436h-229z" />
    <glyph glyph-name="zero" unicode="0" horiz-adv-x="1302" 
d="M584 -16q-218 0 -352.5 147t-135.5 391q-1 196 48.5 367.5t139 295t221 194.5t286.5 71q219 0 352 -150t133 -397q0 -261 -85.5 -469.5t-244 -329t-362.5 -120.5zM610 195q125 0 222 96t147.5 252.5t50.5 343.5q0 159 -73.5 254.5t-194.5 97.5q-124 1 -221 -93.5
t-148 -251.5t-51 -345q0 -162 73.5 -258t194.5 -96z" />
    <glyph glyph-name="one" unicode="1" horiz-adv-x="747" 
d="M305 0l184 1157q-154 -115 -358 -156l35 216q222 49 405 217h185l-228 -1434h-223z" />
    <glyph glyph-name="two" unicode="2" horiz-adv-x="1163" 
d="M-18 0l30 199l592 444q156 118 224.5 210.5t68.5 188.5q0 88 -59 143.5t-154 55.5q-133 0 -217.5 -90.5t-93.5 -241.5l-228 17q12 226 177 375t395 149q190 0 308 -105.5t118 -273.5q0 -155 -97.5 -291.5t-320.5 -296.5l-369 -272h652l-33 -211h-993z" />
    <glyph glyph-name="three" unicode="3" horiz-adv-x="1189" 
d="M496 -16q-217 0 -343 114.5t-116 304.5l225 35q-1 -110 72 -176.5t196 -66.5q146 0 241 85.5t95 219.5q0 103 -64 161t-181 58q-92 0 -166 -45l-78 160l475 391h-643l33 209h936l-33 -199l-440 -356q186 10 296.5 -87t110.5 -270q0 -237 -173.5 -387.5t-442.5 -150.5z
" />
    <glyph glyph-name="four" unicode="4" horiz-adv-x="1275" 
d="M705 0l49 322h-736l33 208l854 904h266l-143 -904h193l-35 -208h-191l-51 -322h-239zM303 530h483l99 621z" />
    <glyph glyph-name="five" unicode="5" horiz-adv-x="1181" 
d="M512 -16q-211 0 -337 108t-126 289l225 39q3 -103 74.5 -164t188.5 -61q143 0 234 92t91 237q0 110 -67 173t-187 63q-182 0 -313 -156l-168 37l242 793h780l-33 -209h-602l-119 -379q58 49 139 78.5t158 29.5q192 0 304 -110t112 -293q0 -250 -167 -408.5t-429 -158.5z
" />
    <glyph glyph-name="six" unicode="6" horiz-adv-x="1249" 
d="M729 965q195 0 314.5 -117t119.5 -303q0 -159 -77 -288t-209.5 -201t-292.5 -72q-225 0 -358.5 149.5t-133.5 396.5q0 213 66 389.5t178.5 291t259 177t309.5 62.5q114 0 214 -35.5t171 -103.5l-141 -178q-108 108 -277 108q-194 0 -337.5 -128t-184.5 -339
q64 90 165 140.5t214 50.5zM600 195q131 0 223.5 91t98.5 228q8 114 -61 186t-187 72q-145 0 -243.5 -89.5t-98.5 -233.5q0 -113 73 -183.5t195 -70.5z" />
    <glyph glyph-name="seven" unicode="7" horiz-adv-x="1138" 
d="M145 0q78 277 291 593.5t512 631.5h-770l33 209h1018l-33 -209q-694 -760 -809 -1225h-242z" />
    <glyph glyph-name="eight" unicode="8" horiz-adv-x="1185" 
d="M524 -16q-207 0 -338 102t-131 272q0 144 91.5 257t234.5 157q-74 36 -117 106.5t-43 153.5q0 177 146.5 297.5t369.5 120.5q185 0 297.5 -93.5t112.5 -238.5q0 -112 -71 -206.5t-183 -139.5q98 -33 154.5 -116.5t56.5 -190.5q0 -214 -161 -347.5t-419 -133.5zM653 860
q115 0 191 66t76 168q0 75 -57.5 120.5t-153.5 45.5q-117 0 -190 -62.5t-73 -163.5q0 -80 55.5 -127t151.5 -47zM553 184q139 0 226 75.5t87 195.5q0 93 -66.5 147.5t-181.5 54.5q-143 0 -232 -74.5t-89 -195.5q0 -91 70 -147t186 -56z" />
    <glyph glyph-name="nine" unicode="9" horiz-adv-x="1245" 
d="M586 469q-196 0 -315 117t-119 303q0 159 77 288t209.5 201t292.5 72q223 0 356.5 -150t133.5 -397q0 -214 -66 -390t-178 -290.5t-258 -176.5t-309 -62q-114 0 -214 35.5t-171 103.5l141 178q106 -106 274 -106q194 0 338 127t187 337q-64 -90 -165 -140t-214 -50z
M713 1241q-130 0 -222 -92t-98 -229q-8 -114 61 -186t187 -72q145 0 243.5 89.5t98.5 233.5q0 114 -73.5 185t-196.5 71z" />
    <glyph glyph-name="colon" unicode=":" horiz-adv-x="559" 
d="M338 762q-63 0 -104 40.5t-41 102.5t41 103t104 41q62 0 103.5 -41.5t41.5 -102.5t-41.5 -102t-103.5 -41zM221 -16q-63 0 -104 40.5t-41 102.5t41 102.5t104 40.5q62 0 104 -41t42 -102t-42 -102t-104 -41z" />
    <glyph glyph-name="semicolon" unicode=";" horiz-adv-x="595" 
d="M401 733q-57 0 -92 34.5t-35 88.5q0 67 50.5 115.5t119.5 48.5q56 0 90.5 -35t34.5 -88q0 -68 -50 -116t-118 -48zM-74 -240l205 488h279l-332 -488h-152z" />
    <glyph glyph-name="less" unicode="&#x3c;" horiz-adv-x="1114" 
d="M983 84l-917 410l32 202l1045 410l-37 -229l-752 -281l664 -283z" />
    <glyph glyph-name="equal" unicode="=" horiz-adv-x="1114" 
d="M115 788l30 193h979l-30 -193h-979zM47 365l31 190h979l-31 -190h-979z" />
    <glyph glyph-name="greater" unicode="&#x3e;" horiz-adv-x="1114" 
d="M4 84l35 229l752 283l-664 281l37 229l913 -410l-33 -202z" />
    <glyph glyph-name="question" unicode="?" horiz-adv-x="1067" 
d="M356 424q9 81 41 145t75.5 105.5t95 76.5t100.5 66t89.5 65t65.5 82.5t25 110.5q0 79 -53 128.5t-144 49.5q-117 0 -196.5 -71t-94.5 -191l-210 25q29 195 175.5 314.5t358.5 119.5q184 0 291.5 -94.5t107.5 -251.5q0 -91 -26 -161.5t-68 -115t-93.5 -80.5t-104.5 -67
t-98 -63.5t-77.5 -81.5t-40.5 -111h-219zM440 -16q-62 0 -102.5 41t-40.5 102t40.5 102t102.5 41q63 0 104.5 -40.5t41.5 -102.5t-41.5 -102.5t-104.5 -40.5z" />
    <glyph glyph-name="at" unicode="@" horiz-adv-x="1867" 
d="M1217 983h178l-86 -537q-7 -52 19 -84t69 -32q98 0 168.5 118t70.5 289q0 224 -154 361t-407 137q-219 0 -403.5 -99t-293 -276t-108.5 -393q0 -259 161 -417.5t433 -158.5q140 0 272 37.5t287 114.5l41 -180q-181 -78 -328 -113t-307 -35q-169 0 -309 53.5t-236 149.5
t-149 231t-53 295q0 202 82 383t220.5 309t326.5 202.5t393 74.5q212 0 377 -84.5t254.5 -233.5t89.5 -337q0 -263 -134 -434.5t-331 -171.5q-83 0 -140 35.5t-77 99.5q-48 -64 -127 -100.5t-174 -36.5q-157 0 -246.5 94t-89.5 256q0 212 134 352.5t331 142.5
q73 0 133.5 -29t95.5 -77zM887 307q122 0 201 88.5t79 227.5q0 99 -52.5 158t-143.5 59q-122 0 -202.5 -88.5t-80.5 -227.5q0 -100 53.5 -159t145.5 -58z" />
    <glyph glyph-name="A" unicode="A" horiz-adv-x="1372" 
d="M1028 0l-74 338h-585l-183 -338h-247l784 1434h223l332 -1434h-250zM479 545h432l-125 573z" />
    <glyph glyph-name="B" unicode="B" horiz-adv-x="1271" 
d="M63 0l228 1434h540q182 0 288 -83t106 -231q0 -118 -68.5 -207t-161.5 -129q89 -36 142 -112.5t53 -190.5q0 -219 -154.5 -350t-406.5 -131h-566zM436 862h291q129 0 196.5 57t67.5 162q0 76 -53 116t-156 40h-286zM334 211h299q162 0 242.5 67t80.5 193q0 184 -251 184
h-302z" />
    <glyph glyph-name="C" unicode="C" horiz-adv-x="1482" 
d="M721 -16q-126 0 -237 41t-196.5 117t-135.5 195.5t-50 266.5q0 165 45.5 304.5t124 238t183.5 168t223.5 102.5t243.5 33q250 0 404.5 -127t158.5 -340l-244 -51q-7 144 -104 226.5t-250 82.5q-113 0 -211 -40.5t-171 -116.5t-115 -193t-42 -262q0 -201 114 -317.5
t292 -116.5q148 0 254.5 76.5t152.5 211.5l236 -51q-75 -212 -253 -330t-423 -118z" />
    <glyph glyph-name="D" unicode="D" horiz-adv-x="1396" 
d="M63 0l228 1434h450q134 0 247.5 -39t198.5 -113t133 -189t48 -259q0 -197 -70.5 -357.5t-189.5 -263t-272 -158t-322 -55.5h-451zM334 211h196q90 0 174 20.5t160.5 67t132.5 114.5t89.5 170t33.5 226q0 87 -22.5 157t-62 118t-94.5 80t-117.5 46.5t-133.5 14.5h-196z
" />
    <glyph glyph-name="E" unicode="E" horiz-adv-x="1177" 
d="M63 0l228 1434h934l-33 -209h-694l-58 -361h559l-32 -209h-561l-70 -444h719l-35 -211h-957z" />
    <glyph glyph-name="F" unicode="F" horiz-adv-x="1159" 
d="M63 0l228 1434h948l-33 -209h-708l-60 -377h576l-35 -209h-576l-100 -639h-240z" />
    <glyph glyph-name="G" unicode="G" horiz-adv-x="1531" 
d="M694 -16q-122 0 -228.5 39t-189 113t-129.5 192t-47 266q0 164 47.5 305t129 241t188.5 171t227.5 105t245.5 34q251 0 400 -125t155 -342l-242 -49q-8 142 -100.5 224.5t-247.5 82.5q-117 0 -218 -43t-176 -122t-118 -197t-43 -261q0 -200 105 -311.5t282 -111.5
t302 99.5t159 262.5h-457l33 199h680l-119 -756h-217l29 193q-63 -95 -187 -152t-264 -57z" />
    <glyph glyph-name="H" unicode="H" horiz-adv-x="1439" 
d="M1206 1434h242l-227 -1434h-242l102 643h-675l-103 -643h-240l228 1434h239l-92 -580h676z" />
    <glyph glyph-name="I" unicode="I" horiz-adv-x="522" 
d="M63 0l228 1434h239l-227 -1434h-240z" />
    <glyph glyph-name="J" unicode="J" horiz-adv-x="720" 
d="M8 213q43 -12 98 -12q91 0 152 58.5t80 166.5l160 1008h231l-160 -1008q-34 -217 -156 -327.5t-300 -110.5q-74 0 -140 16z" />
    <glyph glyph-name="K" unicode="K" horiz-adv-x="1339" 
d="M1434 1434l-652 -580l465 -854h-295l-358 686l-211 -188l-80 -498h-240l228 1434h239l-94 -600l668 600h330z" />
    <glyph glyph-name="L" unicode="L" horiz-adv-x="1091" 
d="M63 0l228 1434h239l-194 -1223h686l-35 -211h-924z" />
    <glyph glyph-name="M" unicode="M" horiz-adv-x="1748" 
d="M63 0l228 1434h272l285 -1096l633 1096h276l-227 -1434h-227l155 985l-569 -985h-184l-259 985l-155 -985h-228z" />
    <glyph glyph-name="N" unicode="N" horiz-adv-x="1421" 
d="M63 0l228 1434h237l506 -1055l166 1055h230l-228 -1434h-239l-504 1053l-168 -1053h-228z" />
    <glyph glyph-name="O" unicode="O" horiz-adv-x="1595" 
d="M754 -16q-188 0 -337 80.5t-232 223.5t-83 322q0 181 60.5 337t166.5 266.5t255.5 173.5t322.5 63q139 0 260 -47.5t206 -130.5t134 -199.5t49 -249.5q0 -243 -103 -434.5t-286 -298t-413 -106.5zM786 195q146 0 267 79.5t190.5 218.5t69.5 306q0 197 -122.5 319.5
t-318.5 122.5q-146 0 -266.5 -80t-189 -219t-68.5 -307q0 -197 120.5 -318.5t317.5 -121.5z" />
    <glyph glyph-name="P" unicode="P" horiz-adv-x="1220" 
d="M63 0l228 1434h565q189 0 298.5 -99t109.5 -266q0 -218 -152.5 -354.5t-392.5 -136.5h-324l-92 -578h-240zM428 786h307q130 0 206.5 68.5t76.5 185.5q0 87 -55.5 136t-157.5 49h-307z" />
    <glyph glyph-name="Q" unicode="Q" horiz-adv-x="1589" 
d="M1556 823q0 -200 -72 -367t-202 -282l115 -154l-170 -129l-125 166q-162 -73 -348 -73q-188 0 -337 80.5t-232 223.5t-83 322q0 181 60.5 337t166.5 266.5t255.5 173.5t322.5 63q139 0 260 -47.5t206 -130.5t134 -199.5t49 -249.5zM786 195q102 0 183 34l-226 297
l172 133l232 -307q78 85 122 200.5t44 246.5q0 197 -122.5 319.5t-318.5 122.5q-146 0 -266.5 -80t-189 -219t-68.5 -307q0 -197 120.5 -318.5t317.5 -121.5z" />
    <glyph glyph-name="R" unicode="R" horiz-adv-x="1314" 
d="M1227 1083q0 -148 -83 -263.5t-224 -170.5l290 -649h-278l-266 608h-265l-96 -608h-239l225 1434h536q186 0 293 -95t107 -256zM500 1225l-66 -406h262q132 0 207.5 62.5t75.5 171.5q0 82 -56.5 127t-160.5 45h-262z" />
    <glyph glyph-name="S" unicode="S" horiz-adv-x="1210" 
d="M575 -16q-230 0 -377.5 124.5t-150.5 327.5l227 49q-6 -133 83 -212.5t231 -79.5q131 0 212 63.5t81 165.5q0 46 -23.5 82.5t-63 60.5t-91 44.5t-108 39.5t-113 40.5t-108 51.5t-91 68t-63 95.5t-23.5 129.5q0 118 69.5 213.5t187.5 149t259 53.5q219 0 358 -102
t146 -269l-230 -65q-4 104 -82.5 165.5t-204.5 61.5q-122 0 -190 -50.5t-68 -135.5q0 -41 23.5 -72t63.5 -51.5t92 -38t109.5 -35.5t114.5 -39t109 -53t92 -74t63.5 -105.5t23.5 -142.5q0 -200 -156.5 -330t-401.5 -130z" />
    <glyph glyph-name="T" unicode="T" horiz-adv-x="1191" 
d="M399 0l193 1225h-442l34 209h1123l-33 -209h-440l-195 -1225h-240z" />
    <glyph glyph-name="U" unicode="U" horiz-adv-x="1394" 
d="M629 -16q-162 0 -281 70.5t-172.5 197t-28.5 285.5l144 897h225l-143 -904q-25 -153 54.5 -244t234.5 -91q151 0 247 86.5t121 244.5l144 908h229l-146 -910q-41 -258 -205 -399t-423 -141z" />
    <glyph glyph-name="V" unicode="V" horiz-adv-x="1325" 
d="M467 0l-301 1434h244l219 -1151l585 1151h246l-758 -1434h-235z" />
    <glyph glyph-name="W" unicode="W" horiz-adv-x="2050" 
d="M381 0l-199 1434h248l121 -1151l489 1151h267l125 -1151l487 1151h248l-651 -1434h-254l-140 1094l-491 -1094h-250z" />
    <glyph glyph-name="X" unicode="X" horiz-adv-x="1265" 
d="M1323 1434l-518 -664l356 -770h-258l-260 561l-438 -561h-264l604 774l-305 660h258l209 -453l354 453h262z" />
    <glyph glyph-name="Y" unicode="Y" horiz-adv-x="1247" 
d="M422 0l94 596l-364 838h256l260 -615l456 615h262l-628 -838l-96 -596h-240z" />
    <glyph glyph-name="Z" unicode="Z" horiz-adv-x="1224" 
d="M-25 0l31 199l961 1026h-758l35 209h1050l-32 -199l-949 -1024h789l-33 -211h-1094z" />
    <glyph glyph-name="bracketleft" unicode="[" horiz-adv-x="638" 
d="M12 -313l305 1927h443l-29 -180h-242l-249 -1569h241l-26 -178h-443z" />
    <glyph glyph-name="backslash" unicode="\" horiz-adv-x="905" 
d="M811 -2h-229l-418 1436h231z" />
    <glyph glyph-name="bracketright" unicode="]" horiz-adv-x="638" 
d="M371 -313h-441l29 178h242l248 1569h-242l29 180h440z" />
    <glyph glyph-name="asciicircum" unicode="^" horiz-adv-x="1161" 
d="M133 854l506 580h180l324 -580h-228l-215 387l-340 -387h-227z" />
    <glyph glyph-name="underscore" unicode="_" horiz-adv-x="1024" 
d="M-61 -193l30 193h930l-31 -193h-929z" />
    <glyph glyph-name="a" unicode="a" horiz-adv-x="1118" 
d="M600 1049q205 0 320.5 -124.5t83.5 -320.5l-95 -604h-219l25 156q-54 -78 -148.5 -125t-201.5 -47q-139 0 -228.5 80t-89.5 198q0 320 526 369l222 18l2 19q13 93 -51.5 148.5t-172.5 55.5q-97 0 -164.5 -52.5t-82.5 -143.5l-199 37q33 151 167.5 243.5t305.5 92.5z
M434 156q129 0 213 77.5t115 219.5l-4 -23l10 55l-219 -22q-283 -27 -283 -178q0 -58 45 -93.5t123 -35.5z" />
    <glyph glyph-name="b" unicode="b" horiz-adv-x="1236" 
d="M631 -16q-115 0 -204 46t-126 124l-25 -154h-223l230 1450h223l-86 -547q56 67 146.5 106.5t191.5 39.5q195 0 305.5 -122.5t110.5 -316.5q0 -131 -38.5 -245.5t-107.5 -199t-171.5 -133t-225.5 -48.5zM612 178q146 0 240 112.5t94 287.5q0 126 -67 201t-183 75
q-156 0 -258 -112.5t-102 -286.5q0 -125 74.5 -201t201.5 -76z" />
    <glyph glyph-name="c" unicode="c" horiz-adv-x="1142" 
d="M545 -16q-205 0 -338 133.5t-133 335.5q0 263 165 429.5t427 166.5q186 0 310.5 -104.5t127.5 -262.5l-234 -41q0 90 -65.5 151.5t-163.5 61.5q-150 0 -241 -104.5t-91 -274.5q0 -129 71 -213t187 -84q98 0 167.5 50t92.5 137l222 -43q-41 -156 -176 -247t-328 -91z" />
    <glyph glyph-name="d" unicode="d" horiz-adv-x="1236" 
d="M489 -16q-200 0 -308.5 120t-108.5 318q0 176 70 318.5t201.5 225.5t299.5 83q107 0 185.5 -42.5t117.5 -111.5l86 555h223l-229 -1450h-223l22 131q-48 -65 -141 -106t-195 -41zM549 178q156 0 257 113t101 287q0 127 -69 201.5t-193 74.5q-148 0 -248 -113t-100 -286
q0 -126 67.5 -201.5t184.5 -75.5z" />
    <glyph glyph-name="e" unicode="e" horiz-adv-x="1159" 
d="M1081 467h-788v-6q0 -132 73.5 -209.5t196.5 -77.5q100 0 168 45t96 131l211 -53q-44 -141 -182 -227t-321 -86q-203 0 -333 131t-130 334q0 92 24 179.5t72 163.5t115.5 133.5t161.5 90.5t202 33q107 0 195 -35t145 -94t88 -135t31 -160q0 -74 -25 -158zM618 872
q-108 0 -186.5 -64t-114.5 -175h560q6 105 -65.5 172t-193.5 67z" />
    <glyph glyph-name="f" unicode="f" horiz-adv-x="768" 
d="M150 0l133 842h-170l28 190h172l13 88q27 171 136 267t261 96q74 0 145 -23l-43 -188q-50 20 -102 20q-66 0 -113 -46t-59 -122l-16 -92h253l-30 -190h-252l-135 -842h-221z" />
    <glyph glyph-name="g" unicode="g" horiz-adv-x="1218" 
d="M1171 1032l-129 -817l-24 -158q-32 -199 -190.5 -322.5t-381.5 -123.5q-182 0 -297 88t-116 229l215 35q-4 -76 60 -123t167 -47q124 0 212.5 67.5t105.5 174.5l20 123q-50 -58 -138 -93.5t-188 -35.5q-198 0 -305.5 115.5t-107.5 306.5q0 169 69.5 305t200 214.5
t299.5 78.5q96 0 174 -37.5t115 -98.5l18 119h221zM547 223q151 0 248.5 104.5t97.5 268.5q0 118 -65.5 188t-180.5 70q-151 0 -248.5 -103.5t-97.5 -267.5q0 -119 65.5 -189.5t180.5 -70.5z" />
    <glyph glyph-name="h" unicode="h" horiz-adv-x="1210" 
d="M53 0l230 1450h223l-94 -596q68 96 163 145.5t205 49.5q175 0 264.5 -101t63.5 -270l-109 -678h-223l101 627q17 103 -34 162t-155 59q-131 0 -221 -106.5t-119 -295.5l-72 -446h-223z" />
    <glyph glyph-name="i" unicode="i" horiz-adv-x="487" 
d="M381 1204q-62 0 -103.5 41.5t-41.5 102.5q0 62 41 103.5t104 41.5t105 -41.5t42 -103.5q0 -60 -42 -102t-105 -42zM53 0l164 1032h223l-164 -1032h-223z" />
    <glyph glyph-name="j" unicode="j" horiz-adv-x="491" 
d="M389 1204q-62 0 -103.5 41.5t-41.5 102.5q0 62 41 103.5t104 41.5t105.5 -41.5t42.5 -103.5q0 -60 -42.5 -102t-105.5 -42zM-125 -389l-55 2l26 197q27 -3 35 -3q76 0 122 49.5t60 139.5l164 1036h224l-170 -1065q-25 -160 -136.5 -258t-269.5 -98z" />
    <glyph glyph-name="k" unicode="k" horiz-adv-x="1124" 
d="M1157 1032l-493 -407l362 -625h-266l-273 479l-153 -125l-55 -354h-226l230 1450h225l-127 -803l475 385h301z" />
    <glyph glyph-name="l" unicode="l" horiz-adv-x="487" 
d="M53 0l230 1450h223l-230 -1450h-223z" />
    <glyph glyph-name="m" unicode="m" horiz-adv-x="1820" 
d="M53 0l164 1032h223l-28 -174q125 191 333 191q125 0 201.5 -53t93.5 -152q59 90 157.5 147.5t213.5 57.5q166 0 250.5 -97.5t58.5 -255.5l-108 -696h-223l100 641q17 98 -28 156.5t-142 58.5q-114 0 -191.5 -91t-101.5 -243l-84 -522h-221l100 641q17 98 -27 156.5
t-141 58.5q-113 0 -191 -91.5t-102 -242.5l-84 -522h-223z" />
    <glyph glyph-name="n" unicode="n" horiz-adv-x="1198" 
d="M53 0l164 1032h223l-26 -172q67 87 162.5 138t205.5 51q166 0 254 -101.5t60 -267.5l-107 -680h-223l100 629q15 98 -33 158.5t-145 60.5q-129 0 -219 -104.5t-121 -290.5l-72 -453h-223z" />
    <glyph glyph-name="o" unicode="o" horiz-adv-x="1202" 
d="M547 -16q-207 0 -341 128.5t-134 325.5q0 173 76.5 312.5t212.5 219t305 79.5q206 0 340.5 -128.5t134.5 -326.5q0 -172 -77 -311.5t-213 -219t-304 -79.5zM569 178q152 0 248 110.5t96 282.5q0 124 -75.5 203.5t-194.5 79.5q-153 0 -248.5 -110t-95.5 -283
q0 -124 75.5 -203.5t194.5 -79.5z" />
    <glyph glyph-name="p" unicode="p" horiz-adv-x="1234" 
d="M-6 -373l223 1405h223l-20 -131q54 65 147 106.5t197 41.5q195 0 302.5 -121t107.5 -318q0 -176 -71 -318.5t-201 -225t-296 -82.5q-108 0 -188.5 40.5t-118.5 114.5l-82 -512h-223zM610 178q148 0 243 111.5t95 285.5q0 126 -67.5 202.5t-184.5 76.5q-156 0 -257 -111.5
t-101 -285.5q0 -126 73.5 -202.5t198.5 -76.5z" />
    <glyph glyph-name="q" unicode="q" horiz-adv-x="1236" 
d="M967 -373h-224l78 492q-57 -62 -146 -98.5t-181 -36.5q-200 0 -312 121.5t-112 320.5q0 174 70.5 315.5t203 224.5t303.5 83q104 0 185 -41.5t114 -106.5l21 131h223zM547 178q156 0 257 113t101 287q0 126 -67 201t-183 75q-156 0 -258 -112.5t-102 -286.5
q0 -126 67.5 -201.5t184.5 -75.5z" />
    <glyph glyph-name="r" unicode="r" horiz-adv-x="811" 
d="M823 815q-55 25 -127 25q-55 0 -109 -27t-104 -80t-88.5 -143t-56.5 -205l-62 -385h-223l164 1032h223l-32 -205q50 93 149.5 157.5t198.5 64.5q68 0 114 -19z" />
    <glyph glyph-name="s" unicode="s" horiz-adv-x="952" 
d="M430 -16q-91 0 -166.5 26.5t-125 72.5t-79.5 103.5t-39 122.5l189 51q8 -92 72 -145t172 -53q86 0 137 40.5t51 106.5q0 39 -28 67t-72.5 45t-98.5 33t-108 37t-98.5 50t-72.5 80t-28 120q0 134 110 221t287 87q149 0 256.5 -74.5t122.5 -200.5l-196 -57
q-7 77 -66.5 118.5t-136.5 41.5q-74 0 -120 -31t-46 -82q0 -31 22 -53.5t58 -36t81.5 -28.5t93.5 -28.5t93.5 -37.5t81.5 -53.5t58 -79.5t22 -113q0 -153 -119 -251.5t-307 -98.5z" />
    <glyph glyph-name="t" unicode="t" horiz-adv-x="774" 
d="M639 8q-77 -24 -166 -24q-154 0 -233.5 86t-51.5 256l80 516h-180l31 190h180l49 307h223l-49 -307h266l-30 -190h-266l-80 -504q-12 -75 20 -115.5t96 -40.5q70 0 127 25z" />
    <glyph glyph-name="u" unicode="u" horiz-adv-x="1198" 
d="M1153 1032l-164 -1032h-223l27 172q-67 -86 -163 -137t-206 -51q-166 0 -253.5 101t-59.5 267l106 680h223l-100 -629q-15 -98 33 -158.5t145 -60.5q129 0 220 105t120 291l72 452h223z" />
    <glyph glyph-name="v" unicode="v" horiz-adv-x="1009" 
d="M319 0l-213 1032h226l135 -772l379 772h229l-540 -1032h-216z" />
    <glyph glyph-name="w" unicode="w" horiz-adv-x="1593" 
d="M291 0l-156 1032h225l84 -721l334 721h209l107 -721l309 721h227l-483 -1032h-205l-108 719l-340 -719h-203z" />
    <glyph glyph-name="x" unicode="x" horiz-adv-x="1024" 
d="M1059 1032l-422 -510l268 -522h-246l-174 338l-278 -338h-252l436 524l-260 508h244l166 -325l270 325h248z" />
    <glyph glyph-name="y" unicode="y" horiz-adv-x="1040" 
d="M874 1032h228l-766 -1405h-219l225 418l-240 987h230l157 -715z" />
    <glyph glyph-name="z" unicode="z" horiz-adv-x="1009" 
d="M-12 0l26 170l682 672h-540l30 190h834l-29 -170l-678 -672h582l-31 -190h-876z" />
    <glyph glyph-name="braceleft" unicode="{" horiz-adv-x="677" 
d="M391 -299q-109 0 -166.5 72t-40.5 186l68 428q17 95 -19.5 136.5t-128.5 43.5l31 191q92 2 141 43t64 135l68 430q19 114 98 185t188 71h117l-29 -184h-49q-116 0 -131 -117l-70 -436q-16 -94 -64.5 -143.5t-127.5 -77.5q73 -32 105 -81t16 -145l-68 -436
q-18 -115 94 -115h50l-29 -186h-117z" />
    <glyph glyph-name="bar" unicode="|" horiz-adv-x="524" 
d="M47 -102l260 1638h240l-260 -1638h-240z" />
    <glyph glyph-name="braceright" unicode="}" horiz-adv-x="677" 
d="M35 -299h-117l31 186h49q113 0 131 115l70 436q16 96 63.5 145t128.5 81q-71 28 -104 77.5t-19 143.5l70 436q18 117 -94 117h-49l28 184h117q109 0 166.5 -71t40.5 -185l-68 -430q-17 -93 20 -134.5t128 -43.5l-31 -191q-92 -2 -141 -43.5t-64 -136.5l-67 -428
q-19 -114 -99.5 -186t-189.5 -72z" />
    <glyph glyph-name="asciitilde" unicode="~" horiz-adv-x="1189" 
d="M793 504q-112 0 -209 71q-6 5 -21.5 17t-21.5 16.5t-19.5 14t-22 13t-21 8.5t-25.5 7t-27 2q-52 0 -92.5 -36t-61.5 -107l-180 29q31 141 131 226t234 85q108 0 207 -72q10 -7 31 -23t31 -22.5t27 -16t33.5 -13t36.5 -3.5q51 0 91 37t63 107l180 -29
q-31 -141 -130.5 -226t-233.5 -85z" />
    <glyph glyph-name="uni00A0" unicode="&#xa0;" horiz-adv-x="491" 
 />
    <glyph glyph-name="exclamdown" unicode="&#xa1;" horiz-adv-x="579" 
d="M375 1032q55 0 89 -34.5t34 -88.5q0 -67 -49.5 -115.5t-118.5 -48.5q-56 0 -90.5 35t-34.5 88q0 68 50 116t120 48zM217 578h172l-102 -996h-281z" />
    <glyph glyph-name="cent" unicode="&#xa2;" horiz-adv-x="1142" 
d="M567 178q98 0 167.5 50t92.5 137l222 -43q-37 -140 -151 -228.5t-280 -105.5l-34 -215l-203 2l35 225q-154 38 -248 162t-94 291q0 241 140 402t370 189l32 216h203l-37 -224q142 -31 230.5 -127t91.5 -227l-234 -41q0 90 -65.5 151.5t-163.5 61.5q-150 0 -241 -104.5
t-91 -274.5q0 -129 71 -213t187 -84z" />
    <glyph glyph-name="sterling" unicode="&#xa3;" horiz-adv-x="1206" 
d="M745 211q112 0 209 143l179 -108q-82 -123 -173.5 -184.5t-203.5 -61.5h-697l33 199q117 104 174.5 198t57.5 201q0 19 -2 27h-230l31 192h158q-23 98 -23 156q0 211 148 344t378 133q177 0 285.5 -89t114.5 -237l-232 -65q-18 182 -200 182q-111 0 -183.5 -72.5
t-72.5 -199.5q0 -61 26 -152h439l-31 -192h-363v-21q0 -101 -65 -215t-150 -178h393z" />
    <glyph glyph-name="currency" unicode="&#xa4;" horiz-adv-x="1345" 
d="M1167 815q50 -102 50 -221q0 -221 -138 -385l121 -148l-168 -143l-123 148q-148 -82 -317 -82t-287 88l-176 -154l-123 143l178 154q-49 98 -49 221q0 221 137 387l-122 148l167 143l125 -147q148 82 318 82q165 0 287 -88l178 153l118 -143zM623 178q156 0 260 112.5
t104 282.5q0 126 -69 203.5t-189 77.5q-157 0 -260.5 -112.5t-103.5 -282.5q0 -126 69 -203.5t189 -77.5z" />
    <glyph glyph-name="yen" unicode="&#xa5;" horiz-adv-x="1247" 
d="M1391 1434l-506 -672h278l-26 -168h-377l-29 -174h377l-27 -168h-376l-39 -252h-242l41 252h-375l29 168h373l28 174h-375l27 168h277l-293 672h262l258 -611l452 611h263z" />
    <glyph glyph-name="brokenbar" unicode="&#xa6;" horiz-adv-x="524" 
d="M195 821l112 715h240l-113 -715h-239zM47 -102l113 714h239l-112 -714h-240z" />
    <glyph glyph-name="section" unicode="&#xa7;" horiz-adv-x="1204" 
d="M729 1262q-118 0 -194 -53.5t-76 -137.5q0 -46 28 -80.5t73.5 -54.5t104 -39.5t120 -35t120 -42.5t104 -60.5t73.5 -90t28 -129.5q0 -180 -164 -285q86 -80 86 -207q0 -193 -158.5 -314.5t-398.5 -121.5q-197 0 -323 116t-129 296l202 59q0 -125 77.5 -202t201.5 -77
q137 0 223 58.5t86 152.5q0 50 -35.5 86.5t-92 58.5t-125 41.5t-137.5 45.5t-125.5 61t-92 95.5t-35.5 142.5q0 171 174 278q-96 79 -96 213q0 179 148.5 296.5t363.5 117.5q184 0 302.5 -93t115.5 -253l-201 -49q-2 94 -68.5 150.5t-179.5 56.5zM891 504q0 35 -18 63
t-45 46.5t-70.5 36.5t-82.5 29t-93.5 28.5t-92.5 31.5q-108 -62 -108 -159q0 -43 23.5 -75t69.5 -54t91.5 -37t114 -35t111.5 -37q100 65 100 162z" />
    <glyph glyph-name="copyright" unicode="&#xa9;" horiz-adv-x="1622" 
d="M852 -16q-156 0 -292 55.5t-233 152.5t-152.5 233t-55.5 292t55.5 292t152.5 233t233 152.5t292 55.5t292.5 -55.5t233.5 -152.5t153 -233t56 -292t-56 -292t-153 -233t-233.5 -152.5t-292.5 -55.5zM852 111q170 0 307.5 79t215 217.5t77.5 309.5t-77.5 309.5t-215 217.5
t-307.5 79t-307.5 -79t-215 -217.5t-77.5 -309.5t77.5 -309.5t215 -217.5t307.5 -79zM821 322q-175 0 -283 110t-108 291q0 180 108.5 291.5t282.5 111.5q140 0 234.5 -73.5t113.5 -196.5l-147 -33q-14 80 -66.5 124t-134.5 44q-110 0 -174.5 -72t-64.5 -196t64.5 -196
t174.5 -72q80 0 132 41t65 116l151 -30q-29 -122 -121 -191t-227 -69z" />
    <glyph glyph-name="ordfeminine" unicode="&#xaa;" horiz-adv-x="688" 
d="M481 1450q127 0 193.5 -68t48.5 -190l-66 -406h-143l14 99q-34 -50 -93.5 -79.5t-125.5 -29.5q-85 0 -136.5 47.5t-51.5 120.5q0 208 334 242l123 12l2 8q9 61 -23 95t-94 34q-58 0 -101.5 -32.5t-58.5 -90.5l-127 23q29 97 114 156t191 59zM360 889q75 0 128.5 47
t68.5 123l4 31l-127 -13q-82 -9 -126 -39t-44 -75q0 -33 26 -53.5t70 -20.5z" />
    <glyph glyph-name="guillemotleft" unicode="&#xab;" horiz-adv-x="1206" 
d="M559 125l-485 430l22 137l623 430l-37 -229l-395 -270l309 -271zM1073 125l-485 430l22 137l623 430l-37 -229l-395 -270l309 -271z" />
    <glyph glyph-name="logicalnot" unicode="&#xac;" horiz-adv-x="1204" 
d="M836 283l55 352h-772l31 192h995l-86 -544h-223z" />
    <glyph glyph-name="uni00AD" unicode="&#xad;" horiz-adv-x="751" 
d="M57 496l31 192h637l-31 -192h-637z" />
    <glyph glyph-name="registered" unicode="&#xae;" horiz-adv-x="1622" 
d="M852 -16q-156 0 -292 55.5t-233 152.5t-152.5 233t-55.5 292t55.5 292t152.5 233t233 152.5t292 55.5t292.5 -55.5t233.5 -152.5t153 -233t56 -292t-56 -292t-153 -233t-233.5 -152.5t-292.5 -55.5zM852 111q170 0 307.5 79t215 217.5t77.5 309.5t-77.5 309.5t-215 217.5
t-307.5 79t-307.5 -79t-215 -217.5t-77.5 -309.5t77.5 -309.5t215 -217.5t307.5 -79zM1167 350h-161l-197 326h-133v-326h-137l-2 776h292q114 0 182 -61.5t68 -163.5q0 -68 -34 -120.5t-95 -78.5zM676 1004v-205h137q61 0 94 27t33 75t-33 75.5t-94 27.5h-137z" />
    <glyph glyph-name="degree" unicode="&#xb0;" horiz-adv-x="712" 
d="M422 911q-105 0 -171.5 68t-66.5 170q0 127 97.5 218t226.5 91q105 1 173.5 -66.5t68.5 -170.5q0 -127 -98.5 -219.5t-229.5 -90.5zM444 1057q61 0 104.5 42.5t43.5 104.5q0 47 -30 78t-79 31q-59 0 -102 -43t-43 -105q0 -47 29.5 -77.5t76.5 -30.5z" />
    <glyph glyph-name="plusminus" unicode="&#xb1;" horiz-adv-x="1136" 
d="M1135 901l-31 -194h-406l-63 -404h-193l66 406h-408l31 192h406l63 404h193l-64 -404h406zM981 0h-979l29 193h979z" />
    <glyph glyph-name="uni00B2" unicode="&#xb2;" horiz-adv-x="688" 
d="M104 768l21 133l283 209q93 67 136.5 118.5t43.5 100.5q0 41 -27.5 65.5t-73.5 24.5q-62 0 -101.5 -44.5t-43.5 -119.5l-160 13q9 125 105 211t223 86q114 0 181 -59.5t67 -157.5q0 -87 -57.5 -164.5t-190.5 -167.5l-150 -103h330l-22 -145h-564z" />
    <glyph glyph-name="uni00B3" unicode="&#xb3;" horiz-adv-x="698" 
d="M387 760q-122 0 -194 64t-68 169l158 25q1 -51 37 -82t92 -31q68 0 111.5 39t43.5 100q0 46 -30 74.5t-82 28.5q-51 0 -95 -27l-49 111l232 182h-328l23 143h526l-23 -143l-217 -162q99 3 155 -48t56 -144q0 -133 -97.5 -216t-250.5 -83z" />
    <glyph glyph-name="uni00B5" unicode="&#xb5;" horiz-adv-x="1179" 
d="M920 1032h223l-164 -1032h-223l26 172q-54 -85 -141.5 -136.5t-189.5 -51.5q-103 0 -175 75l-71 -448h-223l172 1081v4l53 336h223l-102 -649q-8 -91 40 -145t140 -54q129 0 220 105t120 291z" />
    <glyph glyph-name="paragraph" unicode="&#xb6;" horiz-adv-x="1447" 
d="M387 -373l154 969q-164 0 -271.5 106t-107.5 261q0 94 42.5 181.5t112.5 150.5t164 101t193 38h829l-33 -199h-135l-256 -1608h-205l256 1608h-284l-254 -1608h-205z" />
    <glyph glyph-name="periodcentered" unicode="&#xb7;" horiz-adv-x="559" 
d="M317 594q-61 0 -102 41t-41 102q0 62 41 103t102 41q63 0 104.5 -41t41.5 -103t-41.5 -102.5t-104.5 -40.5z" />
    <glyph glyph-name="uni00B9" unicode="&#xb9;" horiz-adv-x="454" 
d="M264 768l98 612q-107 -63 -182 -77l25 149q92 22 213 104h127l-125 -788h-156z" />
    <glyph glyph-name="ordmasculine" unicode="&#xba;" horiz-adv-x="770" 
d="M432 776q-130 0 -210.5 81.5t-80.5 211.5q0 163 114 272t280 109q130 0 211 -80.5t81 -208.5q0 -164 -114.5 -274.5t-280.5 -110.5zM453 905q96 0 159.5 68.5t63.5 173.5q0 77 -44.5 126.5t-117.5 49.5q-97 0 -160 -69t-63 -173q0 -77 44.5 -126.5t117.5 -49.5z" />
    <glyph glyph-name="guillemotright" unicode="&#xbb;" horiz-adv-x="1247" 
d="M16 123l37 229l396 271l-310 270l37 227l486 -430l-21 -137zM569 123l37 229l393 271l-307 270l35 227l487 -430l-22 -137z" />
    <glyph glyph-name="onequarter" unicode="&#xbc;" horiz-adv-x="1576" 
d="M109 0l1185 1434h187l-1186 -1434h-186zM246 645l96 612q-102 -62 -182 -77l24 149q93 22 215 105h127l-125 -789h-155zM1186 0l24 156h-397l25 145l462 487h181l-78 -487h98l-22 -145h-101l-22 -156h-170zM1010 301h223l47 285z" />
    <glyph glyph-name="onehalf" unicode="&#xbd;" horiz-adv-x="1632" 
d="M90 0l1186 1434h186l-1186 -1434h-186zM246 645l96 612q-102 -62 -182 -77l24 149q93 22 215 105h127l-125 -789h-155zM928 0l20 133l283 209q92 67 135 118t43 101q0 41 -26 65.5t-72 24.5q-63 0 -102 -44.5t-44 -119.5l-159 13q9 125 104.5 211t222.5 86
q114 0 181 -59.5t67 -157.5q0 -86 -58.5 -163.5t-191.5 -168.5l-147 -103h329l-22 -145h-563z" />
    <glyph glyph-name="threequarters" unicode="&#xbe;" horiz-adv-x="1712" 
d="M367 637q-122 0 -194.5 64t-66.5 169l156 25q3 -51 38.5 -82t90.5 -31q68 0 112 39.5t44 100.5q0 46 -30.5 74t-82.5 28q-50 0 -94 -27l-49 111l233 182h-329l24 144h526l-22 -144l-219 -162q99 3 156 -48t57 -144q0 -133 -98 -216t-252 -83zM227 0l1186 1434h189
l-1186 -1434h-189zM1319 0l24 156h-395l23 145l463 487h180l-78 -487h100l-24 -145h-99l-24 -156h-170zM1145 301h223l45 285z" />
    <glyph glyph-name="questiondown" unicode="&#xbf;" horiz-adv-x="929" 
d="M578 1032q55 0 89.5 -34.5t34.5 -88.5q0 -67 -50.5 -115.5t-119.5 -48.5q-55 0 -89.5 35t-34.5 88q0 68 50 116t120 48zM627 592q-8 -81 -40 -145t-75.5 -105.5t-94.5 -76.5t-100 -66t-89.5 -65t-65.5 -82.5t-25 -110.5q0 -79 53 -129t142 -50q118 0 198 72t93 191
l213 -25q-31 -195 -178 -314.5t-359 -119.5q-184 0 -291.5 94.5t-107.5 251.5q0 91 26 161.5t68 115t93.5 80.5t104.5 67t98 63.5t77.5 81.5t40.5 111h219z" />
    <glyph glyph-name="Agrave" unicode="&#xc0;" horiz-adv-x="1372" 
d="M938 1548h-160l-196 303h266zM1028 0l-74 338h-585l-183 -338h-247l784 1434h223l332 -1434h-250zM479 545h432l-125 573z" />
    <glyph glyph-name="Aacute" unicode="&#xc1;" horiz-adv-x="1372" 
d="M1196 1851l-291 -303h-157l182 303h266zM1028 0l-74 338h-585l-183 -338h-247l784 1434h223l332 -1434h-250zM479 545h432l-125 573z" />
    <glyph glyph-name="Acircumflex" unicode="&#xc2;" horiz-adv-x="1372" 
d="M881 1718l-185 -170h-172l283 303h186l189 -303h-168zM1028 0l-74 338h-585l-183 -338h-247l784 1434h223l332 -1434h-250zM479 545h432l-125 573z" />
    <glyph glyph-name="Atilde" unicode="&#xc3;" horiz-adv-x="1372" 
d="M735 1686q-75 0 -102 -105l-152 25q20 107 98.5 174t182.5 67q80 0 156 -55q5 -3 16.5 -11.5t16 -11.5l13.5 -9t15 -8.5t14.5 -5.5t17 -4t17.5 -1q75 0 102 102l152 -24q-22 -109 -98.5 -175.5t-179.5 -66.5q-81 0 -158 53q-5 4 -19 14.5t-18.5 14t-16 10.5t-18.5 9.5
t-17.5 5t-21.5 2.5zM723 1434h223l332 -1434h-250l-74 338h-585l-183 -338h-247zM479 545h432l-125 573z" />
    <glyph glyph-name="Adieresis" unicode="&#xc4;" horiz-adv-x="1372" 
d="M692 1593q-57 0 -95 39.5t-38 96.5t38 95t95 38q60 0 99.5 -38t39.5 -95t-39.5 -96.5t-99.5 -39.5zM1075 1593q-58 0 -96.5 39.5t-38.5 96.5t38.5 95t96.5 38q59 0 98 -38t39 -95t-39.5 -96.5t-97.5 -39.5zM1028 0l-74 338h-585l-183 -338h-247l784 1434h223l332 -1434
h-250zM479 545h432l-125 573z" />
    <glyph glyph-name="Aring" unicode="&#xc5;" horiz-adv-x="1372" 
d="M836 1511q-100 0 -166 62t-66 156t66 156.5t166 62.5q101 0 167 -62.5t66 -156.5t-66 -156t-167 -62zM836 1829q-43 0 -73 -28t-30 -72q0 -42 30 -70.5t73 -28.5q46 0 75 28t29 71q0 44 -29 72t-75 28zM1028 0l-74 338h-585l-183 -338h-247l784 1434h223l332 -1434h-250z
M479 545h432l-125 573z" />
    <glyph glyph-name="AE" unicode="&#xc6;" horiz-adv-x="1986" 
d="M2001 1225h-694l-58 -361h559l-32 -209h-559l-70 -444h717l-33 -211h-959l56 352h-484l-245 -352h-265l1020 1434h1082zM592 563h371l108 684z" />
    <glyph glyph-name="Ccedilla" unicode="&#xc7;" horiz-adv-x="1482" 
d="M754 195q148 0 254.5 76.5t152.5 211.5l236 -51q-72 -202 -239 -319.5t-396 -128.5l-174 -285h-266l280 295q-106 17 -196 65t-158.5 123.5t-107 184t-38.5 237.5q0 165 45.5 304.5t124 238t183.5 168t223.5 102.5t243.5 33q250 0 404.5 -127t158.5 -340l-244 -51
q-7 144 -104 226.5t-250 82.5q-113 0 -211 -40.5t-171 -116.5t-115 -193t-42 -262q0 -201 114 -317.5t292 -116.5z" />
    <glyph glyph-name="Egrave" unicode="&#xc8;" horiz-adv-x="1177" 
d="M877 1548h-160l-197 303h266zM63 0l228 1434h934l-33 -209h-694l-58 -361h559l-32 -209h-561l-70 -444h719l-35 -211h-957z" />
    <glyph glyph-name="Eacute" unicode="&#xc9;" horiz-adv-x="1177" 
d="M686 1548l182 303h267l-291 -303h-158zM63 0l228 1434h934l-33 -209h-694l-58 -361h559l-32 -209h-561l-70 -444h719l-35 -211h-957z" />
    <glyph glyph-name="Ecircumflex" unicode="&#xca;" horiz-adv-x="1177" 
d="M745 1851h187l188 -303h-168l-133 170l-184 -170h-172zM63 0l228 1434h934l-33 -209h-694l-58 -361h559l-32 -209h-561l-70 -444h719l-35 -211h-957z" />
    <glyph glyph-name="Edieresis" unicode="&#xcb;" horiz-adv-x="1177" 
d="M631 1593q-57 0 -95 39.5t-38 96.5t38 95t95 38q60 0 99.5 -38t39.5 -95t-39.5 -96.5t-99.5 -39.5zM1014 1593q-58 0 -96.5 39.5t-38.5 96.5t38.5 95t96.5 38q59 0 98 -38t39 -95t-39.5 -96.5t-97.5 -39.5zM63 0l228 1434h934l-33 -209h-694l-58 -361h559l-32 -209h-561
l-70 -444h719l-35 -211h-957z" />
    <glyph glyph-name="Igrave" unicode="&#xcc;" horiz-adv-x="522" 
d="M512 1548h-160l-196 303h266zM63 0l228 1434h239l-227 -1434h-240z" />
    <glyph glyph-name="Iacute" unicode="&#xcd;" horiz-adv-x="522" 
d="M322 1548l182 303h266l-291 -303h-157zM63 0l228 1434h239l-227 -1434h-240z" />
    <glyph glyph-name="Icircumflex" unicode="&#xce;" horiz-adv-x="522" 
d="M381 1851h186l189 -303h-168l-133 170l-185 -170h-172zM63 0l228 1434h239l-227 -1434h-240z" />
    <glyph glyph-name="Idieresis" unicode="&#xcf;" horiz-adv-x="522" 
d="M266 1593q-57 0 -95 39.5t-38 96.5t38 95t95 38q60 0 100 -38t40 -95t-40 -96.5t-100 -39.5zM649 1593q-58 0 -96.5 39.5t-38.5 96.5t38.5 95t96.5 38q59 0 98 -38t39 -95t-39.5 -96.5t-97.5 -39.5zM63 0l228 1434h239l-227 -1434h-240z" />
    <glyph glyph-name="Eth" unicode="&#xd0;" horiz-adv-x="1396" 
d="M741 1434q134 0 247.5 -39t198.5 -113t133 -189t48 -259q0 -197 -70.5 -357.5t-189.5 -263t-272 -158t-322 -55.5h-451l101 637h-127l24 160h129l101 637h450zM530 211q90 0 174 20.5t160.5 67t132.5 114.5t89.5 170t33.5 226q0 87 -22.5 157t-62 118t-94.5 80
t-117.5 46.5t-133.5 14.5h-196l-68 -428h276l-24 -160h-277l-67 -426h196z" />
    <glyph glyph-name="Ntilde" unicode="&#xd1;" horiz-adv-x="1421" 
d="M659 1581l-151 25q20 107 98 174t182 67q80 0 156 -55q3 -2 16 -11.5t16.5 -11.5t14 -9t15.5 -8.5t14 -5t17.5 -4.5t17.5 -1q75 0 102 102l152 -24q-22 -109 -99 -175.5t-180 -66.5q-81 0 -158 53q-6 5 -19 15t-18.5 14t-16 10.5t-17.5 9t-17.5 5t-21.5 2.5
q-36 0 -63 -26.5t-40 -78.5zM63 0l228 1434h237l506 -1055l166 1055h230l-228 -1434h-239l-504 1053l-168 -1053h-228z" />
    <glyph glyph-name="Ograve" unicode="&#xd2;" horiz-adv-x="1595" 
d="M1047 1548h-160l-197 303h266zM754 -16q-188 0 -337 80.5t-232 223.5t-83 322q0 181 60.5 337t166.5 266.5t255.5 173.5t322.5 63q139 0 260 -47.5t206 -130.5t134 -199.5t49 -249.5q0 -243 -103 -434.5t-286 -298t-413 -106.5zM786 195q146 0 267 79.5t190.5 218.5
t69.5 306q0 197 -122.5 319.5t-318.5 122.5q-146 0 -266.5 -80t-189 -219t-68.5 -307q0 -197 120.5 -318.5t317.5 -121.5z" />
    <glyph glyph-name="Oacute" unicode="&#xd3;" horiz-adv-x="1595" 
d="M856 1548l182 303h267l-291 -303h-158zM754 -16q-188 0 -337 80.5t-232 223.5t-83 322q0 181 60.5 337t166.5 266.5t255.5 173.5t322.5 63q139 0 260 -47.5t206 -130.5t134 -199.5t49 -249.5q0 -243 -103 -434.5t-286 -298t-413 -106.5zM786 195q146 0 267 79.5
t190.5 218.5t69.5 306q0 197 -122.5 319.5t-318.5 122.5q-146 0 -266.5 -80t-189 -219t-68.5 -307q0 -197 120.5 -318.5t317.5 -121.5z" />
    <glyph glyph-name="Ocircumflex" unicode="&#xd4;" horiz-adv-x="1595" 
d="M915 1851h187l188 -303h-168l-133 170l-184 -170h-172zM754 -16q-188 0 -337 80.5t-232 223.5t-83 322q0 181 60.5 337t166.5 266.5t255.5 173.5t322.5 63q139 0 260 -47.5t206 -130.5t134 -199.5t49 -249.5q0 -243 -103 -434.5t-286 -298t-413 -106.5zM786 195
q146 0 267 79.5t190.5 218.5t69.5 306q0 197 -122.5 319.5t-318.5 122.5q-146 0 -266.5 -80t-189 -219t-68.5 -307q0 -197 120.5 -318.5t317.5 -121.5z" />
    <glyph glyph-name="Otilde" unicode="&#xd5;" horiz-adv-x="1595" 
d="M743 1581l-151 25q20 107 98 174t182 67q80 0 156 -55q3 -2 16 -11.5t16.5 -11.5t14 -9t15.5 -8.5t14 -5t17.5 -4.5t17.5 -1q75 0 102 102l152 -24q-22 -109 -99 -175.5t-180 -66.5q-81 0 -158 53q-6 5 -19 15t-18.5 14t-16 10.5t-17.5 9t-17.5 5t-21.5 2.5
q-36 0 -63 -26.5t-40 -78.5zM754 -16q-188 0 -337 80.5t-232 223.5t-83 322q0 181 60.5 337t166.5 266.5t255.5 173.5t322.5 63q139 0 260 -47.5t206 -130.5t134 -199.5t49 -249.5q0 -243 -103 -434.5t-286 -298t-413 -106.5zM786 195q146 0 267 79.5t190.5 218.5t69.5 306
q0 197 -122.5 319.5t-318.5 122.5q-146 0 -266.5 -80t-189 -219t-68.5 -307q0 -197 120.5 -318.5t317.5 -121.5z" />
    <glyph glyph-name="Odieresis" unicode="&#xd6;" horiz-adv-x="1595" 
d="M801 1593q-57 0 -95 39.5t-38 96.5t38 95t95 38q60 0 99.5 -38t39.5 -95t-39.5 -96.5t-99.5 -39.5zM1184 1593q-58 0 -96.5 39.5t-38.5 96.5t38.5 95t96.5 38q59 0 98 -38t39 -95t-39.5 -96.5t-97.5 -39.5zM754 -16q-188 0 -337 80.5t-232 223.5t-83 322q0 181 60.5 337
t166.5 266.5t255.5 173.5t322.5 63q139 0 260 -47.5t206 -130.5t134 -199.5t49 -249.5q0 -243 -103 -434.5t-286 -298t-413 -106.5zM786 195q146 0 267 79.5t190.5 218.5t69.5 306q0 197 -122.5 319.5t-318.5 122.5q-146 0 -266.5 -80t-189 -219t-68.5 -307
q0 -197 120.5 -318.5t317.5 -121.5z" />
    <glyph glyph-name="multiply" unicode="&#xd7;" horiz-adv-x="1138" 
d="M1130 1004l-380 -330l278 -328l-176 -151l-277 327l-382 -329l-127 153l380 330l-276 328l174 149l277 -328l380 330z" />
    <glyph glyph-name="Oslash" unicode="&#xd8;" horiz-adv-x="1595" 
d="M1602 1343l-158 -155q112 -156 112 -365q0 -243 -103 -434.5t-286 -298t-413 -106.5q-236 0 -402 122l-162 -159l-133 143l156 156q-111 159 -111 364q0 181 60.5 337t166.5 266.5t255.5 173.5t322.5 63q228 0 400 -123l159 160zM348 635q0 -116 45 -211l746 737
q-113 80 -267 80q-146 0 -266.5 -80t-189 -219t-68.5 -307zM1313 799q0 121 -47 213l-746 -740q113 -77 266 -77q146 0 267 79.5t190.5 218.5t69.5 306z" />
    <glyph glyph-name="Ugrave" unicode="&#xd9;" horiz-adv-x="1394" 
d="M948 1548h-160l-196 303h266zM629 -16q-162 0 -281 70.5t-172.5 197t-28.5 285.5l144 897h225l-143 -904q-25 -153 54.5 -244t234.5 -91q151 0 247 86.5t121 244.5l144 908h229l-146 -910q-41 -258 -205 -399t-423 -141z" />
    <glyph glyph-name="Uacute" unicode="&#xda;" horiz-adv-x="1394" 
d="M758 1548l182 303h266l-291 -303h-157zM629 -16q-162 0 -281 70.5t-172.5 197t-28.5 285.5l144 897h225l-143 -904q-25 -153 54.5 -244t234.5 -91q151 0 247 86.5t121 244.5l144 908h229l-146 -910q-41 -258 -205 -399t-423 -141z" />
    <glyph glyph-name="Ucircumflex" unicode="&#xdb;" horiz-adv-x="1394" 
d="M817 1851h187l188 -303h-168l-133 170l-184 -170h-172zM629 -16q-162 0 -281 70.5t-172.5 197t-28.5 285.5l144 897h225l-143 -904q-25 -153 54.5 -244t234.5 -91q151 0 247 86.5t121 244.5l144 908h229l-146 -910q-41 -258 -205 -399t-423 -141z" />
    <glyph glyph-name="Udieresis" unicode="&#xdc;" horiz-adv-x="1394" 
d="M702 1593q-57 0 -95 39.5t-38 96.5t38 95t95 38q60 0 100 -38t40 -95t-40 -96.5t-100 -39.5zM1085 1593q-58 0 -96.5 39.5t-38.5 96.5t38.5 95t96.5 38q59 0 98.5 -38t39.5 -95t-40 -96.5t-98 -39.5zM629 -16q-162 0 -281 70.5t-172.5 197t-28.5 285.5l144 897h225
l-143 -904q-25 -153 54.5 -244t234.5 -91q151 0 247 86.5t121 244.5l144 908h229l-146 -910q-41 -258 -205 -399t-423 -141z" />
    <glyph glyph-name="Yacute" unicode="&#xdd;" horiz-adv-x="1247" 
d="M680 1548l182 303h266l-290 -303h-158zM422 0l94 596l-364 838h256l260 -615l456 615h262l-628 -838l-96 -596h-240z" />
    <glyph glyph-name="Thorn" unicode="&#xde;" horiz-adv-x="1220" 
d="M63 0l228 1434h239l-47 -299h324q196 0 303 -94t107 -259q0 -219 -147 -351t-394 -132h-324l-49 -299h-240zM385 504h313q143 0 212 69.5t69 180.5q0 81 -52 128.5t-161 47.5h-315z" />
    <glyph glyph-name="germandbls" unicode="&#xdf;" horiz-adv-x="1245" 
d="M618 -16q-45 0 -102 4.5t-72 9.5l33 209q78 -19 152 -19q142 0 222.5 75.5t80.5 199.5q0 103 -78.5 155t-216.5 52h-86l33 207h88q124 0 198 62t74 165q0 74 -51 119t-141 45q-100 0 -170 -66t-90 -190l-160 -1012h-240l107 670h-117l31 207h118l21 133q16 107 66.5 192
t123 138.5t159 81.5t179.5 28q183 0 287 -86.5t104 -224.5q0 -120 -70 -215t-169 -119q107 -33 174.5 -114.5t67.5 -205.5q0 -158 -73 -272.5t-197.5 -171.5t-285.5 -57z" />
    <glyph glyph-name="agrave" unicode="&#xe0;" horiz-adv-x="1118" 
d="M727 1147h-158l-196 303h266zM600 1049q205 0 320.5 -124.5t83.5 -320.5l-95 -604h-219l25 156q-54 -78 -148.5 -125t-201.5 -47q-139 0 -228.5 80t-89.5 198q0 320 526 369l222 18l2 19q13 93 -51.5 148.5t-172.5 55.5q-97 0 -164.5 -52.5t-82.5 -143.5l-199 37
q33 151 167.5 243.5t305.5 92.5zM434 156q129 0 213 77.5t115 219.5l-4 -23l10 55l-219 -22q-283 -27 -283 -178q0 -58 45 -93.5t123 -35.5z" />
    <glyph glyph-name="aacute" unicode="&#xe1;" horiz-adv-x="1118" 
d="M987 1450l-291 -303h-157l182 303h266zM600 1049q205 0 320.5 -124.5t83.5 -320.5l-95 -604h-219l25 156q-54 -78 -148.5 -125t-201.5 -47q-139 0 -228.5 80t-89.5 198q0 320 526 369l222 18l2 19q13 93 -51.5 148.5t-172.5 55.5q-97 0 -164.5 -52.5t-82.5 -143.5
l-199 37q33 151 167.5 243.5t305.5 92.5zM434 156q129 0 213 77.5t115 219.5l-4 -23l10 55l-219 -22q-283 -27 -283 -178q0 -58 45 -93.5t123 -35.5z" />
    <glyph glyph-name="acircumflex" unicode="&#xe2;" horiz-adv-x="1118" 
d="M670 1317l-185 -170h-172l283 303h186l191 -303h-168zM600 1049q205 0 320.5 -124.5t83.5 -320.5l-95 -604h-219l25 156q-54 -78 -148.5 -125t-201.5 -47q-139 0 -228.5 80t-89.5 198q0 320 526 369l222 18l2 19q13 93 -51.5 148.5t-172.5 55.5q-97 0 -164.5 -52.5
t-82.5 -143.5l-199 37q33 151 167.5 243.5t305.5 92.5zM434 156q129 0 213 77.5t115 219.5l-4 -23l10 55l-219 -22q-283 -27 -283 -178q0 -58 45 -93.5t123 -35.5z" />
    <glyph glyph-name="atilde" unicode="&#xe3;" horiz-adv-x="1118" 
d="M526 1284q-72 0 -102 -104l-152 24q20 107 98.5 174.5t182.5 67.5q83 0 156 -55q5 -4 18.5 -14t18.5 -13t16 -9.5t18.5 -9t18.5 -4.5t22 -2q74 0 101 103l153 -25q-22 -109 -99 -175t-181 -66q-82 0 -156 53q-6 4 -20 14.5t-19 14t-16.5 10.5t-18.5 9t-17.5 4.5
t-21.5 2.5zM600 1049q205 0 320.5 -124.5t83.5 -320.5l-95 -604h-219l25 156q-54 -78 -148.5 -125t-201.5 -47q-139 0 -228.5 80t-89.5 198q0 320 526 369l222 18l2 19q13 93 -51.5 148.5t-172.5 55.5q-97 0 -164.5 -52.5t-82.5 -143.5l-199 37q33 151 167.5 243.5
t305.5 92.5zM434 156q129 0 213 77.5t115 219.5l-4 -23l10 55l-219 -22q-283 -27 -283 -178q0 -58 45 -93.5t123 -35.5z" />
    <glyph glyph-name="adieresis" unicode="&#xe4;" horiz-adv-x="1118" 
d="M483 1192q-58 0 -96.5 39t-38.5 96t38.5 95t96.5 38q60 0 100 -38t40 -95t-40 -96t-100 -39zM866 1192q-58 0 -96.5 39t-38.5 96t38.5 95t96.5 38q59 0 98.5 -38t39.5 -95t-40 -96t-98 -39zM600 1049q205 0 320.5 -124.5t83.5 -320.5l-95 -604h-219l25 156
q-54 -78 -148.5 -125t-201.5 -47q-139 0 -228.5 80t-89.5 198q0 320 526 369l222 18l2 19q13 93 -51.5 148.5t-172.5 55.5q-97 0 -164.5 -52.5t-82.5 -143.5l-199 37q33 151 167.5 243.5t305.5 92.5zM434 156q129 0 213 77.5t115 219.5l-4 -23l10 55l-219 -22
q-283 -27 -283 -178q0 -58 45 -93.5t123 -35.5z" />
    <glyph glyph-name="aring" unicode="&#xe5;" horiz-adv-x="1118" 
d="M639 1110q-100 0 -165.5 61.5t-65.5 155.5t65.5 156.5t165.5 62.5q101 0 167 -62.5t66 -156.5t-66 -155.5t-167 -61.5zM639 1427q-43 0 -72.5 -28t-29.5 -72q0 -42 29.5 -70t72.5 -28q46 0 75 27.5t29 70.5q0 44 -29 72t-75 28zM600 1049q205 0 320.5 -124.5t83.5 -320.5
l-95 -604h-219l25 156q-54 -78 -148.5 -125t-201.5 -47q-139 0 -228.5 80t-89.5 198q0 320 526 369l222 18l2 19q13 93 -51.5 148.5t-172.5 55.5q-97 0 -164.5 -52.5t-82.5 -143.5l-199 37q33 151 167.5 243.5t305.5 92.5zM434 156q129 0 213 77.5t115 219.5l-4 -23l10 55
l-219 -22q-283 -27 -283 -178q0 -58 45 -93.5t123 -35.5z" />
    <glyph glyph-name="ae" unicode="&#xe6;" horiz-adv-x="1857" 
d="M1778 463h-785q-7 -132 60.5 -210.5t189.5 -78.5q101 0 176.5 46t108.5 130l203 -53q-64 -149 -202.5 -231t-320.5 -82q-133 0 -229.5 56.5t-149.5 154.5q-78 -100 -192 -155.5t-254 -55.5q-158 0 -248 74t-90 192q0 170 141.5 273.5t403.5 103.5h201l6 41
q15 95 -41 150.5t-162 55.5q-95 0 -168 -53.5t-92 -132.5l-189 39q44 141 177.5 231.5t298.5 90.5q121 0 211 -39.5t137 -114.5q161 154 397 154q107 0 192.5 -35t138 -94.5t80 -134.5t27.5 -160q0 -61 -26 -162zM1339 872q-110 0 -191.5 -63t-121.5 -176h547
q6 108 -54.5 173.5t-179.5 65.5zM428 152q128 0 216.5 76t115.5 200l6 37h-207q-139 0 -216 -53.5t-77 -135.5q0 -55 45 -89.5t117 -34.5z" />
    <glyph glyph-name="ccedilla" unicode="&#xe7;" horiz-adv-x="1142" 
d="M567 178q98 0 167.5 50t92.5 137l222 -43q-38 -145 -159.5 -235.5t-295.5 -100.5l-174 -287h-266l282 295q-163 35 -262.5 160.5t-99.5 298.5q0 263 165 429.5t427 166.5q186 0 310.5 -104.5t127.5 -262.5l-234 -41q0 90 -65.5 151.5t-163.5 61.5q-150 0 -241 -104.5
t-91 -274.5q0 -129 71 -213t187 -84z" />
    <glyph glyph-name="egrave" unicode="&#xe8;" horiz-adv-x="1159" 
d="M760 1147h-160l-197 303h267zM1081 467h-788v-6q0 -132 73.5 -209.5t196.5 -77.5q100 0 168 45t96 131l211 -53q-44 -141 -182 -227t-321 -86q-203 0 -333 131t-130 334q0 92 24 179.5t72 163.5t115.5 133.5t161.5 90.5t202 33q107 0 195 -35t145 -94t88 -135t31 -160
q0 -74 -25 -158zM618 872q-108 0 -186.5 -64t-114.5 -175h560q6 105 -65.5 172t-193.5 67z" />
    <glyph glyph-name="eacute" unicode="&#xe9;" horiz-adv-x="1159" 
d="M1018 1450l-291 -303h-158l183 303h266zM1081 467h-788v-6q0 -132 73.5 -209.5t196.5 -77.5q100 0 168 45t96 131l211 -53q-44 -141 -182 -227t-321 -86q-203 0 -333 131t-130 334q0 92 24 179.5t72 163.5t115.5 133.5t161.5 90.5t202 33q107 0 195 -35t145 -94t88 -135
t31 -160q0 -74 -25 -158zM618 872q-108 0 -186.5 -64t-114.5 -175h560q6 105 -65.5 172t-193.5 67z" />
    <glyph glyph-name="ecircumflex" unicode="&#xea;" horiz-adv-x="1159" 
d="M700 1317l-184 -170h-172l283 303h186l188 -303h-167zM1081 467h-788v-6q0 -132 73.5 -209.5t196.5 -77.5q100 0 168 45t96 131l211 -53q-44 -141 -182 -227t-321 -86q-203 0 -333 131t-130 334q0 92 24 179.5t72 163.5t115.5 133.5t161.5 90.5t202 33q107 0 195 -35
t145 -94t88 -135t31 -160q0 -74 -25 -158zM618 872q-108 0 -186.5 -64t-114.5 -175h560q6 105 -65.5 172t-193.5 67z" />
    <glyph glyph-name="edieresis" unicode="&#xeb;" horiz-adv-x="1159" 
d="M514 1192q-57 0 -95 39t-38 96t38 95t95 38q60 0 99.5 -38t39.5 -95t-39.5 -96t-99.5 -39zM897 1192q-58 0 -96.5 39t-38.5 96t38.5 95t96.5 38q59 0 98 -38t39 -95t-39.5 -96t-97.5 -39zM1081 467h-788v-6q0 -132 73.5 -209.5t196.5 -77.5q100 0 168 45t96 131l211 -53
q-44 -141 -182 -227t-321 -86q-203 0 -333 131t-130 334q0 92 24 179.5t72 163.5t115.5 133.5t161.5 90.5t202 33q107 0 195 -35t145 -94t88 -135t31 -160q0 -74 -25 -158zM618 872q-108 0 -186.5 -64t-114.5 -175h560q6 105 -65.5 172t-193.5 67z" />
    <glyph glyph-name="igrave" unicode="&#xec;" horiz-adv-x="487" 
d="M430 1147h-160l-196 303h266zM53 0l164 1032h223l-164 -1032h-223z" />
    <glyph glyph-name="iacute" unicode="&#xed;" horiz-adv-x="487" 
d="M240 1147l182 303h266l-291 -303h-157zM53 0l164 1032h223l-164 -1032h-223z" />
    <glyph glyph-name="icircumflex" unicode="&#xee;" horiz-adv-x="487" 
d="M299 1450h186l189 -303h-168l-133 170l-185 -170h-172zM53 0l164 1032h223l-164 -1032h-223z" />
    <glyph glyph-name="idieresis" unicode="&#xef;" horiz-adv-x="487" 
d="M184 1192q-57 0 -95 39t-38 96t38 95t95 38q60 0 100 -38t40 -95t-40 -96t-100 -39zM567 1192q-58 0 -96.5 39t-38.5 96t38.5 95t96.5 38q59 0 98.5 -38t39.5 -95t-40 -96t-98 -39zM53 0l164 1032h223l-164 -1032h-223z" />
    <glyph glyph-name="eth" unicode="&#xf0;" horiz-adv-x="1335" 
d="M1309 1260l-195 -48q31 -158 31 -342q0 -169 -23.5 -306.5t-67 -232.5t-99.5 -164t-125.5 -108t-140.5 -57t-150 -18q-215 0 -344 117.5t-129 312.5q0 159 75 293t203.5 211t280.5 77q110 0 191.5 -36t119.5 -97q4 131 -27 299l-245 -59l-11 153l221 54q-16 55 -53 141
h221q32 -83 35 -92l221 53zM549 178q148 0 248 108t100 269q0 115 -69.5 181.5t-194.5 66.5q-143 0 -242.5 -108.5t-99.5 -266.5q0 -109 72 -179.5t186 -70.5z" />
    <glyph glyph-name="ntilde" unicode="&#xf1;" horiz-adv-x="1198" 
d="M479 1180l-151 24q20 107 98 174.5t182 67.5q80 0 156 -55q5 -4 18.5 -13.5t18.5 -13t16 -10t18 -9t17.5 -4.5t21.5 -2q36 0 63 26.5t40 76.5l151 -25q-22 -109 -98.5 -175t-179.5 -66q-81 0 -158 53q-5 3 -19 14t-18.5 14.5t-15.5 10.5t-18 9t-17.5 4.5t-21.5 2.5
q-76 0 -103 -104zM53 0l164 1032h223l-26 -172q67 87 162.5 138t205.5 51q166 0 254 -101.5t60 -267.5l-107 -680h-223l100 629q15 98 -33 158.5t-145 60.5q-129 0 -219 -104.5t-121 -290.5l-72 -453h-223z" />
    <glyph glyph-name="ograve" unicode="&#xf2;" horiz-adv-x="1202" 
d="M791 1147h-160l-197 303h266zM547 -16q-207 0 -341 128.5t-134 325.5q0 173 76.5 312.5t212.5 219t305 79.5q206 0 340.5 -128.5t134.5 -326.5q0 -172 -77 -311.5t-213 -219t-304 -79.5zM569 178q152 0 248 110.5t96 282.5q0 124 -75.5 203.5t-194.5 79.5
q-153 0 -248.5 -110t-95.5 -283q0 -124 75.5 -203.5t194.5 -79.5z" />
    <glyph glyph-name="oacute" unicode="&#xf3;" horiz-adv-x="1202" 
d="M600 1147l182 303h267l-291 -303h-158zM547 -16q-207 0 -341 128.5t-134 325.5q0 173 76.5 312.5t212.5 219t305 79.5q206 0 340.5 -128.5t134.5 -326.5q0 -172 -77 -311.5t-213 -219t-304 -79.5zM569 178q152 0 248 110.5t96 282.5q0 124 -75.5 203.5t-194.5 79.5
q-153 0 -248.5 -110t-95.5 -283q0 -124 75.5 -203.5t194.5 -79.5z" />
    <glyph glyph-name="ocircumflex" unicode="&#xf4;" horiz-adv-x="1202" 
d="M659 1450h187l188 -303h-168l-133 170l-184 -170h-172zM547 -16q-207 0 -341 128.5t-134 325.5q0 173 76.5 312.5t212.5 219t305 79.5q206 0 340.5 -128.5t134.5 -326.5q0 -172 -77 -311.5t-213 -219t-304 -79.5zM569 178q152 0 248 110.5t96 282.5q0 124 -75.5 203.5
t-194.5 79.5q-153 0 -248.5 -110t-95.5 -283q0 -124 75.5 -203.5t194.5 -79.5z" />
    <glyph glyph-name="otilde" unicode="&#xf5;" horiz-adv-x="1202" 
d="M487 1180l-151 24q20 107 98 174.5t182 67.5q80 0 156 -55q4 -3 18.5 -13.5t19 -13.5t16 -9.5t18.5 -8.5t17.5 -4.5t21.5 -2.5q36 0 62.5 26.5t39.5 76.5l152 -25q-22 -108 -99 -174.5t-180 -66.5q-81 0 -158 53q-5 3 -19 14t-18.5 14.5t-15.5 10.5t-18 9t-17.5 4.5
t-21.5 2.5q-76 0 -103 -104zM547 -16q-207 0 -341 128.5t-134 325.5q0 173 76.5 312.5t212.5 219t305 79.5q206 0 340.5 -128.5t134.5 -326.5q0 -172 -77 -311.5t-213 -219t-304 -79.5zM569 178q152 0 248 110.5t96 282.5q0 124 -75.5 203.5t-194.5 79.5q-153 0 -248.5 -110
t-95.5 -283q0 -124 75.5 -203.5t194.5 -79.5z" />
    <glyph glyph-name="odieresis" unicode="&#xf6;" horiz-adv-x="1202" 
d="M545 1192q-57 0 -95 39t-38 96t38 95t95 38q60 0 99.5 -38t39.5 -95t-39.5 -96t-99.5 -39zM928 1192q-58 0 -96.5 39t-38.5 96t38.5 95t96.5 38q59 0 98 -38t39 -95t-39.5 -96t-97.5 -39zM547 -16q-207 0 -341 128.5t-134 325.5q0 173 76.5 312.5t212.5 219t305 79.5
q206 0 340.5 -128.5t134.5 -326.5q0 -172 -77 -311.5t-213 -219t-304 -79.5zM569 178q152 0 248 110.5t96 282.5q0 124 -75.5 203.5t-194.5 79.5q-153 0 -248.5 -110t-95.5 -283q0 -124 75.5 -203.5t194.5 -79.5z" />
    <glyph glyph-name="divide" unicode="&#xf7;" horiz-adv-x="1114" 
d="M633 946q-55 0 -89 34.5t-34 88.5q0 68 50 116t120 48q55 0 89 -35t34 -88q0 -68 -50 -116t-120 -48zM80 575l31 193h979l-31 -193h-979zM502 111q-57 0 -91 34t-34 88q0 68 50 116t120 48q55 0 90 -35t35 -88q0 -68 -50.5 -115.5t-119.5 -47.5z" />
    <glyph glyph-name="oslash" unicode="&#xf8;" horiz-adv-x="1202" 
d="M1200 1004l-143 -142q84 -117 84 -268q0 -172 -77 -311.5t-213 -219t-304 -79.5q-169 0 -295 90l-146 -144l-98 99l146 143q-82 119 -82 266q0 173 76.5 312.5t212.5 219t305 79.5q164 0 292 -88l146 141zM299 461q0 -65 25 -123l477 467q-64 49 -158 49
q-153 0 -248.5 -110t-95.5 -283zM913 571q0 69 -24 127l-479 -471q68 -49 159 -49q152 0 248 110.5t96 282.5z" />
    <glyph glyph-name="ugrave" unicode="&#xf9;" horiz-adv-x="1198" 
d="M780 1147h-159l-197 303h266zM1153 1032l-164 -1032h-223l27 172q-67 -86 -163 -137t-206 -51q-166 0 -253.5 101t-59.5 267l106 680h223l-100 -629q-15 -98 33 -158.5t145 -60.5q129 0 220 105t120 291l72 452h223z" />
    <glyph glyph-name="uacute" unicode="&#xfa;" horiz-adv-x="1198" 
d="M590 1147l182 303h266l-290 -303h-158zM1153 1032l-164 -1032h-223l27 172q-67 -86 -163 -137t-206 -51q-166 0 -253.5 101t-59.5 267l106 680h223l-100 -629q-15 -98 33 -158.5t145 -60.5q129 0 220 105t120 291l72 452h223z" />
    <glyph glyph-name="ucircumflex" unicode="&#xfb;" horiz-adv-x="1198" 
d="M649 1450h187l188 -303h-168l-133 170l-184 -170h-172zM1153 1032l-164 -1032h-223l27 172q-67 -86 -163 -137t-206 -51q-166 0 -253.5 101t-59.5 267l106 680h223l-100 -629q-15 -98 33 -158.5t145 -60.5q129 0 220 105t120 291l72 452h223z" />
    <glyph glyph-name="udieresis" unicode="&#xfc;" horiz-adv-x="1198" 
d="M535 1192q-57 0 -95.5 39t-38.5 96t38.5 95t95.5 38q60 0 99.5 -38t39.5 -95t-39.5 -96t-99.5 -39zM918 1192q-58 0 -97 39t-39 96t39 95t97 38q59 0 98 -38t39 -95t-39.5 -96t-97.5 -39zM1153 1032l-164 -1032h-223l27 172q-67 -86 -163 -137t-206 -51
q-166 0 -253.5 101t-59.5 267l106 680h223l-100 -629q-15 -98 33 -158.5t145 -60.5q129 0 220 105t120 291l72 452h223z" />
    <glyph glyph-name="yacute" unicode="&#xfd;" horiz-adv-x="1040" 
d="M961 1450l-291 -303h-158l182 303h267zM874 1032h228l-766 -1405h-219l225 418l-240 987h230l157 -715z" />
    <glyph glyph-name="thorn" unicode="&#xfe;" horiz-adv-x="1234" 
d="M-8 -393l291 1835h223l-86 -541q56 66 148 107t196 41q195 0 302.5 -121t107.5 -318q0 -176 -71 -318.5t-201 -225t-296 -82.5q-107 0 -191 42.5t-116 112.5l-84 -532h-223zM610 178q148 0 243 110t95 292q0 128 -68 201t-186 73q-156 0 -257 -109.5t-101 -291.5
q0 -128 74.5 -201.5t199.5 -73.5z" />
    <glyph glyph-name="ydieresis" unicode="&#xff;" horiz-adv-x="1040" 
d="M457 1192q-57 0 -95 39t-38 96t38 95t95 38q60 0 99.5 -38t39.5 -95t-39.5 -96t-99.5 -39zM840 1192q-58 0 -96.5 39t-38.5 96t38.5 95t96.5 38q59 0 98 -38t39 -95t-39.5 -96t-97.5 -39zM874 1032h228l-766 -1405h-219l225 418l-240 987h230l157 -715z" />
    <glyph glyph-name="Amacron" unicode="&#x100;" horiz-adv-x="1372" 
d="M1169 1780l-28 -176h-559l26 176h561zM1028 0l-74 338h-585l-183 -338h-247l784 1434h223l332 -1434h-250zM479 545h432l-125 573z" />
    <glyph glyph-name="amacron" unicode="&#x101;" horiz-adv-x="1118" 
d="M958 1378l-26 -176h-559l26 176h559zM600 1049q205 0 320.5 -124.5t83.5 -320.5l-95 -604h-219l25 156q-54 -78 -148.5 -125t-201.5 -47q-139 0 -228.5 80t-89.5 198q0 320 526 369l222 18l2 19q13 93 -51.5 148.5t-172.5 55.5q-97 0 -164.5 -52.5t-82.5 -143.5l-199 37
q33 151 167.5 243.5t305.5 92.5zM434 156q129 0 213 77.5t115 219.5l-4 -23l10 55l-219 -22q-283 -27 -283 -178q0 -58 45 -93.5t123 -35.5z" />
    <glyph glyph-name="Abreve" unicode="&#x102;" horiz-adv-x="1372" 
d="M852 1542q-119 0 -184.5 76.5t-46.5 193.5h170q-9 -52 15 -85t71 -33q48 0 84 33t43 85h170q-20 -117 -111 -193.5t-211 -76.5zM1028 0l-74 338h-585l-183 -338h-247l784 1434h223l332 -1434h-250zM479 545h432l-125 573z" />
    <glyph glyph-name="abreve" unicode="&#x103;" horiz-adv-x="1118" 
d="M643 1141q-120 0 -185.5 76.5t-45.5 193.5h168q-8 -53 15.5 -86t70.5 -33t83.5 33.5t45.5 85.5h168q-19 -117 -110 -193.5t-210 -76.5zM600 1049q205 0 320.5 -124.5t83.5 -320.5l-95 -604h-219l25 156q-54 -78 -148.5 -125t-201.5 -47q-139 0 -228.5 80t-89.5 198
q0 320 526 369l222 18l2 19q13 93 -51.5 148.5t-172.5 55.5q-97 0 -164.5 -52.5t-82.5 -143.5l-199 37q33 151 167.5 243.5t305.5 92.5zM434 156q129 0 213 77.5t115 219.5l-4 -23l10 55l-219 -22q-283 -27 -283 -178q0 -58 45 -93.5t123 -35.5z" />
    <glyph glyph-name="Aogonek" unicode="&#x104;" horiz-adv-x="1372" 
d="M1100 -158q0 -31 21 -49t55 -18q39 0 55 8v-160q-40 -12 -111 -12q-98 0 -154.5 48t-56.5 128q0 53 31.5 110.5t85.5 108.5l-72 332h-585l-183 -338h-247l784 1434h223l332 -1434h-70q-108 -90 -108 -158zM479 545h432l-125 573z" />
    <glyph glyph-name="aogonek" unicode="&#x105;" horiz-adv-x="1118" 
d="M909 0q-108 -90 -108 -158q0 -31 21 -49t55 -18q39 0 55 8v-160q-40 -12 -111 -12q-98 0 -154.5 48t-56.5 128q0 111 113 213h-33l25 156q-54 -78 -148.5 -125t-201.5 -47q-139 0 -228.5 80t-89.5 198q0 320 526 369l222 18l2 19q13 93 -51.5 148.5t-172.5 55.5
q-97 0 -164.5 -52.5t-82.5 -143.5l-199 37q33 151 167.5 243.5t305.5 92.5q205 0 320.5 -124.5t83.5 -320.5zM434 156q129 0 213 77.5t115 219.5l-4 -23l10 55l-219 -22q-283 -27 -283 -178q0 -58 45 -93.5t123 -35.5z" />
    <glyph glyph-name="Cacute" unicode="&#x106;" horiz-adv-x="1482" 
d="M831 1548l183 303h266l-291 -303h-158zM721 -16q-126 0 -237 41t-196.5 117t-135.5 195.5t-50 266.5q0 165 45.5 304.5t124 238t183.5 168t223.5 102.5t243.5 33q250 0 404.5 -127t158.5 -340l-244 -51q-7 144 -104 226.5t-250 82.5q-113 0 -211 -40.5t-171 -116.5
t-115 -193t-42 -262q0 -201 114 -317.5t292 -116.5q148 0 254.5 76.5t152.5 211.5l236 -51q-75 -212 -253 -330t-423 -118z" />
    <glyph glyph-name="cacute" unicode="&#x107;" horiz-adv-x="1142" 
d="M592 1147l182 303h266l-290 -303h-158zM545 -16q-205 0 -338 133.5t-133 335.5q0 263 165 429.5t427 166.5q186 0 310.5 -104.5t127.5 -262.5l-234 -41q0 90 -65.5 151.5t-163.5 61.5q-150 0 -241 -104.5t-91 -274.5q0 -129 71 -213t187 -84q98 0 167.5 50t92.5 137
l222 -43q-41 -156 -176 -247t-328 -91z" />
    <glyph glyph-name="Ccircumflex" unicode="&#x108;" horiz-adv-x="1482" 
d="M891 1851h186l189 -303h-168l-133 170l-185 -170h-172zM721 -16q-126 0 -237 41t-196.5 117t-135.5 195.5t-50 266.5q0 165 45.5 304.5t124 238t183.5 168t223.5 102.5t243.5 33q250 0 404.5 -127t158.5 -340l-244 -51q-7 144 -104 226.5t-250 82.5q-113 0 -211 -40.5
t-171 -116.5t-115 -193t-42 -262q0 -201 114 -317.5t292 -116.5q148 0 254.5 76.5t152.5 211.5l236 -51q-75 -212 -253 -330t-423 -118z" />
    <glyph glyph-name="ccircumflex" unicode="&#x109;" horiz-adv-x="1142" 
d="M651 1450h187l188 -303h-168l-133 170l-184 -170h-172zM545 -16q-205 0 -338 133.5t-133 335.5q0 263 165 429.5t427 166.5q186 0 310.5 -104.5t127.5 -262.5l-234 -41q0 90 -65.5 151.5t-163.5 61.5q-150 0 -241 -104.5t-91 -274.5q0 -129 71 -213t187 -84
q98 0 167.5 50t92.5 137l222 -43q-41 -156 -176 -247t-328 -91z" />
    <glyph glyph-name="Cdotaccent" unicode="&#x10a;" horiz-adv-x="1482" 
d="M971 1606q-63 0 -104.5 41.5t-41.5 101.5q0 62 41.5 103.5t104.5 41.5t105 -41.5t42 -103.5q0 -60 -42 -101.5t-105 -41.5zM721 -16q-126 0 -237 41t-196.5 117t-135.5 195.5t-50 266.5q0 165 45.5 304.5t124 238t183.5 168t223.5 102.5t243.5 33q250 0 404.5 -127
t158.5 -340l-244 -51q-7 144 -104 226.5t-250 82.5q-113 0 -211 -40.5t-171 -116.5t-115 -193t-42 -262q0 -201 114 -317.5t292 -116.5q148 0 254.5 76.5t152.5 211.5l236 -51q-75 -212 -253 -330t-423 -118z" />
    <glyph glyph-name="cdotaccent" unicode="&#x10b;" horiz-adv-x="1142" 
d="M733 1204q-62 0 -103.5 41.5t-41.5 102.5q0 62 41 103.5t104 41.5t105.5 -41.5t42.5 -103.5q0 -60 -42.5 -102t-105.5 -42zM545 -16q-205 0 -338 133.5t-133 335.5q0 263 165 429.5t427 166.5q186 0 310.5 -104.5t127.5 -262.5l-234 -41q0 90 -65.5 151.5t-163.5 61.5
q-150 0 -241 -104.5t-91 -274.5q0 -129 71 -213t187 -84q98 0 167.5 50t92.5 137l222 -43q-41 -156 -176 -247t-328 -91z" />
    <glyph glyph-name="Ccaron" unicode="&#x10c;" horiz-adv-x="1482" 
d="M844 1548l-189 303h162l135 -168l183 168h178l-283 -303h-186zM721 -16q-126 0 -237 41t-196.5 117t-135.5 195.5t-50 266.5q0 165 45.5 304.5t124 238t183.5 168t223.5 102.5t243.5 33q250 0 404.5 -127t158.5 -340l-244 -51q-7 144 -104 226.5t-250 82.5
q-113 0 -211 -40.5t-171 -116.5t-115 -193t-42 -262q0 -201 114 -317.5t292 -116.5q148 0 254.5 76.5t152.5 211.5l236 -51q-75 -212 -253 -330t-423 -118z" />
    <glyph glyph-name="ccaron" unicode="&#x10d;" horiz-adv-x="1142" 
d="M606 1147l-188 303h162l135 -168l182 168h178l-282 -303h-187zM545 -16q-205 0 -338 133.5t-133 335.5q0 263 165 429.5t427 166.5q186 0 310.5 -104.5t127.5 -262.5l-234 -41q0 90 -65.5 151.5t-163.5 61.5q-150 0 -241 -104.5t-91 -274.5q0 -129 71 -213t187 -84
q98 0 167.5 50t92.5 137l222 -43q-41 -156 -176 -247t-328 -91z" />
    <glyph glyph-name="Dcaron" unicode="&#x10e;" horiz-adv-x="1396" 
d="M698 1548l-188 303h162l135 -168l182 168h178l-282 -303h-187zM63 0l228 1434h450q134 0 247.5 -39t198.5 -113t133 -189t48 -259q0 -197 -70.5 -357.5t-189.5 -263t-272 -158t-322 -55.5h-451zM334 211h196q90 0 174 20.5t160.5 67t132.5 114.5t89.5 170t33.5 226
q0 87 -22.5 157t-62 118t-94.5 80t-117.5 46.5t-133.5 14.5h-196z" />
    <glyph glyph-name="dcaron" unicode="&#x10f;" horiz-adv-x="1447" 
d="M1298 1147l123 371h219l-210 -371h-132zM489 -16q-200 0 -308.5 120t-108.5 318q0 176 70 318.5t201.5 225.5t299.5 83q107 0 185.5 -42.5t117.5 -111.5l86 555h223l-229 -1450h-223l22 131q-48 -65 -141 -106t-195 -41zM549 178q156 0 257 113t101 287q0 127 -69 201.5
t-193 74.5q-148 0 -248 -113t-100 -286q0 -126 67.5 -201.5t184.5 -75.5z" />
    <glyph glyph-name="Dcroat" unicode="&#x110;" horiz-adv-x="1396" 
d="M741 1434q134 0 247.5 -39t198.5 -113t133 -189t48 -259q0 -197 -70.5 -357.5t-189.5 -263t-272 -158t-322 -55.5h-451l101 637h-127l24 160h129l101 637h450zM530 211q90 0 174 20.5t160.5 67t132.5 114.5t89.5 170t33.5 226q0 87 -22.5 157t-62 118t-94.5 80
t-117.5 46.5t-133.5 14.5h-196l-68 -428h276l-24 -160h-277l-67 -426h196z" />
    <glyph glyph-name="dcroat" unicode="&#x111;" horiz-adv-x="1236" 
d="M1395 1321l-25 -160h-160l-184 -1161h-223l22 131q-48 -65 -141 -106t-195 -41q-200 0 -308.5 120t-108.5 318q0 176 70 318.5t201.5 225.5t299.5 83q107 0 185.5 -42.5t117.5 -111.5l41 266h-258l25 160h258l20 129h223l-20 -129h160zM549 178q156 0 257 113t101 287
q0 127 -69 201.5t-193 74.5q-148 0 -248 -113t-100 -286q0 -126 67.5 -201.5t184.5 -75.5z" />
    <glyph glyph-name="Emacron" unicode="&#x112;" horiz-adv-x="1177" 
d="M520 1604l27 176h561l-29 -176h-559zM63 0l228 1434h934l-33 -209h-694l-58 -361h559l-32 -209h-561l-70 -444h719l-35 -211h-957z" />
    <glyph glyph-name="emacron" unicode="&#x113;" horiz-adv-x="1159" 
d="M989 1378l-28 -176h-560l27 176h561zM1081 467h-788v-6q0 -132 73.5 -209.5t196.5 -77.5q100 0 168 45t96 131l211 -53q-44 -141 -182 -227t-321 -86q-203 0 -333 131t-130 334q0 92 24 179.5t72 163.5t115.5 133.5t161.5 90.5t202 33q107 0 195 -35t145 -94t88 -135
t31 -160q0 -74 -25 -158zM618 872q-108 0 -186.5 -64t-114.5 -175h560q6 105 -65.5 172t-193.5 67z" />
    <glyph glyph-name="Ebreve" unicode="&#x114;" horiz-adv-x="1177" 
d="M791 1542q-119 0 -185 76.5t-47 193.5h170q-9 -52 15 -85t71 -33q48 0 84 33t43 85h170q-20 -117 -110.5 -193.5t-210.5 -76.5zM63 0l228 1434h934l-33 -209h-694l-58 -361h559l-32 -209h-561l-70 -444h719l-35 -211h-957z" />
    <glyph glyph-name="ebreve" unicode="&#x115;" horiz-adv-x="1159" 
d="M672 1141q-119 0 -185 76.5t-47 193.5h170q-9 -53 15 -86t71 -33q48 0 84 33.5t43 85.5h170q-20 -117 -110.5 -193.5t-210.5 -76.5zM1081 467h-788v-6q0 -132 73.5 -209.5t196.5 -77.5q100 0 168 45t96 131l211 -53q-44 -141 -182 -227t-321 -86q-203 0 -333 131
t-130 334q0 92 24 179.5t72 163.5t115.5 133.5t161.5 90.5t202 33q107 0 195 -35t145 -94t88 -135t31 -160q0 -74 -25 -158zM618 872q-108 0 -186.5 -64t-114.5 -175h560q6 105 -65.5 172t-193.5 67z" />
    <glyph glyph-name="Edotaccent" unicode="&#x116;" horiz-adv-x="1177" 
d="M825 1606q-63 0 -104 41t-41 102q0 62 41 103.5t104 41.5t105.5 -41.5t42.5 -103.5q0 -60 -42.5 -101.5t-105.5 -41.5zM63 0l228 1434h934l-33 -209h-694l-58 -361h559l-32 -209h-561l-70 -444h719l-35 -211h-957z" />
    <glyph glyph-name="edotaccent" unicode="&#x117;" horiz-adv-x="1159" 
d="M709 1204q-63 0 -104.5 42t-41.5 102q0 62 41.5 103.5t104.5 41.5t105 -41.5t42 -103.5q0 -60 -42 -102t-105 -42zM1081 467h-788v-6q0 -132 73.5 -209.5t196.5 -77.5q100 0 168 45t96 131l211 -53q-44 -141 -182 -227t-321 -86q-203 0 -333 131t-130 334q0 92 24 179.5
t72 163.5t115.5 133.5t161.5 90.5t202 33q107 0 195 -35t145 -94t88 -135t31 -160q0 -74 -25 -158zM618 872q-108 0 -186.5 -64t-114.5 -175h560q6 105 -65.5 172t-193.5 67z" />
    <glyph glyph-name="Eogonek" unicode="&#x118;" horiz-adv-x="1177" 
d="M1192 1225h-694l-58 -361h559l-32 -209h-561l-70 -444h719l-35 -211h2q-109 -91 -109 -158q0 -31 21 -49t55 -18q39 0 55 8v-160q-40 -12 -110 -12q-98 0 -154.5 48t-56.5 128q0 111 113 213h-773l228 1434h934z" />
    <glyph glyph-name="eogonek" unicode="&#x119;" horiz-adv-x="1159" 
d="M1081 467h-788v-6q0 -132 73.5 -209.5t196.5 -77.5q100 0 168 45t96 131l211 -53q-38 -121 -146 -202t-257 -103q-98 -84 -98 -150q0 -31 20.5 -49t54.5 -18q40 0 56 8v-160q-40 -12 -111 -12q-98 0 -154.5 48t-56.5 128q0 103 103 203q-170 28 -273.5 153t-103.5 306
q0 92 24 179.5t72 163.5t115.5 133.5t161.5 90.5t202 33q107 0 195 -35t145 -94t88 -135t31 -160q0 -74 -25 -158zM618 872q-108 0 -186.5 -64t-114.5 -175h560q6 105 -65.5 172t-193.5 67z" />
    <glyph glyph-name="Ecaron" unicode="&#x11a;" horiz-adv-x="1177" 
d="M698 1548l-188 303h162l135 -168l182 168h178l-282 -303h-187zM63 0l228 1434h934l-33 -209h-694l-58 -361h559l-32 -209h-561l-70 -444h719l-35 -211h-957z" />
    <glyph glyph-name="ecaron" unicode="&#x11b;" horiz-adv-x="1159" 
d="M768 1147h-186l-189 303h162l135 -168l182 168h179zM1081 467h-788v-6q0 -132 73.5 -209.5t196.5 -77.5q100 0 168 45t96 131l211 -53q-44 -141 -182 -227t-321 -86q-203 0 -333 131t-130 334q0 92 24 179.5t72 163.5t115.5 133.5t161.5 90.5t202 33q107 0 195 -35
t145 -94t88 -135t31 -160q0 -74 -25 -158zM618 872q-108 0 -186.5 -64t-114.5 -175h560q6 105 -65.5 172t-193.5 67z" />
    <glyph glyph-name="Gcircumflex" unicode="&#x11c;" horiz-adv-x="1531" 
d="M883 1851h186l188 -303h-167l-134 170l-184 -170h-172zM694 -16q-122 0 -228.5 39t-189 113t-129.5 192t-47 266q0 164 47.5 305t129 241t188.5 171t227.5 105t245.5 34q251 0 400 -125t155 -342l-242 -49q-8 142 -100.5 224.5t-247.5 82.5q-117 0 -218 -43t-176 -122
t-118 -197t-43 -261q0 -200 105 -311.5t282 -111.5t302 99.5t159 262.5h-457l33 199h680l-119 -756h-217l29 193q-63 -95 -187 -152t-264 -57z" />
    <glyph glyph-name="gcircumflex" unicode="&#x11d;" horiz-adv-x="1218" 
d="M719 1317l-184 -170h-173l283 303h186l189 -303h-168zM1171 1032l-129 -817l-24 -158q-32 -199 -190.5 -322.5t-381.5 -123.5q-182 0 -297 88t-116 229l215 35q-4 -76 60 -123t167 -47q124 0 212.5 67.5t105.5 174.5l20 123q-50 -58 -138 -93.5t-188 -35.5
q-198 0 -305.5 115.5t-107.5 306.5q0 169 69.5 305t200 214.5t299.5 78.5q96 0 174 -37.5t115 -98.5l18 119h221zM547 223q151 0 248.5 104.5t97.5 268.5q0 118 -65.5 188t-180.5 70q-151 0 -248.5 -103.5t-97.5 -267.5q0 -119 65.5 -189.5t180.5 -70.5z" />
    <glyph glyph-name="Gbreve" unicode="&#x11e;" horiz-adv-x="1531" 
d="M928 1542q-119 0 -185 76.5t-47 193.5h170q-9 -52 15 -85t71 -33q48 0 84 33t43 85h170q-20 -117 -110.5 -193.5t-210.5 -76.5zM694 -16q-122 0 -228.5 39t-189 113t-129.5 192t-47 266q0 164 47.5 305t129 241t188.5 171t227.5 105t245.5 34q251 0 400 -125t155 -342
l-242 -49q-8 142 -100.5 224.5t-247.5 82.5q-117 0 -218 -43t-176 -122t-118 -197t-43 -261q0 -200 105 -311.5t282 -111.5t302 99.5t159 262.5h-457l33 199h680l-119 -756h-217l29 193q-63 -95 -187 -152t-264 -57z" />
    <glyph glyph-name="gbreve" unicode="&#x11f;" horiz-adv-x="1218" 
d="M690 1141q-119 0 -184.5 76.5t-46.5 193.5h170q-9 -53 15 -86t71 -33q48 0 84 33.5t43 85.5h170q-20 -117 -111 -193.5t-211 -76.5zM1171 1032l-129 -817l-24 -158q-32 -199 -190.5 -322.5t-381.5 -123.5q-182 0 -297 88t-116 229l215 35q-4 -76 60 -123t167 -47
q124 0 212.5 67.5t105.5 174.5l20 123q-50 -58 -138 -93.5t-188 -35.5q-198 0 -305.5 115.5t-107.5 306.5q0 169 69.5 305t200 214.5t299.5 78.5q96 0 174 -37.5t115 -98.5l18 119h221zM547 223q151 0 248.5 104.5t97.5 268.5q0 118 -65.5 188t-180.5 70
q-151 0 -248.5 -103.5t-97.5 -267.5q0 -119 65.5 -189.5t180.5 -70.5z" />
    <glyph glyph-name="Gdotaccent" unicode="&#x120;" horiz-adv-x="1531" 
d="M965 1606q-63 0 -104.5 41.5t-41.5 101.5q0 62 41.5 103.5t104.5 41.5t105 -41.5t42 -103.5q0 -60 -42 -101.5t-105 -41.5zM694 -16q-122 0 -228.5 39t-189 113t-129.5 192t-47 266q0 164 47.5 305t129 241t188.5 171t227.5 105t245.5 34q251 0 400 -125t155 -342
l-242 -49q-8 142 -100.5 224.5t-247.5 82.5q-117 0 -218 -43t-176 -122t-118 -197t-43 -261q0 -200 105 -311.5t282 -111.5t302 99.5t159 262.5h-457l33 199h680l-119 -756h-217l29 193q-63 -95 -187 -152t-264 -57z" />
    <glyph glyph-name="gdotaccent" unicode="&#x121;" horiz-adv-x="1218" 
d="M725 1204q-62 0 -103.5 41.5t-41.5 102.5q0 62 41 103.5t104 41.5t105 -41.5t42 -103.5q0 -60 -42 -102t-105 -42zM1171 1032l-129 -817l-24 -158q-32 -199 -190.5 -322.5t-381.5 -123.5q-182 0 -297 88t-116 229l215 35q-4 -76 60 -123t167 -47q124 0 212.5 67.5
t105.5 174.5l20 123q-50 -58 -138 -93.5t-188 -35.5q-198 0 -305.5 115.5t-107.5 306.5q0 169 69.5 305t200 214.5t299.5 78.5q96 0 174 -37.5t115 -98.5l18 119h221zM547 223q151 0 248.5 104.5t97.5 268.5q0 118 -65.5 188t-180.5 70q-151 0 -248.5 -103.5t-97.5 -267.5
q0 -119 65.5 -189.5t180.5 -70.5z" />
    <glyph glyph-name="uni0122" unicode="&#x122;" horiz-adv-x="1531" 
d="M694 -16q-122 0 -228.5 39t-189 113t-129.5 192t-47 266q0 164 47.5 305t129 241t188.5 171t227.5 105t245.5 34q251 0 400 -125t155 -342l-242 -49q-8 142 -100.5 224.5t-247.5 82.5q-117 0 -218 -43t-176 -122t-118 -197t-43 -261q0 -200 105 -311.5t282 -111.5
t302 99.5t159 262.5h-457l33 199h680l-119 -756h-217l29 193q-63 -95 -187 -152t-264 -57zM416 -389l131 303h248l-222 -303h-157z" />
    <glyph glyph-name="uni0123" unicode="&#x123;" horiz-adv-x="1218" 
d="M946 1450l-102 -303h-240l172 303h170zM1171 1032l-129 -817l-24 -158q-32 -199 -190.5 -322.5t-381.5 -123.5q-182 0 -297 88t-116 229l215 35q-4 -76 60 -123t167 -47q124 0 212.5 67.5t105.5 174.5l20 123q-50 -58 -138 -93.5t-188 -35.5q-198 0 -305.5 115.5
t-107.5 306.5q0 169 69.5 305t200 214.5t299.5 78.5q96 0 174 -37.5t115 -98.5l18 119h221zM547 223q151 0 248.5 104.5t97.5 268.5q0 118 -65.5 188t-180.5 70q-151 0 -248.5 -103.5t-97.5 -267.5q0 -119 65.5 -189.5t180.5 -70.5z" />
    <glyph glyph-name="Hcircumflex" unicode="&#x124;" horiz-adv-x="1439" 
d="M913 1718l-184 -170h-172l283 303h186l188 -303h-167zM1206 1434h242l-227 -1434h-242l102 643h-675l-103 -643h-240l228 1434h239l-92 -580h676z" />
    <glyph glyph-name="hcircumflex" unicode="&#x125;" horiz-adv-x="1210" 
d="M362 1851h187l188 -303h-168l-133 170l-184 -170h-172zM53 0l230 1450h223l-94 -596q68 96 163 145.5t205 49.5q175 0 264.5 -101t63.5 -270l-109 -678h-223l101 627q17 103 -34 162t-155 59q-131 0 -221 -106.5t-119 -295.5l-72 -446h-223z" />
    <glyph glyph-name="Hbar" unicode="&#x126;" horiz-adv-x="1439" 
d="M1548 1235l-28 -182h-131l-168 -1053h-242l102 643h-675l-103 -643h-240l168 1053h-137l29 182h137l31 199h239l-30 -199h676l30 199h242l-31 -199h131zM1114 854l33 199h-676l-33 -199h676z" />
    <glyph glyph-name="hbar" unicode="&#x127;" horiz-adv-x="1210" 
d="M780 1049q175 0 264.5 -101t63.5 -270l-109 -678h-223l101 627q17 103 -34 162t-155 59q-131 0 -221 -106.5t-119 -295.5l-72 -446h-223l185 1163h-158l24 160h158l21 127h223l-21 -127h260l-24 -160h-260l-49 -309q68 96 163 145.5t205 49.5z" />
    <glyph glyph-name="Itilde" unicode="&#x128;" horiz-adv-x="522" 
d="M207 1581l-152 25q20 107 98.5 174t182.5 67q80 0 156 -55q5 -3 16.5 -11.5t16 -11.5l13.5 -9t15 -8.5t14.5 -5.5t17 -4t17.5 -1q76 0 103 102l151 -24q-22 -109 -98.5 -175.5t-179.5 -66.5q-81 0 -158 53q-5 4 -19 14.5t-18.5 14t-16 10.5t-18.5 9.5t-17.5 5t-21.5 2.5
q-75 0 -102 -105zM63 0l228 1434h239l-227 -1434h-240z" />
    <glyph glyph-name="itilde" unicode="&#x129;" horiz-adv-x="487" 
d="M127 1180l-152 24q20 107 98.5 174.5t182.5 67.5q80 0 156 -55q5 -4 18.5 -13.5t18.5 -13t16 -10t18 -9t17.5 -4.5t21.5 -2q36 0 63 26.5t40 76.5l151 -25q-22 -109 -98.5 -175t-179.5 -66q-81 0 -158 53q-4 3 -16 12.5t-16.5 12.5t-14 9.5t-15 9t-14.5 6t-17.5 4.5
t-17.5 1q-75 0 -102 -104zM53 0l164 1032h223l-164 -1032h-223z" />
    <glyph glyph-name="Imacron" unicode="&#x12a;" horiz-adv-x="522" 
d="M156 1604l26 176h561l-28 -176h-559zM63 0l228 1434h239l-227 -1434h-240z" />
    <glyph glyph-name="imacron" unicode="&#x12b;" horiz-adv-x="487" 
d="M74 1202l26 176h562l-29 -176h-559zM53 0l164 1032h223l-164 -1032h-223z" />
    <glyph glyph-name="Ibreve" unicode="&#x12c;" horiz-adv-x="522" 
d="M426 1542q-119 0 -184.5 76.5t-46.5 193.5h170q-9 -52 15 -85t71 -33q48 0 84 33t43 85h170q-20 -117 -111 -193.5t-211 -76.5zM63 0l228 1434h239l-227 -1434h-240z" />
    <glyph glyph-name="ibreve" unicode="&#x12d;" horiz-adv-x="487" 
d="M344 1141q-119 0 -184.5 76.5t-46.5 193.5h170q-9 -53 15 -86t71 -33q48 0 84 33.5t43 85.5h170q-20 -117 -111 -193.5t-211 -76.5zM53 0l164 1032h223l-164 -1032h-223z" />
    <glyph glyph-name="Iogonek" unicode="&#x12e;" horiz-adv-x="522" 
d="M195 -158q0 -31 20.5 -49t54.5 -18q40 0 56 8v-160q-40 -12 -111 -12q-98 0 -154.5 48t-56.5 128q0 111 113 213h-54l228 1434h239l-227 -1434q-108 -90 -108 -158z" />
    <glyph glyph-name="iogonek" unicode="&#x12f;" horiz-adv-x="487" 
d="M381 1493q63 0 105 -41.5t42 -103.5q0 -60 -42 -102t-105 -42q-62 0 -103.5 41.5t-41.5 102.5q0 62 41 103.5t104 41.5zM276 0q-108 -90 -108 -158q0 -31 21 -49t55 -18q39 0 55 8v-160q-40 -12 -111 -12q-98 0 -154.5 48t-56.5 128q0 111 113 213h-37l164 1032h223z" />
    <glyph glyph-name="Idotaccent" unicode="&#x130;" horiz-adv-x="522" 
d="M461 1606q-63 0 -104.5 41.5t-41.5 101.5q0 62 41.5 103.5t104.5 41.5t105 -41.5t42 -103.5q0 -60 -42 -101.5t-105 -41.5zM63 0l228 1434h239l-227 -1434h-240z" />
    <glyph glyph-name="dotlessi" unicode="&#x131;" horiz-adv-x="487" 
d="M53 0l164 1032h223l-164 -1032h-223z" />
    <glyph glyph-name="IJ" unicode="&#x132;" horiz-adv-x="1243" 
d="M63 0l228 1434h239l-227 -1434h-240zM530 213q44 -12 99 -12q91 0 151.5 58.5t79.5 166.5l160 1008h231l-159 -1008q-34 -217 -156 -327.5t-301 -110.5q-73 0 -139 16z" />
    <glyph glyph-name="Jcircumflex" unicode="&#x134;" horiz-adv-x="720" 
d="M584 1851h186l188 -303h-167l-134 170l-184 -170h-172zM8 213q43 -12 98 -12q91 0 152 58.5t80 166.5l160 1008h231l-160 -1008q-34 -217 -156 -327.5t-300 -110.5q-74 0 -140 16z" />
    <glyph glyph-name="jcircumflex" unicode="&#x135;" horiz-adv-x="491" 
d="M309 1450h187l188 -303h-168l-133 170l-184 -170h-172zM-125 -389l-55 2l26 197q27 -3 35 -3q76 0 122 49.5t60 139.5l164 1036h224l-170 -1065q-25 -160 -136.5 -258t-269.5 -98z" />
    <glyph glyph-name="uni0136" unicode="&#x136;" horiz-adv-x="1339" 
d="M1434 1434l-652 -580l465 -854h-295l-358 686l-211 -188l-80 -498h-240l228 1434h239l-94 -600l668 600h330zM297 -389l131 303h248l-221 -303h-158z" />
    <glyph glyph-name="uni0137" unicode="&#x137;" horiz-adv-x="1124" 
d="M1157 1032l-493 -407l362 -625h-266l-273 479l-153 -125l-55 -354h-226l230 1450h225l-127 -803l475 385h301zM186 -389l131 303h248l-221 -303h-158z" />
    <glyph glyph-name="kgreenlandic" unicode="&#x138;" horiz-adv-x="1124" 
d="M1157 1032l-493 -407l362 -625h-266l-273 479l-151 -125l-57 -354h-226l164 1032h225l-61 -383l477 383h299z" />
    <glyph glyph-name="Lacute" unicode="&#x139;" horiz-adv-x="1091" 
d="M322 1548l182 303h266l-291 -303h-157zM63 0l228 1434h239l-194 -1223h686l-35 -211h-924z" />
    <glyph glyph-name="lacute" unicode="&#x13a;" horiz-adv-x="487" 
d="M301 1548l182 303h267l-291 -303h-158zM53 0l230 1450h223l-230 -1450h-223z" />
    <glyph glyph-name="uni013B" unicode="&#x13b;" horiz-adv-x="1091" 
d="M63 0l228 1434h239l-194 -1223h686l-35 -211h-924zM270 -389l131 303h248l-221 -303h-158z" />
    <glyph glyph-name="uni013C" unicode="&#x13c;" horiz-adv-x="487" 
d="M53 0l230 1450h223l-230 -1450h-223zM-104 -389l131 303h247l-221 -303h-157z" />
    <glyph glyph-name="Lcaron" unicode="&#x13d;" horiz-adv-x="1091" 
d="M594 1147l123 371h219l-211 -371h-131zM63 0l228 1434h239l-194 -1223h686l-35 -211h-924z" />
    <glyph glyph-name="lcaron" unicode="&#x13e;" horiz-adv-x="694" 
d="M545 1147l123 371h219l-211 -371h-131zM53 0l230 1450h223l-230 -1450h-223z" />
    <glyph glyph-name="Ldot" unicode="&#x13f;" horiz-adv-x="1091" 
d="M63 0l228 1434h239l-194 -1223h686l-35 -211h-924zM842 573q-63 0 -104.5 41t-41.5 103t41.5 102.5t104.5 40.5q62 0 102.5 -41t40.5 -102q0 -62 -41 -103t-102 -41z" />
    <glyph glyph-name="ldot" unicode="&#x140;" horiz-adv-x="868" 
d="M53 0l230 1450h223l-230 -1450h-223zM627 569q-63 0 -104.5 41t-41.5 103t41.5 102.5t104.5 40.5q62 0 103.5 -41t41.5 -102t-41.5 -102.5t-103.5 -41.5z" />
    <glyph glyph-name="Lslash" unicode="&#x141;" horiz-adv-x="1091" 
d="M336 211h686l-35 -211h-924l84 532l-182 -79l31 192l182 80l113 709h239l-94 -598l365 159l-31 -192l-364 -160z" />
    <glyph glyph-name="lslash" unicode="&#x142;" horiz-adv-x="688" 
d="M672 989l-31 -194l-192 -84l-113 -711h-223l96 606l-193 -84l31 195l193 84l102 649h223l-86 -545z" />
    <glyph glyph-name="Nacute" unicode="&#x143;" horiz-adv-x="1421" 
d="M772 1548l182 303h267l-291 -303h-158zM63 0l228 1434h237l506 -1055l166 1055h230l-228 -1434h-239l-504 1053l-168 -1053h-228z" />
    <glyph glyph-name="nacute" unicode="&#x144;" horiz-adv-x="1198" 
d="M592 1147l182 303h266l-290 -303h-158zM53 0l164 1032h223l-26 -172q67 87 162.5 138t205.5 51q166 0 254 -101.5t60 -267.5l-107 -680h-223l100 629q15 98 -33 158.5t-145 60.5q-129 0 -219 -104.5t-121 -290.5l-72 -453h-223z" />
    <glyph glyph-name="uni0145" unicode="&#x145;" horiz-adv-x="1421" 
d="M63 0l228 1434h237l506 -1055l166 1055h230l-228 -1434h-239l-504 1053l-168 -1053h-228zM369 -389l131 303h248l-222 -303h-157z" />
    <glyph glyph-name="uni0146" unicode="&#x146;" horiz-adv-x="1198" 
d="M53 0l164 1032h223l-26 -172q67 87 162.5 138t205.5 51q166 0 254 -101.5t60 -267.5l-107 -680h-223l100 629q15 98 -33 158.5t-145 60.5q-129 0 -219 -104.5t-121 -290.5l-72 -453h-223zM252 -389l131 303h248l-221 -303h-158z" />
    <glyph glyph-name="Ncaron" unicode="&#x147;" horiz-adv-x="1421" 
d="M786 1548l-188 303h162l135 -168l182 168h178l-282 -303h-187zM63 0l228 1434h237l506 -1055l166 1055h230l-228 -1434h-239l-504 1053l-168 -1053h-228z" />
    <glyph glyph-name="ncaron" unicode="&#x148;" horiz-adv-x="1198" 
d="M606 1147l-188 303h162l135 -168l182 168h178l-282 -303h-187zM53 0l164 1032h223l-26 -172q67 87 162.5 138t205.5 51q166 0 254 -101.5t60 -267.5l-107 -680h-223l100 629q15 98 -33 158.5t-145 60.5q-129 0 -219 -104.5t-121 -290.5l-72 -453h-223z" />
    <glyph glyph-name="napostrophe" unicode="&#x149;" horiz-adv-x="1204" 
d="M236 1147l122 371h222l-213 -371h-131zM59 0l164 1032h223l-26 -172q67 87 162.5 138t205.5 51q166 0 254 -101.5t60 -267.5l-107 -680h-223l100 629q15 98 -33 158.5t-145 60.5q-129 0 -219 -104.5t-121 -290.5l-71 -453h-224z" />
    <glyph glyph-name="Eng" unicode="&#x14a;" horiz-adv-x="1421" 
d="M1366 1032l-27 -166l-137 -866l-12 -72q-25 -167 -154 -267t-311 -87l33 199q94 -7 144 39.5t69 156.5l2 13l-514 1071l-168 -1053h-228l228 1434h250l493 -1055l166 1055h230z" />
    <glyph glyph-name="eng" unicode="&#x14b;" horiz-adv-x="1198" 
d="M782 1049q166 0 254 -101.5t60 -267.5l-107 -680l-8 -51q-23 -150 -140.5 -244t-283.5 -94q-25 0 -39 2l27 197h35q157 0 186 196l74 465h2l24 158q15 98 -33 158.5t-145 60.5q-129 0 -219 -104.5t-121 -290.5l-72 -453h-223l164 1032h223l-26 -172q67 87 162.5 138
t205.5 51z" />
    <glyph glyph-name="Omacron" unicode="&#x14c;" horiz-adv-x="1595" 
d="M690 1604l27 176h561l-29 -176h-559zM754 -16q-188 0 -337 80.5t-232 223.5t-83 322q0 181 60.5 337t166.5 266.5t255.5 173.5t322.5 63q139 0 260 -47.5t206 -130.5t134 -199.5t49 -249.5q0 -243 -103 -434.5t-286 -298t-413 -106.5zM786 195q146 0 267 79.5
t190.5 218.5t69.5 306q0 197 -122.5 319.5t-318.5 122.5q-146 0 -266.5 -80t-189 -219t-68.5 -307q0 -197 120.5 -318.5t317.5 -121.5z" />
    <glyph glyph-name="omacron" unicode="&#x14d;" horiz-adv-x="1202" 
d="M434 1202l27 176h561l-29 -176h-559zM547 -16q-207 0 -341 128.5t-134 325.5q0 173 76.5 312.5t212.5 219t305 79.5q206 0 340.5 -128.5t134.5 -326.5q0 -172 -77 -311.5t-213 -219t-304 -79.5zM569 178q152 0 248 110.5t96 282.5q0 124 -75.5 203.5t-194.5 79.5
q-153 0 -248.5 -110t-95.5 -283q0 -124 75.5 -203.5t194.5 -79.5z" />
    <glyph glyph-name="Obreve" unicode="&#x14e;" horiz-adv-x="1595" 
d="M961 1542q-119 0 -185 76.5t-47 193.5h170q-9 -52 15 -85t71 -33q48 0 84 33t43 85h170q-20 -117 -110.5 -193.5t-210.5 -76.5zM754 -16q-188 0 -337 80.5t-232 223.5t-83 322q0 181 60.5 337t166.5 266.5t255.5 173.5t322.5 63q139 0 260 -47.5t206 -130.5t134 -199.5
t49 -249.5q0 -243 -103 -434.5t-286 -298t-413 -106.5zM786 195q146 0 267 79.5t190.5 218.5t69.5 306q0 197 -122.5 319.5t-318.5 122.5q-146 0 -266.5 -80t-189 -219t-68.5 -307q0 -197 120.5 -318.5t317.5 -121.5z" />
    <glyph glyph-name="obreve" unicode="&#x14f;" horiz-adv-x="1202" 
d="M705 1141q-119 0 -185 76.5t-47 193.5h170q-9 -53 15 -86t71 -33q48 0 84 33.5t43 85.5h170q-20 -117 -110.5 -193.5t-210.5 -76.5zM547 -16q-207 0 -341 128.5t-134 325.5q0 173 76.5 312.5t212.5 219t305 79.5q206 0 340.5 -128.5t134.5 -326.5q0 -172 -77 -311.5
t-213 -219t-304 -79.5zM569 178q152 0 248 110.5t96 282.5q0 124 -75.5 203.5t-194.5 79.5q-153 0 -248.5 -110t-95.5 -283q0 -124 75.5 -203.5t194.5 -79.5z" />
    <glyph glyph-name="Ohungarumlaut" unicode="&#x150;" horiz-adv-x="1595" 
d="M690 1548l182 303h201l-201 -303h-182zM1001 1548l185 303h209l-211 -303h-183zM754 -16q-188 0 -337 80.5t-232 223.5t-83 322q0 181 60.5 337t166.5 266.5t255.5 173.5t322.5 63q139 0 260 -47.5t206 -130.5t134 -199.5t49 -249.5q0 -243 -103 -434.5t-286 -298
t-413 -106.5zM786 195q146 0 267 79.5t190.5 218.5t69.5 306q0 197 -122.5 319.5t-318.5 122.5q-146 0 -266.5 -80t-189 -219t-68.5 -307q0 -197 120.5 -318.5t317.5 -121.5z" />
    <glyph glyph-name="ohungarumlaut" unicode="&#x151;" horiz-adv-x="1202" 
d="M432 1147l182 303h201l-201 -303h-182zM743 1147l185 303h209l-211 -303h-183zM547 -16q-207 0 -341 128.5t-134 325.5q0 173 76.5 312.5t212.5 219t305 79.5q206 0 340.5 -128.5t134.5 -326.5q0 -172 -77 -311.5t-213 -219t-304 -79.5zM569 178q152 0 248 110.5
t96 282.5q0 124 -75.5 203.5t-194.5 79.5q-153 0 -248.5 -110t-95.5 -283q0 -124 75.5 -203.5t194.5 -79.5z" />
    <glyph glyph-name="OE" unicode="&#x152;" horiz-adv-x="2324" 
d="M2341 1225h-696l-58 -361h561l-34 -209h-560l-69 -444h717l-33 -211h-959l21 133q-203 -149 -477 -149q-188 0 -337 80.5t-232 223.5t-83 322q0 181 60.5 337t166.5 266.5t255.5 173.5t322.5 63q153 0 282 -56t218 -157l31 197h936zM786 195q146 0 267 79.5t190.5 218.5
t69.5 306q0 197 -122.5 319.5t-318.5 122.5q-146 0 -266.5 -80t-189 -219t-68.5 -307q0 -197 120.5 -318.5t317.5 -121.5z" />
    <glyph glyph-name="oe" unicode="&#x153;" horiz-adv-x="1996" 
d="M1919 467h-789v-6q0 -132 74 -209.5t197 -77.5q100 0 168 45t96 131l211 -53q-44 -141 -181.5 -227t-320.5 -86q-126 0 -225 51t-160 143q-81 -92 -195 -143t-247 -51q-207 0 -341 128.5t-134 325.5q0 173 76.5 312.5t212.5 219t305 79.5q124 0 226.5 -49.5t164.5 -137.5
q162 187 428 187q107 0 195 -35t145 -94t88 -135t31 -160q0 -74 -25 -158zM1456 872q-108 0 -186.5 -64t-114.5 -175h559q6 105 -65 172t-193 67zM569 178q152 0 248 110.5t96 282.5q0 124 -75.5 203.5t-194.5 79.5q-153 0 -248.5 -110t-95.5 -283q0 -124 75.5 -203.5
t194.5 -79.5z" />
    <glyph glyph-name="Racute" unicode="&#x154;" horiz-adv-x="1314" 
d="M1085 1851l-290 -303h-158l182 303h266zM1227 1083q0 -148 -83 -263.5t-224 -170.5l290 -649h-278l-266 608h-265l-96 -608h-239l225 1434h536q186 0 293 -95t107 -256zM500 1225l-66 -406h262q132 0 207.5 62.5t75.5 171.5q0 82 -56.5 127t-160.5 45h-262z" />
    <glyph glyph-name="racute" unicode="&#x155;" horiz-adv-x="811" 
d="M451 1147l182 303h266l-291 -303h-157zM823 815q-55 25 -127 25q-55 0 -109 -27t-104 -80t-88.5 -143t-56.5 -205l-62 -385h-223l164 1032h223l-32 -205q50 93 149.5 157.5t198.5 64.5q68 0 114 -19z" />
    <glyph glyph-name="uni0156" unicode="&#x156;" horiz-adv-x="1314" 
d="M1227 1083q0 -148 -83 -263.5t-224 -170.5l290 -649h-278l-266 608h-265l-96 -608h-239l225 1434h536q186 0 293 -95t107 -256zM500 1225l-66 -406h262q132 0 207.5 62.5t75.5 171.5q0 82 -56.5 127t-160.5 45h-262zM301 -389l131 303h248l-221 -303h-158z" />
    <glyph glyph-name="uni0157" unicode="&#x157;" horiz-adv-x="811" 
d="M823 815q-55 25 -127 25q-55 0 -109 -27t-104 -80t-88.5 -143t-56.5 -205l-62 -385h-223l164 1032h223l-32 -205q50 93 149.5 157.5t198.5 64.5q68 0 114 -19zM-106 -389l131 303h247l-221 -303h-157z" />
    <glyph glyph-name="Rcaron" unicode="&#x158;" horiz-adv-x="1314" 
d="M836 1548h-187l-188 303h162l135 -168l182 168h178zM1227 1083q0 -148 -83 -263.5t-224 -170.5l290 -649h-278l-266 608h-265l-96 -608h-239l225 1434h536q186 0 293 -95t107 -256zM500 1225l-66 -406h262q132 0 207.5 62.5t75.5 171.5q0 82 -56.5 127t-160.5 45h-262z
" />
    <glyph glyph-name="rcaron" unicode="&#x159;" horiz-adv-x="811" 
d="M463 1147l-189 303h162l135 -168l183 168h178l-283 -303h-186zM823 815q-55 25 -127 25q-55 0 -109 -27t-104 -80t-88.5 -143t-56.5 -205l-62 -385h-223l164 1032h223l-32 -205q50 93 149.5 157.5t198.5 64.5q68 0 114 -19z" />
    <glyph glyph-name="Sacute" unicode="&#x15a;" horiz-adv-x="1210" 
d="M664 1548l182 303h266l-291 -303h-157zM575 -16q-230 0 -377.5 124.5t-150.5 327.5l227 49q-6 -133 83 -212.5t231 -79.5q131 0 212 63.5t81 165.5q0 46 -23.5 82.5t-63 60.5t-91 44.5t-108 39.5t-113 40.5t-108 51.5t-91 68t-63 95.5t-23.5 129.5q0 118 69.5 213.5
t187.5 149t259 53.5q219 0 358 -102t146 -269l-230 -65q-4 104 -82.5 165.5t-204.5 61.5q-122 0 -190 -50.5t-68 -135.5q0 -41 23.5 -72t63.5 -51.5t92 -38t109.5 -35.5t114.5 -39t109 -53t92 -74t63.5 -105.5t23.5 -142.5q0 -200 -156.5 -330t-401.5 -130z" />
    <glyph glyph-name="sacute" unicode="&#x15b;" horiz-adv-x="952" 
d="M469 1147l182 303h267l-291 -303h-158zM430 -16q-91 0 -166.5 26.5t-125 72.5t-79.5 103.5t-39 122.5l189 51q8 -92 72 -145t172 -53q86 0 137 40.5t51 106.5q0 39 -28 67t-72.5 45t-98.5 33t-108 37t-98.5 50t-72.5 80t-28 120q0 134 110 221t287 87q149 0 256.5 -74.5
t122.5 -200.5l-196 -57q-7 77 -66.5 118.5t-136.5 41.5q-74 0 -120 -31t-46 -82q0 -31 22 -53.5t58 -36t81.5 -28.5t93.5 -28.5t93.5 -37.5t81.5 -53.5t58 -79.5t22 -113q0 -153 -119 -251.5t-307 -98.5z" />
    <glyph glyph-name="Scircumflex" unicode="&#x15c;" horiz-adv-x="1210" 
d="M723 1851h186l189 -303h-168l-133 170l-185 -170h-172zM575 -16q-230 0 -377.5 124.5t-150.5 327.5l227 49q-6 -133 83 -212.5t231 -79.5q131 0 212 63.5t81 165.5q0 46 -23.5 82.5t-63 60.5t-91 44.5t-108 39.5t-113 40.5t-108 51.5t-91 68t-63 95.5t-23.5 129.5
q0 118 69.5 213.5t187.5 149t259 53.5q219 0 358 -102t146 -269l-230 -65q-4 104 -82.5 165.5t-204.5 61.5q-122 0 -190 -50.5t-68 -135.5q0 -41 23.5 -72t63.5 -51.5t92 -38t109.5 -35.5t114.5 -39t109 -53t92 -74t63.5 -105.5t23.5 -142.5q0 -200 -156.5 -330t-401.5 -130
z" />
    <glyph glyph-name="scircumflex" unicode="&#x15d;" horiz-adv-x="952" 
d="M528 1450h187l188 -303h-168l-133 170l-184 -170h-172zM430 -16q-91 0 -166.5 26.5t-125 72.5t-79.5 103.5t-39 122.5l189 51q8 -92 72 -145t172 -53q86 0 137 40.5t51 106.5q0 39 -28 67t-72.5 45t-98.5 33t-108 37t-98.5 50t-72.5 80t-28 120q0 134 110 221t287 87
q149 0 256.5 -74.5t122.5 -200.5l-196 -57q-7 77 -66.5 118.5t-136.5 41.5q-74 0 -120 -31t-46 -82q0 -31 22 -53.5t58 -36t81.5 -28.5t93.5 -28.5t93.5 -37.5t81.5 -53.5t58 -79.5t22 -113q0 -153 -119 -251.5t-307 -98.5z" />
    <glyph glyph-name="Scedilla" unicode="&#x15e;" horiz-adv-x="1210" 
d="M442 1055q0 -41 23.5 -72t63.5 -51.5t92 -38t109.5 -35.5t114.5 -39t109 -53t92 -74t63.5 -105.5t23.5 -142.5q0 -191 -141.5 -318.5t-368.5 -139.5l-174 -287h-267l281 293q-187 30 -300 148.5t-116 295.5l227 49q-6 -133 83 -212.5t231 -79.5q131 0 212 63.5t81 165.5
q0 46 -23.5 82.5t-63 60.5t-91 44.5t-108 39.5t-113 40.5t-108 51.5t-91 68t-63 95.5t-23.5 129.5q0 118 69.5 213.5t187.5 149t259 53.5q219 0 358 -102t146 -269l-230 -65q-4 104 -82.5 165.5t-204.5 61.5q-122 0 -190 -50.5t-68 -135.5z" />
    <glyph glyph-name="scedilla" unicode="&#x15f;" horiz-adv-x="952" 
d="M346 764q0 -31 22 -53.5t58 -36t81.5 -28.5t93.5 -28.5t93.5 -37.5t81.5 -53.5t58 -79.5t22 -113q0 -139 -101.5 -235t-267.5 -113l-174 -287h-266l281 295q-134 25 -214 112.5t-94 202.5l189 51q8 -92 72 -145t172 -53q86 0 137 40.5t51 106.5q0 39 -28 67t-72.5 45
t-98.5 33t-108 37t-98.5 50t-72.5 80t-28 120q0 134 110 221t287 87q149 0 256.5 -74.5t122.5 -200.5l-196 -57q-7 77 -66.5 118.5t-136.5 41.5q-74 0 -120 -31t-46 -82z" />
    <glyph glyph-name="Scaron" unicode="&#x160;" horiz-adv-x="1210" 
d="M676 1548l-189 303h162l135 -168l183 168h178l-283 -303h-186zM575 -16q-230 0 -377.5 124.5t-150.5 327.5l227 49q-6 -133 83 -212.5t231 -79.5q131 0 212 63.5t81 165.5q0 46 -23.5 82.5t-63 60.5t-91 44.5t-108 39.5t-113 40.5t-108 51.5t-91 68t-63 95.5t-23.5 129.5
q0 118 69.5 213.5t187.5 149t259 53.5q219 0 358 -102t146 -269l-230 -65q-4 104 -82.5 165.5t-204.5 61.5q-122 0 -190 -50.5t-68 -135.5q0 -41 23.5 -72t63.5 -51.5t92 -38t109.5 -35.5t114.5 -39t109 -53t92 -74t63.5 -105.5t23.5 -142.5q0 -200 -156.5 -330t-401.5 -130
z" />
    <glyph glyph-name="scaron" unicode="&#x161;" horiz-adv-x="952" 
d="M483 1147l-188 303h162l135 -168l182 168h178l-282 -303h-187zM430 -16q-91 0 -166.5 26.5t-125 72.5t-79.5 103.5t-39 122.5l189 51q8 -92 72 -145t172 -53q86 0 137 40.5t51 106.5q0 39 -28 67t-72.5 45t-98.5 33t-108 37t-98.5 50t-72.5 80t-28 120q0 134 110 221
t287 87q149 0 256.5 -74.5t122.5 -200.5l-196 -57q-7 77 -66.5 118.5t-136.5 41.5q-74 0 -120 -31t-46 -82q0 -31 22 -53.5t58 -36t81.5 -28.5t93.5 -28.5t93.5 -37.5t81.5 -53.5t58 -79.5t22 -113q0 -153 -119 -251.5t-307 -98.5z" />
    <glyph glyph-name="uni0162" unicode="&#x162;" horiz-adv-x="1191" 
d="M184 1434h1123l-33 -209h-440l-195 -1225h-2l-182 -301h-267l287 301h-76l193 1225h-442z" />
    <glyph glyph-name="uni0163" unicode="&#x163;" horiz-adv-x="774" 
d="M492 842l-80 -504q-12 -75 20 -115.5t96 -40.5q70 0 127 25l-16 -199q-77 -24 -166 -24h-10l-174 -285h-266l299 313q-81 35 -117.5 114t-16.5 200l80 516h-180l31 190h180l49 307h223l-49 -307h266l-30 -190h-266z" />
    <glyph glyph-name="Tcaron" unicode="&#x164;" horiz-adv-x="1191" 
d="M672 1548l-189 303h162l135 -168l183 168h178l-283 -303h-186zM399 0l193 1225h-442l34 209h1123l-33 -209h-440l-195 -1225h-240z" />
    <glyph glyph-name="tcaron" unicode="&#x165;" horiz-adv-x="774" 
d="M688 1147l123 371h219l-211 -371h-131zM639 8q-77 -24 -166 -24q-154 0 -233.5 86t-51.5 256l80 516h-180l31 190h180l49 307h223l-49 -307h266l-30 -190h-266l-80 -504q-12 -75 20 -115.5t96 -40.5q70 0 127 25z" />
    <glyph glyph-name="Tbar" unicode="&#x166;" horiz-adv-x="1191" 
d="M1274 1225h-440l-54 -332h348l-30 -180h-346l-113 -713h-240l113 713h-377l31 180h375l51 332h-442l34 209h1123z" />
    <glyph glyph-name="tbar" unicode="&#x167;" horiz-adv-x="774" 
d="M758 842h-266l-39 -246h241l-24 -160h-242l-16 -98q-12 -75 20 -115.5t96 -40.5q70 0 127 25l-16 -199q-77 -24 -166 -24q-154 0 -233.5 86t-51.5 256l17 110h-176l24 160h176l39 246h-180l31 190h180l49 307h223l-49 -307h266z" />
    <glyph glyph-name="Utilde" unicode="&#x168;" horiz-adv-x="1394" 
d="M645 1581l-151 25q20 107 98 174t182 67q80 0 156 -55q5 -3 16.5 -11.5t16 -11.5l13.5 -9t15 -8.5t14.5 -5.5t17 -4t17.5 -1q76 0 103 102l151 -24q-22 -109 -98.5 -175.5t-179.5 -66.5q-81 0 -158 53q-6 5 -19 15t-18.5 14t-16 10.5t-17.5 9t-17.5 5t-21.5 2.5
q-36 0 -63 -26.5t-40 -78.5zM629 -16q-162 0 -281 70.5t-172.5 197t-28.5 285.5l144 897h225l-143 -904q-25 -153 54.5 -244t234.5 -91q151 0 247 86.5t121 244.5l144 908h229l-146 -910q-41 -258 -205 -399t-423 -141z" />
    <glyph glyph-name="utilde" unicode="&#x169;" horiz-adv-x="1198" 
d="M477 1180l-151 24q20 107 98 174.5t182 67.5q80 0 156 -55q5 -4 18.5 -13.5t18.5 -13t16 -10t18 -9t17.5 -4.5t21.5 -2q36 0 63 26.5t40 76.5l151 -25q-22 -109 -98.5 -175t-179.5 -66q-81 0 -158 53q-5 3 -19 14t-18.5 14.5t-15.5 10.5t-18 9t-17.5 4.5t-21.5 2.5
q-76 0 -103 -104zM1153 1032l-164 -1032h-223l27 172q-67 -86 -163 -137t-206 -51q-166 0 -253.5 101t-59.5 267l106 680h223l-100 -629q-15 -98 33 -158.5t145 -60.5q129 0 220 105t120 291l72 452h223z" />
    <glyph glyph-name="Umacron" unicode="&#x16a;" horiz-adv-x="1394" 
d="M592 1604l26 176h562l-29 -176h-559zM629 -16q-162 0 -281 70.5t-172.5 197t-28.5 285.5l144 897h225l-143 -904q-25 -153 54.5 -244t234.5 -91q151 0 247 86.5t121 244.5l144 908h229l-146 -910q-41 -258 -205 -399t-423 -141z" />
    <glyph glyph-name="umacron" unicode="&#x16b;" horiz-adv-x="1198" 
d="M424 1202l27 176h561l-29 -176h-559zM1153 1032l-164 -1032h-223l27 172q-67 -86 -163 -137t-206 -51q-166 0 -253.5 101t-59.5 267l106 680h223l-100 -629q-15 -98 33 -158.5t145 -60.5q129 0 220 105t120 291l72 452h223z" />
    <glyph glyph-name="Ubreve" unicode="&#x16c;" horiz-adv-x="1394" 
d="M862 1542q-119 0 -184.5 76.5t-46.5 193.5h170q-9 -52 15 -85t71 -33q48 0 84 33t43 85h170q-20 -117 -111 -193.5t-211 -76.5zM629 -16q-162 0 -281 70.5t-172.5 197t-28.5 285.5l144 897h225l-143 -904q-25 -153 54.5 -244t234.5 -91q151 0 247 86.5t121 244.5l144 908
h229l-146 -910q-41 -258 -205 -399t-423 -141z" />
    <glyph glyph-name="ubreve" unicode="&#x16d;" horiz-adv-x="1198" 
d="M694 1141q-119 0 -184.5 76.5t-46.5 193.5h170q-9 -53 15 -86t71 -33q48 0 84 33.5t43 85.5h170q-20 -117 -111 -193.5t-211 -76.5zM1153 1032l-164 -1032h-223l27 172q-67 -86 -163 -137t-206 -51q-166 0 -253.5 101t-59.5 267l106 680h223l-100 -629q-15 -98 33 -158.5
t145 -60.5q129 0 220 105t120 291l72 452h223z" />
    <glyph glyph-name="Uring" unicode="&#x16e;" horiz-adv-x="1394" 
d="M846 1511q-100 0 -166 62t-66 156t66 156.5t166 62.5q101 0 167 -62.5t66 -156.5t-66 -156t-167 -62zM846 1630q46 0 75 28t29 71q0 44 -29 72t-75 28q-43 0 -73 -28t-30 -72q0 -42 30 -70.5t73 -28.5zM629 -16q-162 0 -281 70.5t-172.5 197t-28.5 285.5l144 897h225
l-143 -904q-25 -153 54.5 -244t234.5 -91q151 0 247 86.5t121 244.5l144 908h229l-146 -910q-41 -258 -205 -399t-423 -141z" />
    <glyph glyph-name="uring" unicode="&#x16f;" horiz-adv-x="1198" 
d="M678 1110q-100 0 -166 61.5t-66 155.5t66 156.5t166 62.5q101 0 167 -62.5t66 -156.5t-66 -155.5t-167 -61.5zM678 1229q46 0 75 27.5t29 70.5q0 44 -29 72t-75 28q-43 0 -73 -28t-30 -72q0 -42 30 -70t73 -28zM1153 1032l-164 -1032h-223l27 172q-67 -86 -163 -137
t-206 -51q-166 0 -253.5 101t-59.5 267l106 680h223l-100 -629q-15 -98 33 -158.5t145 -60.5q129 0 220 105t120 291l72 452h223z" />
    <glyph glyph-name="Uhungarumlaut" unicode="&#x170;" horiz-adv-x="1394" 
d="M592 1548l182 303h201l-201 -303h-182zM903 1548l184 303h209l-211 -303h-182zM629 -16q-162 0 -281 70.5t-172.5 197t-28.5 285.5l144 897h225l-143 -904q-25 -153 54.5 -244t234.5 -91q151 0 247 86.5t121 244.5l144 908h229l-146 -910q-41 -258 -205 -399t-423 -141z
" />
    <glyph glyph-name="uhungarumlaut" unicode="&#x171;" horiz-adv-x="1198" 
d="M424 1147l182 303h201l-201 -303h-182zM735 1147l185 303h208l-210 -303h-183zM1153 1032l-164 -1032h-223l27 172q-67 -86 -163 -137t-206 -51q-166 0 -253.5 101t-59.5 267l106 680h223l-100 -629q-15 -98 33 -158.5t145 -60.5q129 0 220 105t120 291l72 452h223z" />
    <glyph glyph-name="Uogonek" unicode="&#x172;" horiz-adv-x="1394" 
d="M1174 1434h229l-146 -910q-40 -245 -189.5 -385t-385.5 -153q-92 -82 -92 -144q0 -31 21 -49t55 -18q39 0 55 8v-160q-40 -12 -111 -12q-98 0 -154.5 48t-56.5 128q0 107 107 209q-192 37 -292 185.5t-67 355.5l144 897h225l-143 -904q-25 -153 54.5 -244t234.5 -91
q151 0 247 86.5t121 244.5z" />
    <glyph glyph-name="uogonek" unicode="&#x173;" horiz-adv-x="1198" 
d="M870 -158q0 -31 21 -49t55 -18q39 0 55 8v-160q-40 -12 -110 -12q-98 0 -154.5 48t-56.5 128q0 111 113 213h-27l27 172q-67 -86 -163 -137t-206 -51q-166 0 -253.5 101t-59.5 267l106 680h223l-100 -629q-15 -98 33 -158.5t145 -60.5q129 0 220 105t120 291l72 452h223
l-164 -1032h-10q-109 -91 -109 -158z" />
    <glyph glyph-name="Wcircumflex" unicode="&#x174;" horiz-adv-x="2050" 
d="M1147 1851h186l189 -303h-168l-133 170l-185 -170h-172zM381 0l-199 1434h248l121 -1151l489 1151h267l125 -1151l487 1151h248l-651 -1434h-254l-140 1094l-491 -1094h-250z" />
    <glyph glyph-name="wcircumflex" unicode="&#x175;" horiz-adv-x="1593" 
d="M854 1450h186l189 -303h-168l-133 170l-185 -170h-172zM291 0l-156 1032h225l84 -721l334 721h209l107 -721l309 721h227l-483 -1032h-205l-108 719l-340 -719h-203z" />
    <glyph glyph-name="Ycircumflex" unicode="&#x176;" horiz-adv-x="1247" 
d="M739 1851h187l188 -303h-168l-133 170l-184 -170h-172zM422 0l94 596l-364 838h256l260 -615l456 615h262l-628 -838l-96 -596h-240z" />
    <glyph glyph-name="ycircumflex" unicode="&#x177;" horiz-adv-x="1040" 
d="M645 1317l-184 -170h-172l282 303h187l188 -303h-168zM874 1032h228l-766 -1405h-219l225 418l-240 987h230l157 -715z" />
    <glyph glyph-name="Ydieresis" unicode="&#x178;" horiz-adv-x="1247" 
d="M625 1593q-57 0 -95 39.5t-38 96.5t38 95t95 38q60 0 99.5 -38t39.5 -95t-39.5 -96.5t-99.5 -39.5zM1008 1593q-58 0 -97 39.5t-39 96.5t39 95t97 38q59 0 98 -38t39 -95t-39.5 -96.5t-97.5 -39.5zM422 0l94 596l-364 838h256l260 -615l456 615h262l-628 -838l-96 -596
h-240z" />
    <glyph glyph-name="Zacute" unicode="&#x179;" horiz-adv-x="1224" 
d="M670 1548l182 303h266l-291 -303h-157zM-25 0l31 199l961 1026h-758l35 209h1050l-32 -199l-949 -1024h789l-33 -211h-1094z" />
    <glyph glyph-name="zacute" unicode="&#x17a;" horiz-adv-x="1009" 
d="M526 1147l183 303h266l-291 -303h-158zM-12 0l26 170l682 672h-540l30 190h834l-29 -170l-678 -672h582l-31 -190h-876z" />
    <glyph glyph-name="Zdotaccent" unicode="&#x17b;" horiz-adv-x="1224" 
d="M809 1606q-63 0 -104 41t-41 102q0 62 41 103.5t104 41.5t105 -41.5t42 -103.5q0 -60 -42 -101.5t-105 -41.5zM-25 0l31 199l961 1026h-758l35 209h1050l-32 -199l-949 -1024h789l-33 -211h-1094z" />
    <glyph glyph-name="zdotaccent" unicode="&#x17c;" horiz-adv-x="1009" 
d="M668 1204q-62 0 -104 42t-42 102q0 62 41.5 103.5t104.5 41.5t105 -41.5t42 -103.5q0 -60 -42 -102t-105 -42zM-12 0l26 170l682 672h-540l30 190h834l-29 -170l-678 -672h582l-31 -190h-876z" />
    <glyph glyph-name="Zcaron" unicode="&#x17d;" horiz-adv-x="1224" 
d="M682 1548l-188 303h161l136 -168l182 168h178l-283 -303h-186zM-25 0l31 199l961 1026h-758l35 209h1050l-32 -199l-949 -1024h789l-33 -211h-1094z" />
    <glyph glyph-name="zcaron" unicode="&#x17e;" horiz-adv-x="1009" 
d="M541 1147l-189 303h162l135 -168l182 168h179l-283 -303h-186zM-12 0l26 170l682 672h-540l30 190h834l-29 -170l-678 -672h582l-31 -190h-876z" />
    <glyph glyph-name="longs" unicode="&#x17f;" horiz-adv-x="763" 
d="M150 0l135 850h-170l28 182h170l15 88q27 171 136 267t261 96q74 0 145 -23l-45 -188q-47 20 -100 20q-67 0 -116.5 -46t-61.5 -124l-176 -1122h-221z" />
    <glyph glyph-name="florin" unicode="&#x192;" horiz-adv-x="978" 
d="M936 1292q-64 0 -107 -41t-71 -129l-29 -90h272l-28 -182h-299l-158 -504q-113 -362 -395 -362q-85 0 -146 20l43 189q49 -21 101 -21q64 0 107 42t71 130l158 506h-201l27 182h231l27 88q113 363 395 363q76 0 147 -23l-45 -188q-47 20 -100 20z" />
    <glyph glyph-name="Aringacute" unicode="&#x1fa;" horiz-adv-x="1372" 
d="M836 1511q-100 0 -166 62t-66 156q0 81 50 140.5t130 74.5l170 280h267l-285 -297q62 -25 97.5 -78t35.5 -120q0 -94 -66 -156t-167 -62zM836 1829q-43 0 -73 -28t-30 -72q0 -42 30 -70.5t73 -28.5q46 0 75 28t29 71q0 44 -29 72t-75 28zM1028 0l-74 338h-585l-183 -338
h-247l784 1434h223l332 -1434h-250zM479 545h432l-125 573z" />
    <glyph glyph-name="aringacute" unicode="&#x1fb;" horiz-adv-x="1118" 
d="M627 1110q-100 0 -166 61.5t-66 155.5q0 81 50 140.5t130 74.5l170 281h267l-285 -297q60 -25 95.5 -78.5t35.5 -120.5q0 -94 -65.5 -155.5t-165.5 -61.5zM627 1427q-45 0 -74 -28t-29 -72q0 -43 29.5 -70.5t73.5 -27.5t73 27.5t29 70.5q0 44 -29 72t-73 28zM600 1049
q205 0 320.5 -124.5t83.5 -320.5l-95 -604h-219l25 156q-54 -78 -148.5 -125t-201.5 -47q-139 0 -228.5 80t-89.5 198q0 320 526 369l222 18l2 19q13 93 -51.5 148.5t-172.5 55.5q-97 0 -164.5 -52.5t-82.5 -143.5l-199 37q33 151 167.5 243.5t305.5 92.5zM434 156
q129 0 213 77.5t115 219.5l-4 -23l10 55l-219 -22q-283 -27 -283 -178q0 -58 45 -93.5t123 -35.5z" />
    <glyph glyph-name="AEacute" unicode="&#x1fc;" horiz-adv-x="1986" 
d="M1571 1851l-291 -303h-158l183 303h266zM2001 1225h-694l-58 -361h559l-32 -209h-559l-70 -444h717l-33 -211h-959l56 352h-484l-245 -352h-265l1020 1434h1082zM592 563h371l108 684z" />
    <glyph glyph-name="aeacute" unicode="&#x1fd;" horiz-adv-x="1857" 
d="M1411 1450l-291 -303h-157l182 303h266zM1778 463h-785q-7 -132 60.5 -210.5t189.5 -78.5q101 0 176.5 46t108.5 130l203 -53q-64 -149 -202.5 -231t-320.5 -82q-133 0 -229.5 56.5t-149.5 154.5q-78 -100 -192 -155.5t-254 -55.5q-158 0 -248 74t-90 192
q0 170 141.5 273.5t403.5 103.5h201l6 41q15 95 -41 150.5t-162 55.5q-95 0 -168 -53.5t-92 -132.5l-189 39q44 141 177.5 231.5t298.5 90.5q121 0 211 -39.5t137 -114.5q161 154 397 154q107 0 192.5 -35t138 -94.5t80 -134.5t27.5 -160q0 -61 -26 -162zM1339 872
q-110 0 -191.5 -63t-121.5 -176h547q6 108 -54.5 173.5t-179.5 65.5zM428 152q128 0 216.5 76t115.5 200l6 37h-207q-139 0 -216 -53.5t-77 -135.5q0 -55 45 -89.5t117 -34.5z" />
    <glyph glyph-name="uni0218" unicode="&#x218;" horiz-adv-x="1210" 
d="M575 -16q-230 0 -377.5 124.5t-150.5 327.5l227 49q-6 -133 83 -212.5t231 -79.5q131 0 212 63.5t81 165.5q0 46 -23.5 82.5t-63 60.5t-91 44.5t-108 39.5t-113 40.5t-108 51.5t-91 68t-63 95.5t-23.5 129.5q0 118 69.5 213.5t187.5 149t259 53.5q219 0 358 -102
t146 -269l-230 -65q-4 104 -82.5 165.5t-204.5 61.5q-122 0 -190 -50.5t-68 -135.5q0 -41 23.5 -72t63.5 -51.5t92 -38t109.5 -35.5t114.5 -39t109 -53t92 -74t63.5 -105.5t23.5 -142.5q0 -200 -156.5 -330t-401.5 -130zM250 -389l131 303h248l-221 -303h-158z" />
    <glyph glyph-name="uni0219" unicode="&#x219;" horiz-adv-x="952" 
d="M430 -16q-91 0 -166.5 26.5t-125 72.5t-79.5 103.5t-39 122.5l189 51q8 -92 72 -145t172 -53q86 0 137 40.5t51 106.5q0 39 -28 67t-72.5 45t-98.5 33t-108 37t-98.5 50t-72.5 80t-28 120q0 134 110 221t287 87q149 0 256.5 -74.5t122.5 -200.5l-196 -57
q-7 77 -66.5 118.5t-136.5 41.5q-74 0 -120 -31t-46 -82q0 -31 22 -53.5t58 -36t81.5 -28.5t93.5 -28.5t93.5 -37.5t81.5 -53.5t58 -79.5t22 -113q0 -153 -119 -251.5t-307 -98.5zM115 -389l131 303h248l-222 -303h-157z" />
    <glyph glyph-name="uni021A" unicode="&#x21a;" horiz-adv-x="1191" 
d="M399 0l193 1225h-442l34 209h1123l-33 -209h-440l-195 -1225h-240zM254 -389l131 303h248l-221 -303h-158z" />
    <glyph glyph-name="uni021B" unicode="&#x21b;" horiz-adv-x="774" 
d="M639 8q-77 -24 -166 -24q-154 0 -233.5 86t-51.5 256l80 516h-180l31 190h180l49 307h223l-49 -307h266l-30 -190h-266l-80 -504q-12 -75 20 -115.5t96 -40.5q70 0 127 25zM88 -389l131 303h248l-221 -303h-158z" />
    <glyph glyph-name="uni0237" unicode="&#x237;" horiz-adv-x="491" 
d="M-125 -389l-55 2l26 197q27 -3 35 -3q76 0 122 49.5t60 139.5l164 1036h224l-170 -1065q-25 -160 -136.5 -258t-269.5 -98z" />
    <glyph glyph-name="gravecomb" unicode="&#x300;" 
d="M-31 1147h-159l-197 303h266z" />
    <glyph glyph-name="acutecomb" unicode="&#x301;" 
d="M-401 1147l182 303h266l-291 -303h-157z" />
    <glyph glyph-name="uni0302" unicode="&#x302;" 
d="M-373 1450h187l188 -303h-168l-133 170l-184 -170h-172z" />
    <glyph glyph-name="tildecomb" unicode="&#x303;" 
d="M-606 1180l-152 24q20 107 98.5 174.5t182.5 67.5q79 0 155 -55q4 -3 18.5 -13.5t19 -13.5t16 -9.5t18.5 -8.5t17.5 -4.5t21.5 -2.5q36 0 62.5 26.5t39.5 76.5l152 -25q-22 -108 -99 -174.5t-180 -66.5q-80 0 -157 53q-4 3 -16 12.5t-16.5 12.5t-14 9.5t-15 9t-14.5 6
t-17.5 4.5t-17.5 1q-75 0 -102 -104z" />
    <glyph glyph-name="uni0304" unicode="&#x304;" 
d="M-549 1202l27 176h561l-29 -176h-559z" />
    <glyph glyph-name="uni0306" unicode="&#x306;" 
d="M-279 1141q-119 0 -184.5 76.5t-46.5 193.5h170q-9 -53 15 -86t71 -33q48 0 84 33.5t43 85.5h172q-20 -117 -112 -193.5t-212 -76.5z" />
    <glyph glyph-name="uni0307" unicode="&#x307;" 
d="M-117 1204q-62 0 -103.5 41.5t-41.5 102.5q0 62 41 103.5t104 41.5t105.5 -41.5t42.5 -103.5q0 -60 -42.5 -102t-105.5 -42z" />
    <glyph glyph-name="uni0308" unicode="&#x308;" 
d="M-487 1192q-57 0 -95.5 39t-38.5 96t38.5 95t95.5 38q60 0 99.5 -38t39.5 -95t-39.5 -96t-99.5 -39zM-104 1192q-58 0 -97 39t-39 96t39 95t97 38q59 0 98 -38t39 -95t-39.5 -96t-97.5 -39z" />
    <glyph glyph-name="uni030A" unicode="&#x30a;" 
d="M-336 1110q-100 0 -165.5 61.5t-65.5 155.5t65.5 156.5t165.5 62.5q101 0 167.5 -62.5t66.5 -156.5t-66.5 -155.5t-167.5 -61.5zM-336 1229q46 0 75.5 27.5t29.5 70.5q0 44 -29.5 72t-75.5 28q-43 0 -72.5 -28t-29.5 -72q0 -42 29.5 -70t72.5 -28z" />
    <glyph glyph-name="uni030B" unicode="&#x30b;" 
d="M-655 1147l182 303h201l-201 -303h-182zM-344 1147l184 303h209l-211 -303h-182z" />
    <glyph glyph-name="uni030C" unicode="&#x30c;" 
d="M-420 1147l-188 303h162l135 -168l182 168h178l-282 -303h-187z" />
    <glyph glyph-name="uni0312" unicode="&#x312;" 
d="M47 1450l-102 -303h-240l172 303h170z" />
    <glyph glyph-name="uni0326" unicode="&#x326;" 
d="M-573 -389l131 303h247l-221 -303h-157z" />
    <glyph glyph-name="uni0327" unicode="&#x327;" 
d="M-182 2l-185 -303h-266l348 364z" />
    <glyph glyph-name="uni0328" unicode="&#x328;" 
d="M-350 -389q-98 0 -154.5 48t-56.5 128q0 58 36 119.5t97 111.5l166 -18q-109 -91 -109 -158q0 -31 21 -49t55 -18q39 0 55 8v-160q-40 -12 -110 -12z" />
    <glyph glyph-name="pi" unicode="&#x3c0;" horiz-adv-x="1286" 
d="M1077 844l-78 -475q-14 -91 16 -140t105 -49q19 0 37 2l-37 -196l-55 -2q-158 0 -238 98t-55 258l82 504h-305l-135 -844h-217l135 844h-197l31 188h1124l-28 -188h-185z" />
    <glyph glyph-name="uni0E3F" unicode="&#xe3f;" horiz-adv-x="1271" 
d="M995 784q89 -36 142 -112.5t53 -190.5q0 -219 -153.5 -350t-405.5 -131l-33 -213l-203 2l33 211h-365l228 1434h362l33 196h203l-31 -196q170 -6 268.5 -89t98.5 -225q0 -118 -68.5 -207t-161.5 -129zM727 862q129 0 196.5 57t67.5 162q0 76 -53 116t-156 40h-286
l-60 -375h291zM633 211q162 0 242.5 67t80.5 193q0 184 -251 184h-302l-69 -444h299z" />
    <glyph glyph-name="Wgrave" unicode="&#x1e80;" horiz-adv-x="2050" 
d="M1278 1548h-160l-196 303h266zM381 0l-199 1434h248l121 -1151l489 1151h267l125 -1151l487 1151h248l-651 -1434h-254l-140 1094l-491 -1094h-250z" />
    <glyph glyph-name="wgrave" unicode="&#x1e81;" horiz-adv-x="1593" 
d="M985 1147h-160l-196 303h266zM291 0l-156 1032h225l84 -721l334 721h209l107 -721l309 721h227l-483 -1032h-205l-108 719l-340 -719h-203z" />
    <glyph glyph-name="Wacute" unicode="&#x1e82;" horiz-adv-x="2050" 
d="M1087 1548l183 303h266l-291 -303h-158zM381 0l-199 1434h248l121 -1151l489 1151h267l125 -1151l487 1151h248l-651 -1434h-254l-140 1094l-491 -1094h-250z" />
    <glyph glyph-name="wacute" unicode="&#x1e83;" horiz-adv-x="1593" 
d="M795 1147l182 303h266l-291 -303h-157zM291 0l-156 1032h225l84 -721l334 721h209l107 -721l309 721h227l-483 -1032h-205l-108 719l-340 -719h-203z" />
    <glyph glyph-name="Wdieresis" unicode="&#x1e84;" horiz-adv-x="2050" 
d="M1032 1593q-57 0 -95 39.5t-38 96.5t38 95t95 38q60 0 99.5 -38t39.5 -95t-39.5 -96.5t-99.5 -39.5zM1415 1593q-58 0 -96.5 39.5t-38.5 96.5t38.5 95t96.5 38q59 0 98 -38t39 -95t-39.5 -96.5t-97.5 -39.5zM381 0l-199 1434h248l121 -1151l489 1151h267l125 -1151
l487 1151h248l-651 -1434h-254l-140 1094l-491 -1094h-250z" />
    <glyph glyph-name="wdieresis" unicode="&#x1e85;" horiz-adv-x="1593" 
d="M739 1192q-57 0 -95 39t-38 96t38 95t95 38q60 0 100 -38t40 -95t-40 -96t-100 -39zM1122 1192q-58 0 -96.5 39t-38.5 96t38.5 95t96.5 38q59 0 98.5 -38t39.5 -95t-40 -96t-98 -39zM291 0l-156 1032h225l84 -721l334 721h209l107 -721l309 721h227l-483 -1032h-205
l-108 719l-340 -719h-203z" />
    <glyph glyph-name="uni1E9E" unicode="&#x1e9e;" horiz-adv-x="1280" 
d="M805 1450q192 0 308.5 -107t113.5 -274l-322 -266q134 -22 214.5 -107.5t80.5 -208.5q0 -129 -70.5 -241.5t-188.5 -179t-253 -66.5h-252l33 211h238q109 0 187.5 76.5t78.5 183.5q0 80 -55.5 127t-151.5 47h-145l-5 137l371 314q-12 66 -71 105.5t-144 39.5
q-120 0 -209.5 -86.5t-111.5 -222.5l-148 -932h-240l148 932q36 232 202.5 375t391.5 143z" />
    <glyph glyph-name="Ygrave" unicode="&#x1ef2;" horiz-adv-x="1247" 
d="M870 1548h-159l-197 303h266zM422 0l94 596l-364 838h256l260 -615l456 615h262l-628 -838l-96 -596h-240z" />
    <glyph glyph-name="ygrave" unicode="&#x1ef3;" horiz-adv-x="1040" 
d="M702 1147h-159l-197 303h266zM874 1032h228l-766 -1405h-219l225 418l-240 987h230l157 -715z" />
    <glyph glyph-name="endash" unicode="&#x2013;" horiz-adv-x="1024" 
d="M47 496l31 192h930l-31 -192h-930z" />
    <glyph glyph-name="emdash" unicode="&#x2014;" horiz-adv-x="2048" 
d="M47 496l31 192h1954l-31 -192h-1954z" />
    <glyph glyph-name="quoteleft" unicode="&#x2018;" horiz-adv-x="507" 
d="M610 1450l-192 -463h-266l313 463h145z" />
    <glyph glyph-name="quoteright" unicode="&#x2019;" horiz-adv-x="507" 
d="M127 987l192 463h267l-314 -463h-145z" />
    <glyph glyph-name="quotesinglbase" unicode="&#x201a;" horiz-adv-x="507" 
d="M-63 -215l192 463h266l-313 -463h-145z" />
    <glyph glyph-name="quotedblleft" unicode="&#x201c;" horiz-adv-x="858" 
d="M610 1450l-192 -463h-266l313 463h145zM963 1450l-193 -463h-268l313 463h148z" />
    <glyph glyph-name="quotedblright" unicode="&#x201d;" horiz-adv-x="858" 
d="M127 987l192 463h267l-314 -463h-145zM477 987l193 463h268l-313 -463h-148z" />
    <glyph glyph-name="quotedblbase" unicode="&#x201e;" horiz-adv-x="858" 
d="M-63 -215l192 463h266l-313 -463h-145zM287 -215l192 463h269l-314 -463h-147z" />
    <glyph glyph-name="dagger" unicode="&#x2020;" horiz-adv-x="751" 
d="M260 408l90 573h-252l27 170h252l45 283h207l-45 -283h252l-27 -170h-252l-90 -573h-207z" />
    <glyph glyph-name="daggerdbl" unicode="&#x2021;" horiz-adv-x="751" 
d="M809 981h-252l-84 -528h252l-27 -170h-252l-45 -283h-206l45 283h-252l26 170h252l84 528h-252l27 170h252l45 283h207l-45 -283h252z" />
    <glyph glyph-name="bullet" unicode="&#x2022;" horiz-adv-x="972" 
d="M492 147q-173 0 -293.5 119.5t-120.5 290.5q0 169 120.5 289.5t293.5 120.5q167 0 286 -120.5t119 -289.5q0 -170 -119 -290t-286 -120z" />
    <glyph glyph-name="ellipsis" unicode="&#x2026;" horiz-adv-x="1677" 
d="M221 -16q-63 0 -104 40.5t-41 102.5t41 102.5t104 40.5t104.5 -40.5t41.5 -102.5t-41.5 -102.5t-104.5 -40.5zM780 -16q-63 0 -104 40.5t-41 102.5t41 102.5t104 40.5t104.5 -40.5t41.5 -102.5t-41.5 -102.5t-104.5 -40.5zM1339 -16q-63 0 -104 40.5t-41 102.5t41 102.5
t104 40.5t104.5 -40.5t41.5 -102.5t-41.5 -102.5t-104.5 -40.5z" />
    <glyph glyph-name="perthousand" unicode="&#x2030;" horiz-adv-x="2134" 
d="M430 729q-130 0 -207.5 84t-77.5 217q0 180 114.5 300t285.5 120q130 0 206 -83.5t76 -217.5q0 -180 -114 -300t-283 -120zM1346 1434h190l-1186 -1434h-190zM520 1292q-87 0 -141.5 -68.5t-54.5 -176.5q0 -74 35 -117t96 -43q87 0 140.5 70t53.5 178q0 73 -34 115
t-95 42zM1776 705q130 0 206 -84t76 -218q0 -179 -113.5 -299t-281.5 -120q-151 0 -229 108q-111 -108 -271 -108q-131 0 -207.5 84t-76.5 217q0 180 114 300t283 120q148 0 227 -109q112 109 273 109zM1188 141q85 0 138.5 70t53.5 178q0 73 -34 115.5t-95 42.5
q-86 0 -140 -69t-54 -177q0 -74 34.5 -117t96.5 -43zM1688 141q85 0 138.5 70t53.5 178q0 73 -34 115.5t-95 42.5q-86 0 -140.5 -69t-54.5 -177q0 -74 35 -117t97 -43z" />
    <glyph glyph-name="guilsinglleft" unicode="&#x2039;" horiz-adv-x="694" 
d="M559 125l-485 430l22 137l623 430l-37 -229l-395 -270l309 -271z" />
    <glyph glyph-name="guilsinglright" unicode="&#x203a;" horiz-adv-x="694" 
d="M16 123l37 229l396 271l-310 270l37 227l486 -430l-21 -137z" />
    <glyph glyph-name="fraction" unicode="&#x2044;" horiz-adv-x="530" 
d="M-385 0l1186 1434h186l-1186 -1434h-186z" />
    <glyph glyph-name="Euro" unicode="&#x20ac;" horiz-adv-x="1636" 
d="M920 195q148 0 254.5 76.5t152.5 211.5l236 -51q-75 -212 -253 -330t-423 -118q-149 0 -275 54t-215 165.5t-116 265.5h-207l24 164h170q3 94 21 176h-162l25 166h186q98 229 303 352t446 123q250 0 405 -127t159 -340l-244 -51q-7 144 -104 226.5t-250 82.5
q-150 0 -270.5 -68.5t-188.5 -197.5h612l-78 -166h-596q-18 -79 -18 -176h524l-75 -164h-426q41 -131 143 -202.5t240 -71.5z" />
    <glyph glyph-name="uni20BF" unicode="&#x20bf;" horiz-adv-x="1275" 
d="M995 784q89 -36 142 -112.5t53 -190.5q0 -219 -153.5 -350t-405.5 -131l-33 -213l-203 2l33 211h-365l228 1434h362l33 196h203l-31 -196q170 -6 268.5 -89t98.5 -225q0 -118 -68.5 -207t-161.5 -129zM727 862q129 0 196.5 57t67.5 162q0 76 -53 116t-156 40h-286
l-60 -375h291zM633 211q162 0 242.5 67t80.5 193q0 184 -251 184h-302l-69 -444h299z" />
    <glyph glyph-name="uni2116" unicode="&#x2116;" horiz-adv-x="2551" 
d="M1923 395q-205 0 -331 127t-126 326q0 128 49.5 242t133.5 195t199.5 128t244.5 47q204 0 329.5 -127t125.5 -327q0 -170 -84 -310.5t-227.5 -220.5t-313.5 -80zM63 0l228 1434h250l493 -1055l166 1055h230l-228 -1434h-252l-491 1053l-168 -1053h-228zM1954 590
q156 0 261 112.5t105 282.5q0 126 -70 203.5t-190 77.5q-156 0 -260 -113t-104 -283q0 -126 69 -203t189 -77zM1399 16l31 193h931l-30 -193h-932z" />
    <glyph glyph-name="uni2117" unicode="&#x2117;" horiz-adv-x="1622" 
d="M852 -16q-156 0 -292 55.5t-233 152.5t-152.5 233t-55.5 292t55.5 292t152.5 233t233 152.5t292 55.5t292.5 -55.5t233.5 -152.5t153 -233t56 -292t-56 -292t-153 -233t-233.5 -152.5t-292.5 -55.5zM852 111q170 0 307.5 79t215 217.5t77.5 309.5t-77.5 309.5t-215 217.5
t-307.5 79t-307.5 -79t-215 -217.5t-77.5 -309.5t77.5 -309.5t215 -217.5t307.5 -79zM864 653h-147v-303h-137l-2 776h286q113 0 184.5 -66t71.5 -171q0 -104 -71.5 -170t-184.5 -66zM717 1004v-226h137q60 0 93.5 29.5t33.5 81.5q0 54 -33.5 84.5t-93.5 30.5h-137z" />
    <glyph glyph-name="trademark" unicode="&#x2122;" horiz-adv-x="1490" 
d="M223 717v588h-211v129h578v-129h-213v-588h-154zM662 717v717h169l211 -504l215 504h166v-717h-139v436l-184 -436h-111l-186 436v-436h-141z" />
    <glyph glyph-name="uni2126" unicode="&#x2126;" horiz-adv-x="1505" 
d="M1483 872q0 -207 -110 -380.5t-292 -280.5h283l-33 -211h-508l33 211l10 63q168 91 270.5 244.5t102.5 327.5q0 178 -100.5 288.5t-266.5 110.5q-217 0 -367.5 -158t-150.5 -389q0 -128 57 -243t158 -181l-10 -63h2l-35 -211h-508l33 211h293q-109 83 -170 206.5
t-61 270.5q0 125 40.5 242t114.5 210.5t172 163.5t218 108t247 38q257 0 417.5 -162.5t160.5 -415.5z" />
    <glyph glyph-name="oneeighth" unicode="&#x215b;" horiz-adv-x="1654" 
d="M133 0l1186 1434h186l-1186 -1434h-186zM246 645l96 612q-102 -62 -182 -77l24 149q93 22 215 105h127l-125 -789h-155zM1223 -8q-113 0 -185.5 57.5t-72.5 153.5q0 76 49 137.5t125 83.5q-38 20 -60 58t-22 83q0 95 85.5 163.5t209.5 68.5q101 0 163 -53.5t62 -133.5
q0 -61 -37 -111t-98 -75q53 -17 83.5 -61.5t30.5 -102.5q0 -119 -98 -193.5t-235 -74.5zM1303 487q52 0 86 29t34 74q0 37 -25.5 58.5t-68.5 21.5q-54 0 -87.5 -30t-33.5 -77q0 -34 25.5 -55t69.5 -21zM1243 127q66 0 107 34.5t41 90.5q0 42 -30 67t-83 25q-65 0 -106.5 -34
t-41.5 -89q0 -43 30.5 -68.5t82.5 -25.5z" />
    <glyph glyph-name="threeeighths" unicode="&#x215c;" horiz-adv-x="1798" 
d="M367 637q-122 0 -194.5 64t-66.5 169l156 25q3 -51 38.5 -82t90.5 -31q68 0 112 39.5t44 100.5q0 46 -30.5 74t-82.5 28q-50 0 -94 -27l-49 111l233 182h-329l24 144h526l-22 -144l-219 -162q99 3 156 -48t57 -144q0 -133 -98 -216t-252 -83zM229 0l1186 1434h187
l-1186 -1434h-187zM1366 -8q-113 0 -185.5 57.5t-72.5 153.5q0 76 49 137.5t125 83.5q-38 20 -60 58t-22 83q0 95 85.5 163.5t209.5 68.5q101 0 163 -53.5t62 -133.5q0 -61 -37 -111t-98 -75q53 -17 84 -61.5t31 -102.5q0 -119 -98.5 -193.5t-235.5 -74.5zM1446 487
q52 0 86.5 29t34.5 74q0 37 -25.5 58.5t-68.5 21.5q-54 0 -87.5 -30t-33.5 -77q0 -34 25 -55t69 -21zM1386 127q66 0 107 34.5t41 90.5q0 42 -30 67t-83 25q-65 0 -106 -34t-41 -89q0 -43 30 -68.5t82 -25.5z" />
    <glyph glyph-name="fiveeighths" unicode="&#x215d;" horiz-adv-x="1798" 
d="M369 637q-119 0 -189 59t-71 160l155 27q3 -46 35.5 -73.5t85.5 -27.5q65 0 107.5 42t42.5 106q0 50 -31 79t-86 29q-85 0 -152 -73l-119 24l138 445h440l-23 -146h-319l-57 -174q68 55 157 55q102 0 163 -60t61 -159q0 -139 -95.5 -226t-242.5 -87zM250 0l1186 1434h186
l-1186 -1434h-186zM1366 -8q-113 0 -185.5 57.5t-72.5 153.5q0 76 49 137.5t125 83.5q-38 20 -60 58t-22 83q0 95 85.5 163.5t209.5 68.5q101 0 163 -53.5t62 -133.5q0 -61 -37 -111t-98 -75q53 -17 84 -61.5t31 -102.5q0 -119 -98.5 -193.5t-235.5 -74.5zM1446 487
q52 0 86.5 29t34.5 74q0 37 -25.5 58.5t-68.5 21.5q-54 0 -87.5 -30t-33.5 -77q0 -34 25 -55t69 -21zM1386 127q66 0 107 34.5t41 90.5q0 42 -30 67t-83 25q-65 0 -106 -34t-41 -89q0 -43 30 -68.5t82 -25.5z" />
    <glyph glyph-name="seveneighths" unicode="&#x215e;" horiz-adv-x="1634" 
d="M74 0l1186 1434h186l-1186 -1434h-186zM141 645q171 370 426 643h-405l22 146h570l-23 -146q-284 -317 -426 -643h-164zM1200 -8q-112 0 -185 57.5t-73 153.5q0 75 49.5 137t124.5 84q-38 20 -60 58t-22 83q0 95 85.5 163.5t209.5 68.5q102 0 163.5 -53.5t61.5 -133.5
q0 -60 -36.5 -110.5t-96.5 -75.5q52 -17 82.5 -62t30.5 -102q0 -119 -98 -193.5t-236 -74.5zM1280 487q53 0 87 28.5t34 74.5q0 37 -25.5 58.5t-66.5 21.5q-54 0 -87.5 -30t-33.5 -77q0 -34 25 -55t67 -21zM1223 127q66 0 105.5 34.5t39.5 90.5q0 42 -29 67t-82 25
q-66 0 -106.5 -34t-40.5 -89q0 -43 30 -68.5t83 -25.5z" />
    <glyph glyph-name="uni2160" unicode="&#x2160;" horiz-adv-x="966" 
d="M942 1225h-223l-162 -1014h225l-34 -211h-685l33 211h221l162 1014h-223l35 209h684z" />
    <glyph glyph-name="uni2161" unicode="&#x2161;" horiz-adv-x="1507" 
d="M1483 1225h-223l-162 -1014h223l-33 -211h-1225l33 211h221l162 1014h-223l35 209h1225zM856 211l162 1014h-299l-162 -1014h299z" />
    <glyph glyph-name="uni2162" unicode="&#x2162;" horiz-adv-x="2048" 
d="M2021 1225h-221l-162 -1014h224l-33 -211h-1766l33 211h221l162 1014h-223l35 209h1765zM557 211h299l162 1014h-299zM1397 211l162 1014h-299l-162 -1014h299z" />
    <glyph glyph-name="uni2163" unicode="&#x2163;" horiz-adv-x="2312" 
d="M2288 1225h-197l-537 -1014h574l-35 -211h-2030l33 211h221l162 1014h-223l35 209h2029zM559 211h604l-213 1014h-229zM1370 283l479 942h-659z" />
    <glyph glyph-name="uni2164" unicode="&#x2164;" horiz-adv-x="1849" 
d="M1825 1225h-207l-537 -1014h533l-35 -211h-1464l32 211h543l-213 1014h-221l35 209h1567zM897 283l479 942h-659z" />
    <glyph glyph-name="uni2165" unicode="&#x2165;" horiz-adv-x="2312" 
d="M2099 1434l-194 -1223h223l-35 -211h-2030l33 211h596l-213 1014h-223l35 209h1808zM2288 1225h-222l33 209h221zM1378 1225h-659l180 -942zM1083 211h580l162 1014h-207z" />
    <glyph glyph-name="uni2166" unicode="&#x2166;" horiz-adv-x="2852" 
d="M2828 1225h-223l-162 -1014h223l-32 -211h-2571l33 211h596l-213 1014h-223l35 209h2570zM1378 1225h-659l180 -942zM1083 211h580l162 1014h-207zM1903 211h301l161 1014h-301z" />
    <glyph glyph-name="uni2167" unicode="&#x2167;" horiz-adv-x="3393" 
d="M3178 1434l-194 -1223h223l-33 -211h-3111l33 211h596l-213 1014h-223l35 209h2887zM3367 1225h-221l32 209h224zM1378 1225h-659l180 -942zM1083 211h580l162 1014h-207zM1903 211h301l161 1014h-301zM2443 211h301l162 1014h-301z" />
    <glyph glyph-name="uni2168" unicode="&#x2168;" horiz-adv-x="2281" 
d="M2052 1225l-442 -508l280 -506h207l-35 -211h-1999l33 211h221l162 1014h-223l35 209h1999l-33 -209h-205zM889 211l442 506l-282 508h-330l-162 -1014h332zM1501 911l273 314h-447zM1612 211l-174 311l-271 -311h445z" />
    <glyph glyph-name="uni2169" unicode="&#x2169;" horiz-adv-x="1695" 
d="M1466 1225l-442 -508l281 -506h206l-34 -211h-1414l33 211h207l442 506l-282 508h-207l35 209h1413l-33 -209h-205zM741 1225l174 -314l273 314h-447zM1026 211l-174 311l-270 -311h444z" />
    <glyph glyph-name="uni216A" unicode="&#x216a;" horiz-adv-x="2174" 
d="M2148 1225h-221l-162 -1014h224l-33 -211h-1893l33 211h207l440 506l-280 508h-207l35 209h1892zM741 1225l172 -312l273 312h-445zM1526 211l162 1014h-224l-442 -508l283 -506h221zM852 522l-270 -311h444z" />
    <glyph glyph-name="uni216B" unicode="&#x216b;" horiz-adv-x="2760" 
d="M2736 1225h-221l-162 -1014h221l-32 -211h-2479l33 211h207l440 506l-280 508h-207l35 209h2478zM741 1225l172 -312l273 312h-445zM1526 211l162 1014h-224l-442 -508l283 -506h221zM2114 211l161 1014h-348l-162 -1014h349zM852 522l-270 -311h444z" />
    <glyph glyph-name="uni216C" unicode="&#x216c;" horiz-adv-x="1314" 
d="M1278 432l-37 -242h-2l-29 -190h-1147l33 211h221l162 1014h-223l35 209h684l-33 -209h-221l-162 -1014h475l33 221h211z" />
    <glyph glyph-name="uni216D" unicode="&#x216d;" horiz-adv-x="1482" 
d="M899 1241q-113 0 -213.5 -42.5t-176 -120.5t-119.5 -197t-44 -263q0 -201 105.5 -312t281.5 -111q151 0 261.5 75.5t166.5 212.5l232 -51l-66 -432l-211 -2l25 156q-186 -170 -439 -170q-126 0 -234.5 39.5t-191 113.5t-129.5 191.5t-47 263.5q0 165 47 306.5t128 241.5
t187.5 171t226.5 105t245 34q262 0 385 -174l27 156l206 2l-69 -451l-246 -51q-7 145 -97 227t-241 82z" />
    <glyph glyph-name="uni216E" unicode="&#x216e;" horiz-adv-x="1619" 
d="M963 1434q181 0 320.5 -67t222.5 -204.5t83 -328.5q0 -197 -70.5 -357.5t-189.5 -263t-272 -158t-322 -55.5h-672l33 211h221l162 1014h-223l35 209h672zM752 211q90 0 173.5 20.5t160 67t132.5 114.5t89.5 170t33.5 226q0 87 -22.5 157t-62 118t-94 80t-117 46.5
t-132.5 14.5h-198l-160 -1014h197z" />
    <glyph glyph-name="uni216F" unicode="&#x216f;" horiz-adv-x="2193" 
d="M1073 344l629 1090h276l-194 -1223h223l-33 -211h-452l157 985l-567 -985h-186l-256 985l-156 -985h-451l33 211h221l162 1014h-223l35 209h497zM2169 1225h-223l32 209h224z" />
    <glyph glyph-name="arrowleft" unicode="&#x2190;" horiz-adv-x="1468" 
d="M1417 635l-31 -193h-987l308 -364l-138 -121l-489 582l674 583l108 -123l-430 -364h985z" />
    <glyph glyph-name="arrowup" unicode="&#x2191;" horiz-adv-x="1310" 
d="M1276 739l-139 -121l-308 365l-155 -985h-193l156 985l-422 -367l-102 121l675 584z" />
    <glyph glyph-name="arrowright" unicode="&#x2192;" horiz-adv-x="1468" 
d="M911 1122l492 -583l-674 -582l-111 129l422 356h-974l28 193h989l-309 371z" />
    <glyph glyph-name="arrowdown" unicode="&#x2193;" horiz-adv-x="1310" 
d="M1149 698l102 -120l-676 -584l-489 581l139 121l307 -364l156 985h193l-156 -985z" />
    <glyph glyph-name="arrowboth" unicode="&#x2194;" horiz-adv-x="2138" 
d="M1581 1122l492 -583l-674 -582l-111 129l422 356h-1311l308 -364l-138 -121l-489 582l674 583l108 -123l-430 -364h1321l-309 371z" />
    <glyph glyph-name="arrowupdn" unicode="&#x2195;" horiz-adv-x="1310" 
d="M670 -23l422 371l104 -125l-676 -583l-491 581l139 121l309 -365l209 1321l-420 -370l-104 127l674 581l491 -583l-141 -121l-307 364z" />
    <glyph glyph-name="uni2196" unicode="&#x2196;" horiz-adv-x="1208" 
d="M1081 139l-157 -135l-588 694l-80 -514h-172l129 824h825l-28 -172h-516z" />
    <glyph glyph-name="uni2197" unicode="&#x2197;" horiz-adv-x="1200" 
d="M324 1008h825l-131 -824h-170l82 514l-809 -694l-113 135l805 697l-516 -2z" />
    <glyph glyph-name="uni2198" unicode="&#x2198;" horiz-adv-x="1208" 
d="M954 825h174l-131 -825h-823l27 172h518l-588 696l158 136l585 -697z" />
    <glyph glyph-name="uni2199" unicode="&#x2199;" horiz-adv-x="1208" 
d="M1194 868l-805 -696h514l-29 -172h-821l131 825h172l-82 -518l805 697z" />
    <glyph glyph-name="partialdiff" unicode="&#x2202;" horiz-adv-x="1300" 
d="M616 1448q16 2 54 2q122 0 223.5 -41.5t176.5 -121t117 -203t42 -279.5q0 -180 -51.5 -334t-140 -260.5t-210.5 -166.5t-260 -60q-210 0 -337.5 117.5t-127.5 306.5q0 155 78.5 283t214 201t297.5 73q111 0 199 -54t119 -143q25 210 -79.5 341.5t-297.5 131.5
q-41 0 -74 -8zM596 195q142 0 242 95.5t100 235.5q0 108 -69.5 177t-182.5 69q-141 0 -240.5 -94.5t-99.5 -235.5q0 -110 68 -178.5t182 -68.5z" />
    <glyph glyph-name="uni2206" unicode="&#x2206;" horiz-adv-x="1372" 
d="M946 1434l332 -1434h-1339l784 1434h223zM293 207h694l-201 911z" />
    <glyph glyph-name="product" unicode="&#x220f;" horiz-adv-x="1361" 
d="M63 0l228 1434h1079l-227 -1434h-250l194 1225h-581l-195 -1225h-248z" />
    <glyph glyph-name="summation" unicode="&#x2211;" horiz-adv-x="1128" 
d="M4 0l33 201l543 516l-381 516l32 201h953l-33 -209h-657l317 -416l-29 -184l-450 -414h657l-33 -211h-952z" />
    <glyph glyph-name="minus" unicode="&#x2212;" horiz-adv-x="1114" 
d="M80 575l31 193h979l-31 -193h-979z" />
    <glyph glyph-name="radical" unicode="&#x221a;" horiz-adv-x="1171" 
d="M395 0l-104 598h-221l32 211h369l82 -512l530 1137h228l-690 -1434h-226z" />
    <glyph glyph-name="infinity" unicode="&#x221e;" horiz-adv-x="1906" 
d="M1483 1171q180 0 286.5 -102t106.5 -268q0 -217 -151.5 -359.5t-378.5 -142.5q-244 0 -385 236q-219 -236 -459 -236q-180 0 -288 102.5t-108 268.5q0 143 70 258t192 179t271 64q244 0 385 -233q213 233 459 233zM535 512q84 0 171 57t168 166q-45 109 -114.5 166
t-153.5 57q-131 0 -204.5 -71t-73.5 -191q0 -87 53.5 -135.5t153.5 -48.5zM1378 512q130 0 203.5 70.5t73.5 191.5q0 87 -53 135.5t-152 48.5q-83 0 -171.5 -57.5t-166.5 -165.5q45 -109 114 -166t152 -57z" />
    <glyph glyph-name="integral" unicode="&#x222b;" horiz-adv-x="622" 
d="M-78 -389l-55 2l27 197q15 -3 34 -3q76 0 122.5 49.5t60.5 139.5l172 1098q26 160 136.5 258t268.5 98l55 -2l-24 -197q-16 2 -37 2q-75 0 -120.5 -48.5t-59.5 -139.5l-174 -1098q-25 -160 -136 -258t-270 -98z" />
    <glyph glyph-name="approxequal" unicode="&#x2248;" horiz-adv-x="1216" 
d="M829 737q-108 0 -208 74q-6 5 -21.5 17t-21.5 16.5t-19.5 14t-22 13t-21 8.5t-25.5 7t-27 2q-52 0 -92.5 -37t-61.5 -107l-180 29q31 140 131.5 225.5t233.5 85.5q109 0 208 -73q4 -3 18.5 -14.5t19 -15t17.5 -12.5t19 -12t17.5 -8.5t20.5 -7.5t21.5 -4t24.5 -2
q51 0 92 36t62 105l182 -28q-32 -140 -133 -226t-234 -86zM758 287q-111 0 -207 73q-6 4 -22.5 16.5t-22 16.5t-19.5 13.5t-22.5 13t-21.5 8.5t-25.5 6.5t-26.5 1.5q-107 0 -153 -143l-181 29q31 141 132 227t235 86q108 0 205 -74q8 -6 30.5 -23t32 -23t27.5 -15.5t34 -13
t35 -3.5q51 0 91 37t63 107l182 -29q-32 -140 -132.5 -225.5t-233.5 -85.5z" />
    <glyph glyph-name="notequal" unicode="&#x2260;" horiz-adv-x="1114" 
d="M1094 788h-310l-170 -233h443l-31 -190h-553l-225 -308l-144 84l164 224h-221l31 190h330l172 233h-465l30 193h576l194 264l146 -82l-133 -182h196z" />
    <glyph glyph-name="lessequal" unicode="&#x2264;" horiz-adv-x="1132" 
d="M999 197l-915 409l33 203l1044 410l-37 -230l-753 -282l665 -281zM969 0h-979l28 193h979z" />
    <glyph glyph-name="greaterequal" unicode="&#x2265;" horiz-adv-x="1132" 
d="M39 197l37 229l751 281l-663 282l37 230l913 -410l-33 -203zM8 0l29 193h979l-29 -193h-979z" />
    <glyph glyph-name="uni2460" unicode="&#x2460;" horiz-adv-x="1640" 
d="M893 -16q-156 0 -292 55.5t-233 152.5t-152.5 233t-55.5 292t55.5 292t152.5 233t233 152.5t292 55.5t292.5 -55.5t233.5 -152.5t153 -233t56 -292t-56 -292t-153 -233t-233.5 -152.5t-292.5 -55.5zM893 111q170 0 307.5 79t215 217.5t77.5 309.5t-77.5 309.5t-215 217.5
t-307.5 79t-307.5 -79t-215 -217.5t-77.5 -309.5t77.5 -309.5t215 -217.5t307.5 -79zM756 342l96 612q-102 -62 -182 -77l22 149q91 21 217 104h127l-125 -788h-155z" />
    <glyph glyph-name="uni2461" unicode="&#x2461;" horiz-adv-x="1640" 
d="M893 -16q-156 0 -292 55.5t-233 152.5t-152.5 233t-55.5 292t55.5 292t152.5 233t233 152.5t292 55.5t292.5 -55.5t233.5 -152.5t153 -233t56 -292t-56 -292t-153 -233t-233.5 -152.5t-292.5 -55.5zM893 111q170 0 307.5 79t215 217.5t77.5 309.5t-77.5 309.5t-215 217.5
t-307.5 79t-307.5 -79t-215 -217.5t-77.5 -309.5t77.5 -309.5t215 -217.5t307.5 -79zM526 342l21 133l282 209q93 67 136 118.5t43 100.5q0 41 -26.5 65.5t-72.5 24.5q-62 0 -101.5 -44.5t-43.5 -119.5l-158 13q8 126 101.5 211.5t226.5 85.5q113 0 179.5 -59.5t66.5 -157.5
q0 -87 -57.5 -164.5t-190.5 -167.5l-150 -103h330l-22 -145h-564z" />
    <glyph glyph-name="uni2462" unicode="&#x2462;" horiz-adv-x="1640" 
d="M893 -16q-156 0 -292 55.5t-233 152.5t-152.5 233t-55.5 292t55.5 292t152.5 233t233 152.5t292 55.5t292.5 -55.5t233.5 -152.5t153 -233t56 -292t-56 -292t-153 -233t-233.5 -152.5t-292.5 -55.5zM893 111q170 0 307.5 79t215 217.5t77.5 309.5t-77.5 309.5t-215 217.5
t-307.5 79t-307.5 -79t-215 -217.5t-77.5 -309.5t77.5 -309.5t215 -217.5t307.5 -79zM786 334q-122 0 -193 63.5t-67 169.5l156 25q3 -51 38.5 -82t90.5 -31q68 0 112 39t44 100q0 46 -30.5 74.5t-82.5 28.5q-50 0 -94 -27l-49 111l233 182h-328l23 143h526l-22 -143
l-219 -162q99 3 157 -48t58 -144q0 -133 -99 -216t-254 -83z" />
    <glyph glyph-name="uni2463" unicode="&#x2463;" horiz-adv-x="1640" 
d="M893 -16q-156 0 -292 55.5t-233 152.5t-152.5 233t-55.5 292t55.5 292t152.5 233t233 152.5t292 55.5t292.5 -55.5t233.5 -152.5t153 -233t56 -292t-56 -292t-153 -233t-233.5 -152.5t-292.5 -55.5zM893 111q170 0 307.5 79t215 217.5t77.5 309.5t-77.5 309.5t-215 217.5
t-307.5 79t-307.5 -79t-215 -217.5t-77.5 -309.5t77.5 -309.5t215 -217.5t307.5 -79zM838 342l24 156h-395l22 145l463 487h181l-78 -487h98l-23 -145h-98l-24 -156h-170zM662 643h223l47 285z" />
    <glyph glyph-name="uni2464" unicode="&#x2464;" horiz-adv-x="1640" 
d="M893 -16q-156 0 -292.5 55.5t-233.5 152.5t-153 233t-56 292t56 292t153 233t233.5 152.5t292.5 55.5q155 0 291 -55.5t233 -152.5t153 -233t56 -292t-56 -292t-153 -233t-233 -152.5t-291 -55.5zM893 111q170 0 307.5 79t215 217.5t77.5 309.5t-77.5 309.5t-215 217.5
t-307.5 79t-307.5 -79t-215 -217.5t-77.5 -309.5t77.5 -309.5t215 -217.5t307.5 -79zM780 334q-119 0 -189 59t-71 160l156 27q5 -47 36.5 -74t84.5 -27q65 0 107 42t42 106q0 50 -31 79t-86 29q-84 0 -151 -73l-117 24l135 444h441l-23 -145h-319l-58 -174q68 55 158 55
q102 0 162.5 -60t60.5 -159q0 -139 -95.5 -226t-242.5 -87z" />
    <glyph glyph-name="uni2465" unicode="&#x2465;" horiz-adv-x="1640" 
d="M893 -16q-156 0 -292.5 55.5t-233.5 152.5t-153 233t-56 292t56 292t153 233t233.5 152.5t292.5 55.5q155 0 291 -55.5t233 -152.5t153 -233t56 -292t-56 -292t-153 -233t-233 -152.5t-291 -55.5zM893 111q170 0 307.5 79t215 217.5t77.5 309.5t-77.5 309.5t-215 217.5
t-307.5 79t-307.5 -79t-215 -217.5t-77.5 -309.5t77.5 -309.5t215 -217.5t307.5 -79zM883 872q106 0 171.5 -64t65.5 -165q0 -132 -98.5 -220.5t-233.5 -88.5q-126 0 -200 85t-74 226q0 115 39 211t102.5 157t142 94.5t160.5 33.5q149 0 230 -84l-94 -111q-46 49 -146 49
q-94 0 -162 -57.5t-92 -151.5q32 41 82.5 63.5t106.5 22.5zM797 479q59 0 103 37.5t54 97.5q10 58 -22.5 94.5t-93.5 36.5q-64 0 -110 -43t-46 -108q0 -51 31.5 -83t83.5 -32z" />
    <glyph glyph-name="uni2466" unicode="&#x2466;" horiz-adv-x="1640" 
d="M893 -16q-156 0 -292.5 55.5t-233.5 152.5t-153 233t-56 292t56 292t153 233t233.5 152.5t292.5 55.5q155 0 291 -55.5t233 -152.5t153 -233t56 -292t-56 -292t-153 -233t-233 -152.5t-291 -55.5zM893 111q170 0 307.5 79t215 217.5t77.5 309.5t-77.5 309.5t-215 217.5
t-307.5 79t-307.5 -79t-215 -217.5t-77.5 -309.5t77.5 -309.5t215 -217.5t307.5 -79zM575 342q166 367 424 643h-405l22 145h570l-23 -145q-286 -323 -426 -643h-162z" />
    <glyph glyph-name="uni2467" unicode="&#x2467;" horiz-adv-x="1640" 
d="M893 -16q-156 0 -292.5 55.5t-233.5 152.5t-153 233t-56 292t56 292t153 233t233.5 152.5t292.5 55.5q155 0 291 -55.5t233 -152.5t153 -233t56 -292t-56 -292t-153 -233t-233 -152.5t-291 -55.5zM893 111q170 0 307.5 79t215 217.5t77.5 309.5t-77.5 309.5t-215 217.5
t-307.5 79t-307.5 -79t-215 -217.5t-77.5 -309.5t77.5 -309.5t215 -217.5t307.5 -79zM799 334q-113 0 -185.5 57.5t-72.5 153.5q0 75 49.5 137t124.5 84q-38 20 -60 58t-22 83q0 95 85.5 163.5t209.5 68.5q102 0 163.5 -53.5t61.5 -133.5q0 -61 -37 -111t-98 -75
q53 -17 84 -61.5t31 -102.5q0 -119 -98.5 -193.5t-235.5 -74.5zM877 829q53 0 87.5 29t34.5 74q0 37 -25.5 58.5t-66.5 21.5q-55 0 -89 -30t-34 -77q0 -34 25.5 -55t67.5 -21zM819 469q66 0 107 34.5t41 90.5q0 42 -30 67t-83 25q-65 0 -106 -34t-41 -89q0 -43 30 -68.5
t82 -25.5z" />
    <glyph glyph-name="uni2468" unicode="&#x2468;" horiz-adv-x="1640" 
d="M893 -16q-156 0 -292.5 55.5t-233.5 152.5t-153 233t-56 292t56 292t153 233t233.5 152.5t292.5 55.5q155 0 291 -55.5t233 -152.5t153 -233t56 -292t-56 -292t-153 -233t-233 -152.5t-291 -55.5zM893 111q170 0 307.5 79t215 217.5t77.5 309.5t-77.5 309.5t-215 217.5
t-307.5 79t-307.5 -79t-215 -217.5t-77.5 -309.5t77.5 -309.5t215 -217.5t307.5 -79zM823 600q-107 0 -172 64t-65 165q0 133 97 221.5t232 88.5q127 0 201 -85t74 -227q0 -115 -39 -211t-103 -157t-142.5 -94t-160.5 -33q-146 0 -227 84l92 110q49 -49 146 -49
q94 0 163 57.5t93 151.5q-32 -41 -82.5 -63.5t-106.5 -22.5zM909 993q-60 0 -103 -37.5t-54 -97.5q-10 -58 22.5 -94.5t91.5 -36.5q65 0 110.5 43.5t45.5 108.5q0 51 -31 82.5t-82 31.5z" />
    <glyph glyph-name="lozenge" unicode="&#x25ca;" horiz-adv-x="1189" 
d="M414 0l-285 717l512 717h207l280 -717l-507 -717h-207zM547 199l366 518l-200 518l-369 -518z" />
    <glyph glyph-name="circle" unicode="&#x25cb;" horiz-adv-x="1640" 
d="M852 -16q-156 0 -292 55.5t-233 152.5t-152.5 233t-55.5 292t55.5 292t152.5 233t233 152.5t292 55.5t292.5 -55.5t233.5 -152.5t153 -233t56 -292t-56 -292t-153 -233t-233.5 -152.5t-292.5 -55.5zM852 111q170 0 307.5 79t215 217.5t77.5 309.5t-77.5 309.5t-215 217.5
t-307.5 79t-307.5 -79t-215 -217.5t-77.5 -309.5t77.5 -309.5t215 -217.5t307.5 -79z" />
    <glyph glyph-name="uni25CF" unicode="&#x25cf;" horiz-adv-x="1640" 
d="M856 -16q-157 0 -294 55.5t-234 152.5t-153 233t-56 292t56 292t153 233t234 152.5t294 55.5q155 0 291 -55.5t232.5 -152.5t152 -233t55.5 -292t-55.5 -292t-152 -233t-232.5 -152.5t-291 -55.5z" />
    <glyph glyph-name="uniF8FF" unicode="&#xf8ff;" horiz-adv-x="1601" 
d="M1262 545q102 0 170.5 -72t68.5 -176q0 -125 -100 -219t-227 -94q-117 0 -188 82t-52 196l27 174h-343l-26 -174q-19 -114 -114 -196t-212 -82q-103 0 -170 69.5t-67 171.5q0 128 99.5 224t225.5 96h174l56 342h-174q-102 0 -170 71t-68 175q0 127 100 222t226 95
q115 0 185.5 -83.5t51.5 -197.5l-26 -174h342l26 174q19 114 116 197.5t212 83.5q103 0 171.5 -71t68.5 -175q0 -126 -101.5 -221.5t-226.5 -95.5h-174l-56 -342h175zM426 995h174l27 174q11 71 -31.5 121.5t-114.5 50.5q-79 0 -139.5 -58.5t-60.5 -135.5q0 -64 41.5 -108
t103.5 -44zM1186 1169l-27 -174h174q78 0 139.5 59.5t61.5 137.5q0 62 -41.5 105.5t-103.5 43.5q-72 0 -132.5 -51t-70.5 -121zM637 545h342l55 342h-342zM483 262l27 174h-172q-79 0 -140 -58.5t-61 -137.5q0 -62 42 -105t104 -43q72 0 131 50t69 120zM1190 92q79 0 140 58
t61 135q0 64 -41.5 107.5t-104.5 43.5h-176l-27 -174q-11 -71 32.5 -120.5t115.5 -49.5z" />
    <glyph glyph-name="G.ss03" horiz-adv-x="1540" 
d="M735 -16q-185 0 -329.5 83t-223 228.5t-78.5 327.5q0 237 108.5 427t297.5 295t422 105q251 0 417.5 -130t172.5 -337l-246 -49q-7 140 -112.5 223.5t-264.5 83.5q-243 0 -397 -165t-154 -427q0 -203 112.5 -328.5t299.5 -125.5q174 0 300.5 98.5t166.5 263.5h-510
l33 199h759l-14 -97q-49 -310 -255.5 -492.5t-504.5 -182.5z" />
    <glyph glyph-name="Gbreve.ss03" horiz-adv-x="1540" 
d="M948 1542q-119 0 -184.5 76.5t-46.5 193.5h170q-9 -52 15 -85t71 -33q48 0 84 33t43 85h170q-20 -117 -111 -193.5t-211 -76.5zM735 -16q-185 0 -329.5 83t-223 228.5t-78.5 327.5q0 237 108.5 427t297.5 295t422 105q251 0 417.5 -130t172.5 -337l-246 -49
q-7 140 -112.5 223.5t-264.5 83.5q-243 0 -397 -165t-154 -427q0 -203 112.5 -328.5t299.5 -125.5q174 0 300.5 98.5t166.5 263.5h-510l33 199h759l-14 -97q-49 -310 -255.5 -492.5t-504.5 -182.5z" />
    <glyph glyph-name="Gcircumflex.ss03" horiz-adv-x="1540" 
d="M903 1851h187l188 -303h-168l-133 170l-184 -170h-172zM735 -16q-185 0 -329.5 83t-223 228.5t-78.5 327.5q0 237 108.5 427t297.5 295t422 105q251 0 417.5 -130t172.5 -337l-246 -49q-7 140 -112.5 223.5t-264.5 83.5q-243 0 -397 -165t-154 -427q0 -203 112.5 -328.5
t299.5 -125.5q174 0 300.5 98.5t166.5 263.5h-510l33 199h759l-14 -97q-49 -310 -255.5 -492.5t-504.5 -182.5z" />
    <glyph glyph-name="uni0122.ss03" horiz-adv-x="1540" 
d="M735 -16q-185 0 -329.5 83t-223 228.5t-78.5 327.5q0 237 108.5 427t297.5 295t422 105q251 0 417.5 -130t172.5 -337l-246 -49q-7 140 -112.5 223.5t-264.5 83.5q-243 0 -397 -165t-154 -427q0 -203 112.5 -328.5t299.5 -125.5q174 0 300.5 98.5t166.5 263.5h-510
l33 199h759l-14 -97q-49 -310 -255.5 -492.5t-504.5 -182.5zM436 -389l131 303h248l-221 -303h-158z" />
    <glyph glyph-name="Gdotaccent.ss03" horiz-adv-x="1540" 
d="M985 1606q-63 0 -104 41t-41 102q0 62 41 103.5t104 41.5t105.5 -41.5t42.5 -103.5q0 -60 -42.5 -101.5t-105.5 -41.5zM735 -16q-185 0 -329.5 83t-223 228.5t-78.5 327.5q0 237 108.5 427t297.5 295t422 105q251 0 417.5 -130t172.5 -337l-246 -49q-7 140 -112.5 223.5
t-264.5 83.5q-243 0 -397 -165t-154 -427q0 -203 112.5 -328.5t299.5 -125.5q174 0 300.5 98.5t166.5 263.5h-510l33 199h759l-14 -97q-49 -310 -255.5 -492.5t-504.5 -182.5z" />
    <glyph glyph-name="i.loclTRK" horiz-adv-x="487" 
d="M381 1204q-62 0 -103.5 41.5t-41.5 102.5q0 62 41 103.5t104 41.5t105 -41.5t42 -103.5q0 -60 -42 -102t-105 -42zM53 0l164 1032h223l-164 -1032h-223z" />
    <glyph glyph-name="r.calt" horiz-adv-x="937" 
d="M827 827q-30 7 -67 7q-121 0 -215 -111t-129 -338l-62 -385h-223l164 1032h223l-31 -196q52 92 144 152.5t186 60.5l60 -5z" />
    <glyph glyph-name="racute.calt" horiz-adv-x="937" 
d="M496 1147l182 303h266l-291 -303h-157zM827 827q-30 7 -67 7q-121 0 -215 -111t-129 -338l-62 -385h-223l164 1032h223l-31 -196q52 92 144 152.5t186 60.5l60 -5z" />
    <glyph glyph-name="rcaron.calt" horiz-adv-x="937" 
d="M508 1147l-189 303h162l135 -168l183 168h178l-283 -303h-186zM827 827q-30 7 -67 7q-121 0 -215 -111t-129 -338l-62 -385h-223l164 1032h223l-31 -196q52 92 144 152.5t186 60.5l60 -5z" />
    <glyph glyph-name="uni0157.calt" horiz-adv-x="937" 
d="M827 827q-30 7 -67 7q-121 0 -215 -111t-129 -338l-62 -385h-223l164 1032h223l-31 -196q52 92 144 152.5t186 60.5l60 -5zM-29 -389l131 303h248l-221 -303h-158z" />
    <glyph glyph-name="germandbls.calt" horiz-adv-x="1280" 
d="M805 1450q192 0 308.5 -107t113.5 -274l-322 -266q134 -22 214.5 -107.5t80.5 -208.5q0 -129 -70.5 -241.5t-188.5 -179t-253 -66.5h-252l33 211h238q109 0 187.5 76.5t78.5 183.5q0 80 -55.5 127t-151.5 47h-145l-5 137l371 314q-12 66 -71 105.5t-144 39.5
q-120 0 -209.5 -86.5t-111.5 -222.5l-148 -932h-240l148 932q36 232 202.5 375t391.5 143z" />
    <glyph glyph-name="a.ss01" horiz-adv-x="1234" 
d="M1190 1032l-164 -1032h-223l22 131q-48 -65 -141 -106t-195 -41q-200 0 -308.5 120t-108.5 318q0 176 70 318.5t201.5 225.5t299.5 83q107 0 185.5 -42.5t117.5 -111.5l21 137h223zM549 178q156 0 257 113t101 287q0 127 -69 201.5t-193 74.5q-148 0 -248 -113t-100 -286
q0 -126 67.5 -201.5t184.5 -75.5z" />
    <glyph glyph-name="aacute.ss01" horiz-adv-x="1234" 
d="M618 1147l183 303h266l-291 -303h-158zM1190 1032l-164 -1032h-223l22 131q-48 -65 -141 -106t-195 -41q-200 0 -308.5 120t-108.5 318q0 176 70 318.5t201.5 225.5t299.5 83q107 0 185.5 -42.5t117.5 -111.5l21 137h223zM549 178q156 0 257 113t101 287q0 127 -69 201.5
t-193 74.5q-148 0 -248 -113t-100 -286q0 -126 67.5 -201.5t184.5 -75.5z" />
    <glyph glyph-name="abreve.ss01" horiz-adv-x="1234" 
d="M721 1141q-119 0 -185 76.5t-47 193.5h170q-9 -53 15 -86t71 -33q48 0 84 33.5t43 85.5h170q-20 -117 -110.5 -193.5t-210.5 -76.5zM1190 1032l-164 -1032h-223l22 131q-48 -65 -141 -106t-195 -41q-200 0 -308.5 120t-108.5 318q0 176 70 318.5t201.5 225.5t299.5 83
q107 0 185.5 -42.5t117.5 -111.5l21 137h223zM549 178q156 0 257 113t101 287q0 127 -69 201.5t-193 74.5q-148 0 -248 -113t-100 -286q0 -126 67.5 -201.5t184.5 -75.5z" />
    <glyph glyph-name="acircumflex.ss01" horiz-adv-x="1234" 
d="M676 1450h186l189 -303h-168l-133 170l-185 -170h-172zM1190 1032l-164 -1032h-223l22 131q-48 -65 -141 -106t-195 -41q-200 0 -308.5 120t-108.5 318q0 176 70 318.5t201.5 225.5t299.5 83q107 0 185.5 -42.5t117.5 -111.5l21 137h223zM549 178q156 0 257 113t101 287
q0 127 -69 201.5t-193 74.5q-148 0 -248 -113t-100 -286q0 -126 67.5 -201.5t184.5 -75.5z" />
    <glyph glyph-name="adieresis.ss01" horiz-adv-x="1234" 
d="M563 1192q-57 0 -95 39t-38 96t38 95t95 38q60 0 99.5 -38t39.5 -95t-39.5 -96t-99.5 -39zM946 1192q-58 0 -96.5 39t-38.5 96t38.5 95t96.5 38q59 0 98 -38t39 -95t-39.5 -96t-97.5 -39zM1190 1032l-164 -1032h-223l22 131q-48 -65 -141 -106t-195 -41
q-200 0 -308.5 120t-108.5 318q0 176 70 318.5t201.5 225.5t299.5 83q107 0 185.5 -42.5t117.5 -111.5l21 137h223zM549 178q156 0 257 113t101 287q0 127 -69 201.5t-193 74.5q-148 0 -248 -113t-100 -286q0 -126 67.5 -201.5t184.5 -75.5z" />
    <glyph glyph-name="agrave.ss01" horiz-adv-x="1234" 
d="M809 1147h-160l-196 303h266zM1190 1032l-164 -1032h-223l22 131q-48 -65 -141 -106t-195 -41q-200 0 -308.5 120t-108.5 318q0 176 70 318.5t201.5 225.5t299.5 83q107 0 185.5 -42.5t117.5 -111.5l21 137h223zM549 178q156 0 257 113t101 287q0 127 -69 201.5
t-193 74.5q-148 0 -248 -113t-100 -286q0 -126 67.5 -201.5t184.5 -75.5z" />
    <glyph glyph-name="amacron.ss01" horiz-adv-x="1234" 
d="M451 1202l26 176h561l-28 -176h-559zM1190 1032l-164 -1032h-223l22 131q-48 -65 -141 -106t-195 -41q-200 0 -308.5 120t-108.5 318q0 176 70 318.5t201.5 225.5t299.5 83q107 0 185.5 -42.5t117.5 -111.5l21 137h223zM549 178q156 0 257 113t101 287q0 127 -69 201.5
t-193 74.5q-148 0 -248 -113t-100 -286q0 -126 67.5 -201.5t184.5 -75.5z" />
    <glyph glyph-name="aogonek.ss01" horiz-adv-x="1234" 
d="M918 -158q0 -31 20.5 -49t54.5 -18q40 0 56 8v-160q-40 -12 -111 -12q-98 0 -154.5 48t-56.5 128q0 111 113 213h-37l22 131q-48 -65 -141 -106t-195 -41q-200 0 -308.5 120t-108.5 318q0 176 70 318.5t201.5 225.5t299.5 83q107 0 185.5 -42.5t117.5 -111.5l21 137h223
l-164 -1032q-108 -90 -108 -158zM549 178q156 0 257 113t101 287q0 127 -69 201.5t-193 74.5q-148 0 -248 -113t-100 -286q0 -126 67.5 -201.5t184.5 -75.5z" />
    <glyph glyph-name="aring.ss01" horiz-adv-x="1234" 
d="M705 1110q-100 0 -166 61.5t-66 155.5t66 156.5t166 62.5q101 0 167 -62.5t66 -156.5t-66 -155.5t-167 -61.5zM705 1229q46 0 75 27.5t29 70.5q0 44 -29 72t-75 28q-43 0 -73 -28t-30 -72q0 -42 30 -70t73 -28zM1190 1032l-164 -1032h-223l22 131q-48 -65 -141 -106
t-195 -41q-200 0 -308.5 120t-108.5 318q0 176 70 318.5t201.5 225.5t299.5 83q107 0 185.5 -42.5t117.5 -111.5l21 137h223zM549 178q156 0 257 113t101 287q0 127 -69 201.5t-193 74.5q-148 0 -248 -113t-100 -286q0 -126 67.5 -201.5t184.5 -75.5z" />
    <glyph glyph-name="aringacute.ss01" horiz-adv-x="1234" 
d="M705 1110q-100 0 -166 61.5t-66 155.5q0 81 51 140.5t133 74.5l168 281h267l-285 -297q61 -27 96 -79.5t35 -119.5q0 -94 -66 -155.5t-167 -61.5zM705 1427q-43 0 -73 -28t-30 -72q0 -42 30 -70t73 -28q46 0 75 27.5t29 70.5q0 44 -29 72t-75 28zM967 1032h223
l-164 -1032h-223l22 131q-48 -65 -141 -106t-195 -41q-200 0 -308.5 120t-108.5 318q0 176 70 318.5t201.5 225.5t299.5 83q107 0 185.5 -42.5t117.5 -111.5zM549 178q156 0 257 113t101 287q0 127 -69 201.5t-193 74.5q-148 0 -248 -113t-100 -286q0 -126 67.5 -201.5
t184.5 -75.5z" />
    <glyph glyph-name="atilde.ss01" horiz-adv-x="1234" 
d="M504 1180l-152 24q20 107 98.5 174.5t182.5 67.5q79 0 155 -55q4 -3 18.5 -13.5t19 -13.5t16 -9.5t18.5 -8.5t17.5 -4.5t21.5 -2.5q36 0 62.5 26.5t39.5 76.5l152 -25q-22 -108 -99 -174.5t-180 -66.5q-80 0 -157 53q-4 3 -16 12.5t-16.5 12.5t-14 9.5t-15 9t-14.5 6
t-17.5 4.5t-17.5 1q-75 0 -102 -104zM1190 1032l-164 -1032h-223l22 131q-48 -65 -141 -106t-195 -41q-200 0 -308.5 120t-108.5 318q0 176 70 318.5t201.5 225.5t299.5 83q107 0 185.5 -42.5t117.5 -111.5l21 137h223zM549 178q156 0 257 113t101 287q0 127 -69 201.5
t-193 74.5q-148 0 -248 -113t-100 -286q0 -126 67.5 -201.5t184.5 -75.5z" />
    <glyph glyph-name="ae.ss01" horiz-adv-x="1996" 
d="M1911 463h-785q-7 -132 60.5 -210.5t189.5 -78.5q101 0 176.5 46t108.5 130l203 -53q-65 -150 -194 -231.5t-308 -81.5q-208 0 -313 159l-23 -143h-223l20 131q-48 -65 -140.5 -106t-195.5 -41q-200 0 -308.5 120t-108.5 318q0 177 71 319t205 225t307 83q98 0 177 -40
t116 -106l21 129h223l-19 -123q146 140 349 140q104 0 185.5 -34t131 -92.5t75 -132t25.5 -157.5q0 -69 -26 -170zM1473 872q-109 0 -190.5 -63t-123.5 -176h547q6 108 -54 173.5t-179 65.5zM547 178q157 0 258.5 112.5t101.5 287.5q0 126 -67.5 201t-184.5 75
q-156 0 -257 -112.5t-101 -286.5q0 -126 67 -201.5t183 -75.5z" />
    <glyph glyph-name="aeacute.ss01" horiz-adv-x="1996" 
d="M1475 1450l-291 -303h-158l182 303h267zM1911 463h-785q-7 -132 60.5 -210.5t189.5 -78.5q101 0 176.5 46t108.5 130l203 -53q-65 -150 -194 -231.5t-308 -81.5q-208 0 -313 159l-23 -143h-223l20 131q-48 -65 -140.5 -106t-195.5 -41q-200 0 -308.5 120t-108.5 318
q0 177 71 319t205 225t307 83q98 0 177 -40t116 -106l21 129h223l-19 -123q146 140 349 140q104 0 185.5 -34t131 -92.5t75 -132t25.5 -157.5q0 -69 -26 -170zM1473 872q-109 0 -190.5 -63t-123.5 -176h547q6 108 -54 173.5t-179 65.5zM547 178q157 0 258.5 112.5
t101.5 287.5q0 126 -67.5 201t-184.5 75q-156 0 -257 -112.5t-101 -286.5q0 -126 67 -201.5t183 -75.5z" />
    <glyph glyph-name="g.ss02" horiz-adv-x="1083" 
d="M360 375q-90 -37 -90 -101q0 -63 101 -63h258q155 0 241 -62t86 -180q0 -120 -74 -202t-194.5 -119t-277.5 -37q-210 0 -328.5 66.5t-118.5 193.5q0 70 39.5 133t101.5 107q-53 47 -53 122q0 79 51 139t134 93q-62 74 -62 182q0 177 133 289.5t328 112.5q102 0 182 -39
l180 151l111 -129l-162 -133q43 -67 43 -156q0 -116 -62 -207.5t-167 -140.5t-234 -49q-90 0 -166 29zM608 874q-91 0 -156 -56t-65 -146q0 -69 46 -109.5t118 -40.5q93 0 158 55t65 146q0 69 -47 110t-119 41zM563 35h-201q-57 0 -98 8q-80 -58 -80 -141q0 -109 254 -109
q297 0 297 146q0 53 -43.5 74.5t-128.5 21.5z" />
    <glyph glyph-name="gbreve.ss02" horiz-adv-x="1083" 
d="M645 1141q-119 0 -184.5 76.5t-46.5 193.5h170q-9 -53 15 -86t71 -33q48 0 84 33.5t43 85.5h170q-20 -117 -111 -193.5t-211 -76.5zM360 375q-90 -37 -90 -101q0 -63 101 -63h258q155 0 241 -62t86 -180q0 -120 -74 -202t-194.5 -119t-277.5 -37q-210 0 -328.5 66.5
t-118.5 193.5q0 70 39.5 133t101.5 107q-53 47 -53 122q0 79 51 139t134 93q-62 74 -62 182q0 177 133 289.5t328 112.5q102 0 182 -39l180 151l111 -129l-162 -133q43 -67 43 -156q0 -116 -62 -207.5t-167 -140.5t-234 -49q-90 0 -166 29zM608 874q-91 0 -156 -56t-65 -146
q0 -69 46 -109.5t118 -40.5q93 0 158 55t65 146q0 69 -47 110t-119 41zM563 35h-201q-57 0 -98 8q-80 -58 -80 -141q0 -109 254 -109q297 0 297 146q0 53 -43.5 74.5t-128.5 21.5z" />
    <glyph glyph-name="gcircumflex.ss02" horiz-adv-x="1083" 
d="M674 1317l-185 -170h-172l283 303h186l189 -303h-168zM360 375q-90 -37 -90 -101q0 -63 101 -63h258q155 0 241 -62t86 -180q0 -120 -74 -202t-194.5 -119t-277.5 -37q-210 0 -328.5 66.5t-118.5 193.5q0 70 39.5 133t101.5 107q-53 47 -53 122q0 79 51 139t134 93
q-62 74 -62 182q0 177 133 289.5t328 112.5q102 0 182 -39l180 151l111 -129l-162 -133q43 -67 43 -156q0 -116 -62 -207.5t-167 -140.5t-234 -49q-90 0 -166 29zM608 874q-91 0 -156 -56t-65 -146q0 -69 46 -109.5t118 -40.5q93 0 158 55t65 146q0 69 -47 110t-119 41z
M563 35h-201q-57 0 -98 8q-80 -58 -80 -141q0 -109 254 -109q297 0 297 146q0 53 -43.5 74.5t-128.5 21.5z" />
    <glyph glyph-name="uni0123.ss02" horiz-adv-x="1083" 
d="M901 1450l-102 -303h-240l172 303h170zM360 375q-90 -37 -90 -101q0 -63 101 -63h258q155 0 241 -62t86 -180q0 -120 -74 -202t-194.5 -119t-277.5 -37q-210 0 -328.5 66.5t-118.5 193.5q0 70 39.5 133t101.5 107q-53 47 -53 122q0 79 51 139t134 93q-62 74 -62 182
q0 177 133 289.5t328 112.5q102 0 182 -39l180 151l111 -129l-162 -133q43 -67 43 -156q0 -116 -62 -207.5t-167 -140.5t-234 -49q-90 0 -166 29zM608 874q-91 0 -156 -56t-65 -146q0 -69 46 -109.5t118 -40.5q93 0 158 55t65 146q0 69 -47 110t-119 41zM563 35h-201
q-57 0 -98 8q-80 -58 -80 -141q0 -109 254 -109q297 0 297 146q0 53 -43.5 74.5t-128.5 21.5z" />
    <glyph glyph-name="gdotaccent.ss02" horiz-adv-x="1083" 
d="M680 1204q-62 0 -103.5 41.5t-41.5 102.5q0 62 41 103.5t104 41.5t105 -41.5t42 -103.5q0 -60 -42 -102t-105 -42zM360 375q-90 -37 -90 -101q0 -63 101 -63h258q155 0 241 -62t86 -180q0 -120 -74 -202t-194.5 -119t-277.5 -37q-210 0 -328.5 66.5t-118.5 193.5
q0 70 39.5 133t101.5 107q-53 47 -53 122q0 79 51 139t134 93q-62 74 -62 182q0 177 133 289.5t328 112.5q102 0 182 -39l180 151l111 -129l-162 -133q43 -67 43 -156q0 -116 -62 -207.5t-167 -140.5t-234 -49q-90 0 -166 29zM608 874q-91 0 -156 -56t-65 -146
q0 -69 46 -109.5t118 -40.5q93 0 158 55t65 146q0 69 -47 110t-119 41zM563 35h-201q-57 0 -98 8q-80 -58 -80 -141q0 -109 254 -109q297 0 297 146q0 53 -43.5 74.5t-128.5 21.5z" />
    <glyph glyph-name="f_f.dlig" horiz-adv-x="1406" 
d="M1364 1292q-66 0 -113 -45.5t-61 -122.5l-14 -92h254l-31 -190h-254l-133 -842h-224l134 842h-416l-135 -842h-221l133 842h-170l28 190h172l13 88q27 171 136 267t261 96q74 0 145 -23l-43 -188q-50 20 -102 20q-66 0 -113 -46t-59 -122l-16 -92h417l15 88
q27 171 136 267t261 96q74 0 145 -23l-45 -188q-47 20 -100 20z" />
    <glyph glyph-name="f_f_i.dlig" horiz-adv-x="1777" 
d="M1690 1493q58 0 93.5 -35.5t35.5 -89.5q0 -67 -51.5 -115.5t-122.5 -48.5q-54 0 -87.5 35.5t-33.5 89.5q0 66 49.5 115t116.5 49zM1731 1032l-164 -1032h-224l134 842h-418l-133 -842h-219l133 842h-334l-135 -842h-221l133 842h-170l28 190h172l13 88q27 171 136 267
t261 96q74 0 145 -23l-43 -188q-50 20 -102 20q-66 0 -113 -46t-59 -122l-16 -92h335l15 88q27 171 136 267t261 96q74 0 145 -23l-45 -188q-47 20 -100 20q-67 0 -116.5 -46t-61.5 -124l-14 -90h641z" />
    <glyph glyph-name="f_f_l.dlig" horiz-adv-x="1814" 
d="M1610 1450h223l-229 -1450h-224l136 852l-3 -10h-454l-133 -842h-219l133 842h-334l-135 -842h-221l133 842h-170l28 190h172l13 88q27 171 136 267t261 96q74 0 145 -23l-43 -188q-50 20 -102 20q-66 0 -113 -46t-59 -122l-16 -92h335l15 88q27 171 136 267t261 96
q74 0 145 -23l-45 -188q-47 20 -100 20q-67 0 -116.5 -46t-61.5 -124l-14 -90h454z" />
    <glyph glyph-name="f_i.dlig" horiz-adv-x="1206" 
d="M1120 1493q56 0 91.5 -36t35.5 -89q0 -67 -51.5 -115.5t-122.5 -48.5q-54 0 -87.5 35.5t-33.5 89.5q0 66 49.5 115t118.5 49zM1159 1032l-164 -1032h-223l133 842h-407l-133 -842h-220l134 842h-166l28 190h168l13 88q27 170 137 266.5t260 96.5q74 0 145 -23l-43 -188
q-47 20 -102 20q-66 0 -115 -46t-61 -124l-15 -90h631z" />
    <glyph glyph-name="f_l.dlig" horiz-adv-x="1241" 
d="M1038 1450h224l-230 -1450h-223l135 852l-2 -10h-444l-133 -842h-220l134 842h-166l28 190h168l13 88q27 170 137 266.5t260 96.5q74 0 145 -23l-43 -188q-47 20 -102 20q-66 0 -115 -46t-61 -124l-15 -90h445z" />
    <glyph glyph-name="three.ss04" horiz-adv-x="1183" 
d="M512 -16q-227 0 -355 121.5t-98 318.5l240 14q-19 -111 48.5 -182.5t195.5 -71.5q139 0 229 71.5t90 184.5q0 94 -68 145.5t-186 51.5q-85 0 -110 -2l26 196q25 -2 86 -2q120 0 207 70t98 168q10 87 -50.5 140t-164.5 53q-108 0 -192 -69.5t-98 -166.5l-220 14
q25 173 179.5 292.5t361.5 119.5q186 0 300 -94t114 -240q0 -137 -95 -243t-239 -134q133 -6 211 -85.5t78 -204.5q0 -131 -77.5 -237.5t-212 -167t-298.5 -60.5z" />
    <glyph glyph-name="uni2462.ss04" horiz-adv-x="1640" 
d="M893 -16q-156 0 -292.5 55.5t-233.5 152.5t-153 233t-56 292t56 292t153 233t233.5 152.5t292.5 55.5q155 0 291 -55.5t233 -152.5t153 -233t56 -292t-56 -292t-153 -233t-233 -152.5t-291 -55.5zM893 111q170 0 307.5 79t215 217.5t77.5 309.5t-77.5 309.5t-215 217.5
t-307.5 79t-307.5 -79t-215 -217.5t-77.5 -309.5t77.5 -309.5t215 -217.5t307.5 -79zM799 346q-124 0 -197 68t-55 178l158 6q-8 -52 23 -85.5t89 -33.5q66 0 109 33.5t43 87.5q0 43 -32 68.5t-89 25.5h-57l18 129q14 -2 45 -2q57 0 97 34t46 81q6 41 -22 65.5t-78 24.5
q-52 0 -91.5 -32t-45.5 -81l-146 11q15 94 101 160.5t200 66.5q104 0 170 -53.5t66 -132.5q0 -73 -51.5 -131t-126.5 -72q70 -4 111.5 -47.5t41.5 -110.5q0 -110 -94.5 -184t-232.5 -74z" />
    <glyph glyph-name="zero.tf" horiz-adv-x="1265" 
d="M543 -16q-226 0 -347.5 154t-121.5 419q0 253 84 455t244.5 320t371.5 118q225 0 346 -155t121 -421q0 -189 -49.5 -352.5t-138.5 -282.5t-221 -187t-289 -68zM575 195q130 0 226.5 88t146 237t49.5 338q0 181 -65.5 282t-192.5 101q-130 0 -227 -90t-145 -240t-48 -338
q0 -179 65 -278.5t191 -99.5z" />
    <glyph glyph-name="one.tf" horiz-adv-x="1265" 
d="M748 211h344l-33 -211h-977l33 211h409l152 946q-154 -114 -359 -156l35 216q223 49 406 217h184z" />
    <glyph glyph-name="two.tf" horiz-adv-x="1265" 
d="M53 0l31 199l592 444q156 118 224.5 210.5t68.5 188.5q0 88 -59 143.5t-154 55.5q-133 0 -218 -90.5t-94 -241.5l-227 17q6 112 53.5 210t124 166.5t179 108t214.5 39.5q191 0 308.5 -105.5t117.5 -273.5q0 -155 -97 -291.5t-320 -296.5l-369 -272h651l-32 -211h-994z
" />
    <glyph glyph-name="three.tf" horiz-adv-x="1265" 
d="M545 -16q-217 0 -343 114.5t-116 304.5l225 35q-1 -110 72.5 -176.5t196.5 -66.5q146 0 240.5 85.5t94.5 219.5q0 103 -64 161t-181 58q-92 0 -166 -45l-74 155l481 396h-655l35 209h936l-33 -199l-440 -356q186 10 296.5 -87t110.5 -270q0 -237 -173.5 -387.5
t-442.5 -150.5z" />
    <glyph glyph-name="four.tf" horiz-adv-x="1265" 
d="M702 0l50 322h-736l33 208l854 904h266l-143 -904h193l-35 -208h-191l-51 -322h-240zM301 530h483l99 621z" />
    <glyph glyph-name="five.tf" horiz-adv-x="1265" 
d="M575 -16q-211 0 -335.5 107.5t-126.5 289.5l225 39q5 -103 75.5 -164t188.5 -61q142 0 234 92.5t92 236.5q0 110 -67.5 173t-188.5 63q-183 0 -314 -156l-168 37l242 793h780l-32 -209h-605l-116 -379q61 48 142 78t155 30q192 0 305 -110t113 -293q0 -165 -77 -294.5
t-213.5 -201t-308.5 -71.5z" />
    <glyph glyph-name="six.tf" horiz-adv-x="1265" 
d="M748 965q196 0 315 -117t119 -303q0 -159 -77 -288t-210 -201t-293 -72q-225 0 -358 149.5t-133 396.5q0 213 66 389.5t178.5 291t259 177t309.5 62.5q114 0 214 -35.5t171 -103.5l-142 -178q-108 108 -274 108q-195 0 -339 -128t-185 -339q64 90 165 140.5t214 50.5z
M621 195q130 0 221.5 91t97.5 228q8 114 -61 186t-187 72q-145 0 -243.5 -89.5t-98.5 -233.5q0 -114 74 -184t197 -70z" />
    <glyph glyph-name="seven.tf" horiz-adv-x="1265" 
d="M1337 1434l-32 -209q-694 -760 -809 -1225h-242q78 277 291 593.5t512 631.5h-604l-41 -248h-224l74 457h1075z" />
    <glyph glyph-name="eight.tf" horiz-adv-x="1265" 
d="M555 -16q-206 0 -332.5 101t-126.5 273q0 144 91.5 257t234.5 157q-75 37 -117.5 106.5t-42.5 153.5q0 175 149.5 296.5t374.5 121.5q183 0 292.5 -92.5t109.5 -239.5q0 -112 -71 -206.5t-183 -139.5q97 -33 154 -116.5t57 -188.5q0 -141 -79.5 -252.5t-213.5 -171
t-297 -59.5zM694 860q107 0 180.5 57.5t83.5 151.5q10 88 -44.5 139.5t-157.5 51.5q-119 0 -194 -62.5t-75 -163.5q0 -80 55.5 -127t151.5 -47zM586 184q142 0 231.5 75.5t89.5 195.5q0 93 -66.5 147.5t-181.5 54.5q-143 0 -232 -74.5t-89 -195.5q0 -93 66 -148t182 -55z
" />
    <glyph glyph-name="nine.tf" horiz-adv-x="1265" 
d="M582 469q-196 0 -315.5 117t-119.5 303q0 159 77 288t210 201t293 72q225 0 358.5 -150t133.5 -397q0 -172 -43 -320.5t-119 -257t-178 -186.5t-222.5 -116.5t-250.5 -38.5q-114 0 -214.5 35.5t-171.5 103.5l142 178q106 -106 274 -106q196 0 340 127t185 337
q-64 -90 -165 -140t-214 -50zM709 1241q-130 0 -222 -92t-98 -229q-8 -114 61 -186t187 -72q145 0 243.5 89.5t98.5 233.5q0 114 -73.5 185t-196.5 71z" />
    <glyph glyph-name="three.tf.ss04" horiz-adv-x="1265" 
d="M569 -16q-227 0 -355.5 121.5t-96.5 318.5l237 14q-17 -111 50.5 -182.5t195.5 -71.5q139 0 229.5 71.5t90.5 184.5q0 94 -68 145.5t-188 51.5q-84 0 -111 -2l29 196q25 -2 84 -2q121 0 208 70t99 168q10 87 -51 140t-166 53q-107 0 -191.5 -69.5t-99.5 -166.5l-219 14
q27 173 181 292.5t359 119.5q186 0 301 -94t115 -240q0 -136 -95.5 -242.5t-238.5 -134.5q133 -6 211 -85.5t78 -204.5q0 -131 -77.5 -237.5t-212 -167t-298.5 -60.5z" />
    <glyph glyph-name="zero.subs" horiz-adv-x="755" 
d="M242 -356q-132 0 -204.5 86.5t-72.5 236.5q0 211 112.5 346.5t293.5 135.5q130 0 203 -87t73 -235q0 -212 -113 -347.5t-292 -135.5zM266 -211q98 0 154.5 91t56.5 237q0 89 -33.5 137.5t-97.5 48.5q-98 0 -154.5 -91t-56.5 -235q0 -90 33.5 -139t97.5 -49z" />
    <glyph glyph-name="one.subs" horiz-adv-x="454" 
d="M88 -348l98 612q-108 -64 -182 -78l23 150q94 21 215 104h127l-125 -788h-156z" />
    <glyph glyph-name="two.subs" horiz-adv-x="688" 
d="M-72 -348l21 133l282 209q93 67 136 118.5t43 100.5q0 41 -26.5 65.5t-72.5 24.5q-63 0 -101.5 -44.5t-43.5 -119.5l-160 13q9 125 105 211t223 86q114 0 181 -60t67 -158q0 -87 -57.5 -164t-190.5 -167l-150 -103h330l-22 -145h-564z" />
    <glyph glyph-name="three.subs" horiz-adv-x="698" 
d="M209 -356q-122 0 -194 64t-66 169l155 25q3 -51 39 -82t93 -31q67 0 111 39t44 100q0 46 -31 74.5t-84 28.5q-51 0 -94 -27l-49 111l234 182h-330l24 143h527l-23 -143l-219 -162q99 3 156 -48t57 -144q0 -133 -98 -216t-252 -83z" />
    <glyph glyph-name="four.subs" horiz-adv-x="757" 
d="M309 -348l25 155h-395l22 146l463 487h180l-78 -487h101l-25 -146h-98l-25 -155h-170zM135 -47h223l45 285z" />
    <glyph glyph-name="five.subs" horiz-adv-x="686" 
d="M211 -356q-119 0 -189 59t-71 160l155 26q3 -46 36 -73t85 -27q66 0 109 42t43 106q0 50 -32 79t-87 29q-83 0 -151 -74l-117 25l135 444h440l-22 -145h-320l-57 -174q71 55 158 55q102 0 162.5 -60t60.5 -159q0 -139 -95.5 -226t-242.5 -87z" />
    <glyph glyph-name="six.subs" horiz-adv-x="733" 
d="M346 182q106 0 172 -64t66 -165q0 -132 -98.5 -220.5t-233.5 -88.5q-126 0 -200.5 85t-74.5 226q0 115 39.5 211.5t103.5 157t143 94t161 33.5q146 0 227 -84l-92 -111q-49 49 -147 49q-94 0 -162 -57.5t-92 -151.5q32 41 82 63.5t106 22.5zM260 -211q59 0 103.5 37.5
t54.5 97.5q10 58 -23 94.5t-92 36.5q-66 0 -112 -43t-46 -108q0 -51 31.5 -83t83.5 -32z" />
    <glyph glyph-name="seven.subs" horiz-adv-x="628" 
d="M-14 -348q163 361 424 643h-404l23 145h569l-25 -145q-286 -323 -426 -643h-161z" />
    <glyph glyph-name="eight.subs" horiz-adv-x="706" 
d="M219 -356q-113 0 -185.5 57.5t-72.5 153.5q0 76 49 137.5t125 83.5q-38 20 -60 58t-22 83q0 95 86 163.5t209 68.5q102 0 163.5 -53.5t61.5 -133.5q0 -61 -37 -111t-98 -75q53 -17 84 -61.5t31 -102.5q0 -119 -98 -193.5t-236 -74.5zM299 139q52 0 86.5 29t34.5 74
q0 35 -25.5 57.5t-66.5 22.5q-54 0 -88.5 -29.5t-34.5 -75.5q0 -36 25 -57t69 -21zM242 -221q64 0 104.5 34.5t40.5 90.5q0 42 -30 67t-83 25q-65 0 -106 -34t-41 -89q0 -43 30.5 -68.5t84.5 -25.5z" />
    <glyph glyph-name="nine.subs" horiz-adv-x="731" 
d="M246 -90q-108 0 -173 64t-65 165q0 133 101.5 221.5t248.5 88.5q116 0 184 -84t68 -220q0 -95 -25.5 -177.5t-69 -141.5t-101 -101t-122 -62.5t-132.5 -20.5q-137 0 -221 84l94 110q52 -49 147 -49q93 0 161.5 58t92.5 151q-70 -86 -188 -86zM330 303q-63 0 -107 -41.5
t-47 -105.5q-3 -53 28 -86t85 -33q67 0 112 43t45 108q0 52 -31.5 83.5t-84.5 31.5z" />
    <glyph glyph-name="zero.dnom" horiz-adv-x="755" 
d="M297 -8q-132 0 -204.5 86.5t-72.5 236.5q0 211 112.5 346.5t293.5 135.5q130 0 203 -87t73 -235q0 -212 -113 -347.5t-292 -135.5zM322 137q98 0 154 91t56 237q0 89 -33.5 137.5t-97.5 48.5q-98 0 -154.5 -90.5t-56.5 -234.5q0 -90 34 -139.5t98 -49.5z" />
    <glyph glyph-name="one.dnom" horiz-adv-x="454" 
d="M143 0l97 612q-101 -62 -183 -77l25 149q94 21 215 104h127l-125 -788h-156z" />
    <glyph glyph-name="two.dnom" horiz-adv-x="688" 
d="M-16 0l20 133l283 209q92 67 135 118t43 101q0 41 -26 65.5t-72 24.5q-63 0 -102 -44.5t-44 -119.5l-160 13q9 125 105 211t223 86q114 0 181 -59.5t67 -157.5q0 -86 -58.5 -163.5t-191.5 -168.5l-147 -103h329l-22 -145h-563z" />
    <glyph glyph-name="three.dnom" horiz-adv-x="698" 
d="M264 -8q-122 0 -194 64t-66 169l156 25q3 -51 38.5 -82t92.5 -31q67 0 111 39t44 100q0 46 -30.5 74.5t-83.5 28.5q-50 0 -94 -27l-50 111l234 182h-330l25 143h526l-22 -143l-220 -162q99 3 156 -48t57 -144q0 -133 -98 -216t-252 -83z" />
    <glyph glyph-name="four.dnom" horiz-adv-x="757" 
d="M365 0l24 156h-395l22 145l463 487h180l-77 -487h100l-25 -145h-98l-24 -156h-170zM190 301h224l45 285z" />
    <glyph glyph-name="five.dnom" horiz-adv-x="686" 
d="M266 -8q-119 0 -189 59t-71 160l156 27q3 -46 36 -73.5t85 -27.5q66 0 107.5 41.5t41.5 106.5q0 50 -31 79t-86 29q-83 0 -151 -74l-117 25l135 444h441l-23 -145h-319l-58 -174q68 55 158 55q102 0 162.5 -60t60.5 -159q0 -139 -95.5 -226t-242.5 -87z" />
    <glyph glyph-name="six.dnom" horiz-adv-x="733" 
d="M401 530q106 0 172 -64t66 -165q0 -132 -98.5 -220.5t-233.5 -88.5q-126 0 -200 85t-74 226q0 93 25.5 174t69.5 139t101 100t121 62.5t129 20.5q147 0 228 -84l-93 -111q-49 49 -147 49q-94 0 -162 -57.5t-92 -151.5q32 41 82 63.5t106 22.5zM315 137q59 0 103.5 37.5
t54.5 97.5q10 58 -23 94.5t-92 36.5q-65 0 -111 -43t-46 -108q0 -51 31 -83t83 -32z" />
    <glyph glyph-name="seven.dnom" horiz-adv-x="628" 
d="M41 0q166 367 424 643h-404l21 145h571l-24 -145q-286 -323 -426 -643h-162z" />
    <glyph glyph-name="eight.dnom" horiz-adv-x="706" 
d="M274 -8q-113 0 -185.5 57.5t-72.5 153.5q0 76 49 137.5t125 83.5q-38 20 -59.5 58t-21.5 83q0 95 85 163.5t209 68.5q101 0 163.5 -53.5t62.5 -133.5q0 -61 -37 -111t-98 -75q53 -17 83.5 -61.5t30.5 -102.5q0 -119 -98.5 -193.5t-235.5 -74.5zM354 487q52 0 86.5 29
t34.5 74q0 37 -25.5 58.5t-68.5 21.5q-54 0 -87.5 -30t-33.5 -77q0 -34 25 -55t69 -21zM295 127q66 0 106.5 34.5t40.5 90.5q0 42 -29.5 67t-82.5 25q-65 0 -106.5 -34t-41.5 -89q0 -43 30.5 -68.5t82.5 -25.5z" />
    <glyph glyph-name="nine.dnom" horiz-adv-x="731" 
d="M301 258q-108 0 -173 64t-65 165q0 133 102 221.5t249 88.5q116 0 184 -83.5t68 -219.5q0 -119 -39 -216.5t-103 -159t-144 -95t-165 -33.5q-137 0 -221 84l94 110q52 -49 148 -49q92 0 160.5 57.5t92.5 151.5q-70 -86 -188 -86zM385 651q-63 0 -107 -41.5t-47 -105.5
q-4 -52 27.5 -85.5t85.5 -33.5q65 0 111.5 43.5t46.5 108.5q0 51 -31.5 82.5t-85.5 31.5z" />
    <glyph glyph-name="zero.numr" horiz-adv-x="755" 
d="M399 637q-132 0 -204 87t-72 237q0 211 112 346t293 135q131 0 204 -87t73 -235q0 -212 -113.5 -347.5t-292.5 -135.5zM422 782q99 0 156 91t57 237q0 89 -33.5 137.5t-97.5 48.5q-98 0 -154.5 -90.5t-56.5 -234.5q0 -90 33.5 -139.5t95.5 -49.5z" />
    <glyph glyph-name="one.numr" horiz-adv-x="454" 
d="M246 645l96 612q-102 -62 -182 -77l24 149q93 22 215 105h127l-125 -789h-155z" />
    <glyph glyph-name="two.numr" horiz-adv-x="688" 
d="M86 645l20 133l283 209q92 67 135 118t43 101q0 41 -26 65.5t-72 24.5q-63 0 -101.5 -44t-43.5 -119l-160 12q9 126 102.5 211.5t225.5 85.5q114 0 179.5 -59.5t65.5 -157.5q0 -87 -57.5 -164.5t-190.5 -167.5l-147 -102h330l-23 -146h-563z" />
    <glyph glyph-name="three.numr" horiz-adv-x="698" 
d="M367 637q-122 0 -194.5 64t-66.5 169l156 25q3 -51 38.5 -82t90.5 -31q68 0 112 39.5t44 100.5q0 46 -30.5 74t-82.5 28q-50 0 -94 -27l-49 111l233 182h-329l24 144h526l-22 -144l-219 -162q99 3 156 -48t57 -144q0 -133 -98 -216t-252 -83z" />
    <glyph glyph-name="four.numr" horiz-adv-x="757" 
d="M467 645l25 156h-396l23 145l463 488h180l-78 -488h98l-22 -145h-98l-25 -156h-170zM291 946h223l47 285z" />
    <glyph glyph-name="five.numr" horiz-adv-x="686" 
d="M369 637q-119 0 -189 59t-71 160l155 27q3 -46 35.5 -73.5t85.5 -27.5q65 0 107.5 42t42.5 106q0 50 -31 79t-86 29q-85 0 -152 -73l-119 24l138 445h440l-23 -146h-319l-57 -174q68 55 157 55q102 0 163 -60t61 -159q0 -139 -95.5 -226t-242.5 -87z" />
    <glyph glyph-name="six.numr" horiz-adv-x="733" 
d="M504 1176q106 0 171.5 -64.5t65.5 -165.5q0 -132 -98 -220.5t-233 -88.5q-126 0 -200.5 85t-74.5 226q0 115 39.5 211.5t103.5 157t143 94t161 33.5q146 0 227 -84l-92 -111q-49 49 -148 49q-94 0 -162 -57t-92 -151q32 41 82.5 63.5t106.5 22.5zM418 782q59 0 103 38
t54 98q10 58 -22.5 94.5t-91.5 36.5q-65 0 -111.5 -43.5t-46.5 -108.5q0 -51 31.5 -83t83.5 -32z" />
    <glyph glyph-name="seven.numr" horiz-adv-x="628" 
d="M143 645q166 367 424 643h-403l20 146h572l-25 -146q-286 -323 -426 -643h-162z" />
    <glyph glyph-name="eight.numr" horiz-adv-x="706" 
d="M377 637q-113 0 -185.5 57.5t-72.5 153.5q0 76 49 137.5t125 83.5q-38 20 -60 58t-22 83q0 95 85.5 163.5t209.5 68.5q101 0 163 -53.5t62 -133.5q0 -61 -37 -111t-98 -75q53 -17 84 -61.5t31 -102.5q0 -119 -98.5 -193.5t-235.5 -74.5zM455 1133q53 0 88 28.5t35 73.5
q0 37 -26 58.5t-69 21.5q-54 0 -87.5 -30t-33.5 -77q0 -34 25 -54.5t68 -20.5zM397 772q66 0 107 34.5t41 90.5q0 42 -30 67t-83 25q-65 0 -106 -34t-41 -89q0 -43 30 -68.5t82 -25.5z" />
    <glyph glyph-name="nine.numr" horiz-adv-x="731" 
d="M401 903q-106 0 -171.5 64.5t-65.5 165.5q0 132 98.5 220.5t233.5 88.5q125 0 198.5 -85t73.5 -227q0 -115 -39 -211t-102.5 -157t-142 -94t-160.5 -33q-147 0 -228 84l92 110q49 -49 148 -49q94 0 162 57.5t92 151.5q-32 -41 -82.5 -63.5t-106.5 -22.5zM487 1296
q-59 0 -103 -37.5t-54 -97.5q-10 -58 22.5 -94.5t91.5 -36.5q65 0 111.5 43.5t46.5 108.5q0 51 -31.5 82.5t-83.5 31.5z" />
    <glyph glyph-name="zero.sups" horiz-adv-x="755" 
d="M420 760q-132 0 -204.5 86.5t-72.5 236.5q0 211 111.5 346.5t292.5 135.5q130 0 203 -87t73 -235q0 -212 -112.5 -347.5t-290.5 -135.5zM442 905q99 0 155 91t56 237q0 89 -32.5 137.5t-96.5 48.5q-99 0 -155 -90t-56 -235q0 -91 32.5 -140t96.5 -49z" />
    <glyph glyph-name="one.sups" horiz-adv-x="454" 
d="M264 768l98 612q-107 -63 -182 -77l25 149q92 22 213 104h127l-125 -788h-156z" />
    <glyph glyph-name="two.sups" horiz-adv-x="688" 
d="M104 768l21 133l283 209q93 67 136.5 118.5t43.5 100.5q0 41 -27.5 65.5t-73.5 24.5q-62 0 -101.5 -44.5t-43.5 -119.5l-160 13q9 125 105 211t223 86q114 0 181 -59.5t67 -157.5q0 -87 -57.5 -164.5t-190.5 -167.5l-150 -103h330l-22 -145h-564z" />
    <glyph glyph-name="three.sups" horiz-adv-x="698" 
d="M387 760q-122 0 -194 64t-68 169l158 25q1 -51 37 -82t92 -31q68 0 111.5 39t43.5 100q0 46 -30 74.5t-82 28.5q-51 0 -95 -27l-49 111l232 182h-328l23 143h526l-23 -143l-217 -162q99 3 155 -48t56 -144q0 -133 -97.5 -216t-250.5 -83z" />
    <glyph glyph-name="four.sups" horiz-adv-x="757" 
d="M485 768l27 156h-395l22 145l461 487h180l-75 -487h98l-23 -145h-98l-27 -156h-170zM311 1069h224l45 285z" />
    <glyph glyph-name="five.sups" horiz-adv-x="686" 
d="M389 760q-119 0 -189.5 59t-70.5 160l156 27q3 -46 35.5 -73.5t85.5 -27.5q65 0 107 42t42 106q0 50 -31 79t-86 29q-85 0 -153 -74l-117 25l135 444h440l-22 -145h-320l-57 -174q71 55 160 55q101 0 161 -60t60 -159q0 -139 -94.5 -226t-241.5 -87z" />
    <glyph glyph-name="six.sups" horiz-adv-x="731" 
d="M522 1298q106 0 171 -64t65 -165q0 -134 -100 -221.5t-248 -87.5q-117 0 -186.5 83.5t-69.5 219.5q0 119 39 216.5t103.5 159t144.5 95t165 33.5q138 0 219 -84l-92 -111q-46 49 -145 49q-94 0 -163 -58t-91 -151q32 41 82 63.5t106 22.5zM436 905q59 0 102.5 37.5
t53.5 97.5q12 58 -21 94.5t-92 36.5q-67 0 -112 -43t-45 -108q0 -51 31 -83t83 -32z" />
    <glyph glyph-name="seven.sups" horiz-adv-x="628" 
d="M162 768q171 369 424 643h-404l23 145h569l-24 -145q-289 -329 -426 -643h-162z" />
    <glyph glyph-name="eight.sups" horiz-adv-x="706" 
d="M397 760q-115 0 -187.5 57t-72.5 154q0 75 49.5 137t124.5 84q-38 20 -60 58t-22 83q0 95 86 163.5t209 68.5q102 0 164 -53.5t62 -133.5q0 -61 -37.5 -111t-98.5 -75q53 -17 84 -61.5t31 -102.5q0 -120 -97 -194t-235 -74zM477 1255q51 0 85 29t34 74q0 36 -25 58
t-67 22q-54 0 -88.5 -29.5t-34.5 -75.5q0 -35 26 -56.5t70 -21.5zM418 895q64 0 104.5 34.5t40.5 90.5q0 42 -29 67t-81 25q-66 0 -108 -34t-42 -89q0 -43 30.5 -68.5t84.5 -25.5z" />
    <glyph glyph-name="nine.sups" horiz-adv-x="731" 
d="M424 1026q-108 0 -174 64t-66 165q0 133 102 221.5t249 88.5q116 0 183.5 -83t67.5 -220q0 -119 -38.5 -216.5t-102 -159t-143 -95t-164.5 -33.5q-139 0 -223 84l94 110q52 -49 147 -49q94 0 162.5 57.5t93.5 151.5q-73 -86 -188 -86zM508 1419q-63 0 -107 -41.5
t-47 -105.5q-5 -53 26 -86t85 -33q67 0 112.5 43.5t45.5 108.5q0 51 -31.5 82.5t-83.5 31.5z" />
    <glyph glyph-name="three.subs.ss04" horiz-adv-x="684" 
d="M203 -356q-125 0 -197.5 67.5t-54.5 177.5l158 7q-8 -52 23.5 -85.5t90.5 -33.5q66 0 108 33.5t42 87.5q0 43 -32 68.5t-87 25.5h-59l18 129q14 -2 47 -2q57 0 96 33.5t45 80.5q6 41 -21.5 66t-78.5 25q-52 0 -91.5 -32t-45.5 -81l-146 10q15 94 102.5 161t201.5 67
q103 0 168 -54t65 -133q0 -73 -51 -131t-125 -72q69 -4 110 -47.5t41 -109.5q0 -110 -94.5 -184t-232.5 -74z" />
    <glyph glyph-name="three.dnom.ss04" horiz-adv-x="686" 
d="M258 -16q-125 0 -198.5 67.5t-55.5 177.5l160 7q-9 -51 22.5 -85t89.5 -34q66 0 108 33.5t42 87.5q0 43 -32 68.5t-87 25.5h-59l20 129q14 -2 45 -2q57 0 97.5 33.5t46.5 80.5q6 41 -23 66t-80 25t-90.5 -32t-46.5 -81l-143 10q14 94 100.5 160.5t200.5 66.5
q103 0 168 -53.5t65 -132.5q0 -73 -51 -131t-125 -72q69 -4 110.5 -47.5t41.5 -109.5q0 -110 -94 -184t-232 -74z" />
    <glyph glyph-name="three.numr.ss04" horiz-adv-x="686" 
d="M362 649q-124 0 -196.5 68t-54.5 178l157 6q-8 -52 23.5 -85.5t89.5 -33.5q66 0 108.5 33.5t42.5 87.5q0 43 -32 68.5t-88 25.5h-58l19 129q14 -2 45 -2q57 0 97 34t46 81q6 41 -22 65.5t-78 24.5q-52 0 -91.5 -31.5t-45.5 -80.5l-146 10q15 94 101 160.5t200 66.5
q104 0 170 -53.5t66 -132.5q0 -73 -51.5 -131t-126.5 -72q70 -4 111.5 -47.5t41.5 -110.5q0 -110 -94.5 -184t-233.5 -74z" />
    <glyph glyph-name="uni00B3.ss04" horiz-adv-x="686" 
d="M381 760q-125 0 -198.5 68t-55.5 178l160 6q-9 -51 22.5 -85t89.5 -34q66 0 109 33.5t43 87.5q0 43 -33 68.5t-88 25.5h-59l20 129q14 -2 45 -2q57 0 97.5 34t46.5 81q6 41 -22.5 65.5t-80.5 24.5q-51 0 -90.5 -32t-46.5 -81l-143 10q14 94 100.5 161t200.5 67
q103 0 168 -54t65 -133q0 -73 -51 -130.5t-125 -71.5q69 -4 110.5 -48t41.5 -110q0 -110 -94 -184t-232 -74z" />
    <glyph glyph-name="three.sups.ss04" horiz-adv-x="686" 
d="M381 760q-125 0 -198.5 68t-55.5 178l160 6q-9 -51 22.5 -85t89.5 -34q66 0 109 33.5t43 87.5q0 43 -33 68.5t-88 25.5h-59l20 129q14 -2 45 -2q57 0 97.5 34t46.5 81q6 41 -22.5 65.5t-80.5 24.5q-51 0 -90.5 -32t-46.5 -81l-143 10q14 94 100.5 161t200.5 67
q103 0 168 -54t65 -133q0 -73 -51 -130.5t-125 -71.5q69 -4 110.5 -48t41.5 -110q0 -110 -94 -184t-232 -74z" />
    <glyph glyph-name="colon.case" horiz-adv-x="557" 
d="M367 946q-61 0 -102.5 41t-41.5 103q0 61 41 102t103 41q63 0 104 -40.5t41 -102.5t-41 -103t-104 -41zM250 168q-63 0 -104.5 40.5t-41.5 102.5t41.5 103t104.5 41t104 -41t41 -103t-41 -102.5t-104 -40.5z" />
    <glyph glyph-name="bullet.case" horiz-adv-x="972" 
d="M492 291q-173 0 -293.5 119.5t-120.5 289.5q0 169 120.5 289.5t293.5 120.5q167 0 286 -120.5t119 -289.5q0 -170 -118.5 -289.5t-286.5 -119.5z" />
    <glyph glyph-name="period.tf" horiz-adv-x="1265" 
d="M578 -16q-63 0 -104.5 40.5t-41.5 102.5t41.5 102.5t104.5 40.5q62 0 103.5 -41t41.5 -102t-41.5 -102t-103.5 -41z" />
    <glyph glyph-name="comma.tf" horiz-adv-x="1265" 
d="M297 -240l205 488h276l-332 -488h-149z" />
    <glyph glyph-name="parenleft.case" horiz-adv-x="581" 
d="M268 -313q-100 153 -153.5 357t-53.5 415q0 328 134 630.5t383 557.5l135 -115q-221 -257 -329 -514.5t-108 -538.5q0 -174 41.5 -349.5t120.5 -326.5z" />
    <glyph glyph-name="parenright.case" horiz-adv-x="581" 
d="M59 -313l-135 116q223 262 329.5 517.5t106.5 537.5q0 174 -41.5 350.5t-119.5 323.5l170 115q99 -150 151.5 -354t52.5 -416q0 -328 -132 -629.5t-382 -560.5z" />
    <glyph glyph-name="braceleft.case" horiz-adv-x="677" 
d="M399 -248q-109 0 -166 72t-40 186l67 428q17 95 -19.5 136.5t-127.5 43.5l30 191q92 2 141 43t64 135l68 430q19 114 98 185t188 71h117l-28 -184h-50q-116 0 -131 -117l-69 -436q-16 -94 -65 -143.5t-130 -77.5q48 -21 76 -44.5t43.5 -69.5t5.5 -112l-70 -436
q-18 -114 95 -114h49l-29 -187h-117z" />
    <glyph glyph-name="braceright.case" horiz-adv-x="677" 
d="M43 -248h-117l31 187h49q113 0 131 114l70 436q16 96 63 145t129 81q-71 28 -104 77.5t-19 143.5l70 436q18 117 -94 117h-49l28 184h117q109 0 166.5 -71t40.5 -185l-68 -430q-17 -93 20 -134.5t128 -43.5l-31 -191q-92 -2 -141 -43.5t-64 -136.5l-67 -428
q-19 -114 -99.5 -186t-189.5 -72z" />
    <glyph glyph-name="bracketleft.case" horiz-adv-x="638" 
d="M20 -262l306 1927h442l-29 -180h-241l-250 -1569h241l-26 -178h-443z" />
    <glyph glyph-name="bracketright.case" horiz-adv-x="638" 
d="M379 -262h-440l28 178h242l248 1569h-242l29 180h440z" />
    <glyph glyph-name="hyphen.case" horiz-adv-x="751" 
d="M80 641l31 193h637l-31 -193h-637z" />
    <glyph glyph-name="uni00AD.case" horiz-adv-x="751" 
d="M80 641l31 193h637l-31 -193h-637z" />
    <glyph glyph-name="endash.case" horiz-adv-x="1024" 
d="M70 641l30 193h932l-31 -193h-931z" />
    <glyph glyph-name="emdash.case" horiz-adv-x="2048" 
d="M70 641l30 193h1956l-31 -193h-1955z" />
    <glyph glyph-name="quotesinglbase.ss05" horiz-adv-x="436" 
d="M307 143q0 -45 -17.5 -78t-84.5 -124q-11 -15 -17 -23l-96 -133h-112l118 199q-37 11 -61.5 45t-24.5 75q0 67 51.5 116.5t120.5 49.5q52 0 87.5 -37t35.5 -90z" />
    <glyph glyph-name="quotedblbase.ss05" horiz-adv-x="798" 
d="M307 143q0 -45 -17.5 -78t-84.5 -124q-11 -15 -17 -23l-96 -133h-112l118 199q-37 11 -61.5 45t-24.5 75q0 67 51.5 116.5t120.5 49.5q52 0 87.5 -37t35.5 -90zM670 143q0 -45 -17.5 -78t-84.5 -124q-11 -15 -17 -23l-96 -133h-113l119 199q-37 11 -61.5 45t-24.5 75
q0 67 51.5 116.5t120.5 49.5q52 0 87.5 -37t35.5 -90z" />
    <glyph glyph-name="quotedblleft.ss05" horiz-adv-x="798" 
d="M170 1092q0 34 12.5 64.5t28 53t76.5 107.5l96 133h115l-121 -199q38 -10 62 -44.5t24 -76.5q0 -69 -50.5 -117t-121.5 -48q-52 0 -86.5 37t-34.5 90zM532 1092q0 34 12.5 64.5t28 53t76.5 107.5l96 133h115l-121 -199q38 -10 62 -44.5t24 -76.5q0 -69 -50.5 -117
t-121.5 -48q-52 0 -86.5 37t-34.5 90z" />
    <glyph glyph-name="quotedblright.ss05" horiz-adv-x="798" 
d="M496 1329q0 -10 -1 -19.5t-2 -17t-5 -17.5t-6 -16t-9.5 -18.5t-11.5 -19t-16 -23.5t-18.5 -26t-23 -32t-26.5 -36l-96 -133h-115l121 198q-37 11 -61.5 45.5t-24.5 75.5q0 68 51 117t121 49q52 0 87.5 -37t35.5 -90zM858 1329q0 -10 -1 -19.5t-2 -17t-5 -17.5t-6 -16
t-9.5 -18.5t-11.5 -19t-16 -23.5t-18.5 -26t-23 -32t-26.5 -36l-96 -133h-115l121 198q-38 10 -62 44.5t-24 76.5q0 68 51 117t121 49q52 0 87.5 -37t35.5 -90z" />
    <glyph glyph-name="quoteleft.ss05" horiz-adv-x="436" 
d="M168 1085q0 46 19 80t100 144l96 133h113l-119 -199q37 -11 61.5 -45.5t24.5 -75.5q0 -67 -51.5 -116.5t-120.5 -49.5q-52 0 -87.5 37.5t-35.5 91.5z" />
    <glyph glyph-name="quoteright.ss05" horiz-adv-x="436" 
d="M496 1329q0 -10 -1 -19.5t-2 -17t-5 -17.5t-6 -16t-9.5 -18.5t-11.5 -19t-16 -23.5t-18.5 -26t-23 -32t-26.5 -36l-96 -133h-115l121 198q-37 11 -61.5 45.5t-24.5 75.5q0 68 51 117t121 49q52 0 87.5 -37t35.5 -90z" />
    <glyph glyph-name="space.tf" horiz-adv-x="1265" 
 />
    <glyph glyph-name="percent.part" horiz-adv-x="784" 
d="M430 729q-130 0 -207.5 84t-77.5 217q0 180 114.5 300t285.5 120q130 0 206 -83.5t76 -217.5q0 -180 -114 -300t-283 -120zM455 887q87 0 140.5 70t53.5 178q0 73 -34 115t-95 42q-87 0 -141.5 -68.5t-54.5 -176.5q0 -74 35 -117t96 -43z" />
    <glyph glyph-name="at.case" horiz-adv-x="1867" 
d="M1223 1024h178l-86 -537q-7 -52 19 -84t69 -32q98 0 170 118t72 289q0 224 -155 361t-409 137q-219 0 -403.5 -99t-293 -276t-108.5 -393q0 -259 161 -417.5t433 -158.5q140 0 272.5 37.5t289.5 114.5l38 -180q-181 -78 -327.5 -113t-306.5 -35q-225 0 -395.5 92.5
t-261.5 257.5t-91 379q0 202 82.5 383t221 309t326 202.5t392.5 74.5q212 0 377 -84.5t254.5 -233.5t89.5 -337q0 -263 -134 -434.5t-331 -171.5q-82 0 -139.5 35.5t-77.5 99.5q-48 -64 -127 -101t-174 -37q-156 0 -246 94.5t-90 256.5q0 212 134 352.5t331 142.5
q74 0 135 -29t94 -77zM893 348q122 0 201.5 88.5t79.5 227.5q0 99 -52.5 158t-144.5 59q-122 0 -202.5 -88.5t-80.5 -227.5q0 -100 53.5 -159t145.5 -58z" />
    <glyph glyph-name="caroncomb.alt" 
d="M-283 1147l123 371h219l-211 -371h-131z" />
    <glyph glyph-name="NULL" 
 />
    </font>
</defs>
</svg>
