<svg width="17" height="18" viewBox="0 0 17 18" fill="none" xmlns="http://www.w3.org/2000/svg">
<path d="M2.11765 4.5H3.52941H14.8235" stroke="#008000" stroke-width="1.2" stroke-linecap="round" stroke-linejoin="round"/>
<path d="M13.4118 4.5V15C13.4118 15.3978 13.263 15.7794 12.9983 16.0607C12.7335 16.342 12.3744 16.5 12 16.5H4.94118C4.56675 16.5 4.20766 16.342 3.94291 16.0607C3.67815 15.7794 3.52941 15.3978 3.52941 15V4.5M5.64706 4.5V3C5.64706 2.60218 5.7958 2.22064 6.06055 1.93934C6.32531 1.65804 6.6844 1.5 7.05882 1.5H9.88235C10.2568 1.5 10.6159 1.65804 10.8806 1.93934C11.1454 2.22064 11.2941 2.60218 11.2941 3V4.5" stroke="#008000" stroke-width="1.2" stroke-linecap="round" stroke-linejoin="round"/>
<path d="M7.05882 8.25V12.75" stroke="#008000" stroke-width="1.2" stroke-linecap="round" stroke-linejoin="round"/>
<path d="M9.88235 8.25V12.75" stroke="#008000" stroke-width="1.2" stroke-linecap="round" stroke-linejoin="round"/>
</svg>
